Cabin-Italic.ufo
<glyph name="exclam" format="2">
  <advance width="380"/>
  <unicode hex="0021"/>
  <outline>
    <contour>
      <point x="66" y="344" type="line"/>
      <point x="234" y="344" type="line"/>
      <point x="242" y="396" type="line"/>
      <point x="460" y="1400" type="line"/>
      <point x="212" y="1400" type="line"/>
      <point x="74" y="396" type="line"/>
    </contour>
    <contour>
      <point x="-20" y="0" type="line"/>
      <point x="196" y="0" type="line"/>
      <point x="234" y="212" type="line"/>
      <point x="18" y="212" type="line"/>
    </contour>
  </outline>
</glyph>
<glyph name="numbersign" format="2">
  <advance width="1290"/>
  <unicode hex="0023"/>
  <outline>
    <contour>
      <point x="22" y="-22" type="line"/>
      <point x="174" y="-22" type="line"/>
      <point x="410" y="432" type="line"/>
      <point x="638" y="432" type="line"/>
      <point x="402" y="-22" type="line"/>
      <point x="556" y="-22" type="line"/>
      <point x="790" y="432" type="line"/>
      <point x="1008" y="432" type="line"/>
      <point x="1118" y="614" type="line"/>
      <point x="888" y="614" type="line"/>
      <point x="1006" y="844" type="line"/>
      <point x="1214" y="844" type="line"/>
      <point x="1298" y="1014" type="line"/>
      <point x="1096" y="1014" type="line"/>
      <point x="1296" y="1400" type="line"/>
      <point x="1144" y="1400" type="line"/>
      <point x="942" y="1014" type="line"/>
      <point x="714" y="1014" type="line"/>
      <point x="916" y="1400" type="line"/>
      <point x="762" y="1400" type="line"/>
      <point x="562" y="1014" type="line"/>
      <point x="330" y="1014" type="line"/>
      <point x="246" y="844" type="line"/>
      <point x="470" y="844" type="line"/>
      <point x="354" y="614" type="line"/>
      <point x="148" y="614" type="line"/>
      <point x="40" y="432" type="line"/>
      <point x="256" y="432" type="line"/>
    </contour>
    <contour>
      <point x="506" y="614" type="line"/>
      <point x="626" y="844" type="line"/>
      <point x="852" y="844" type="line"/>
      <point x="734" y="614" type="line"/>
    </contour>
  </outline>
</glyph>
<glyph name="dollar" format="2">
  <advance width="1096"/>
  <unicode hex="0024"/>
  <anchor x="432" y="0" name="bottom"/>
  <anchor x="650" y="1400" name="top"/>
  <outline>
    <contour>
      <point x="494" y="68" type="line"/>
      <point x="378" y="68" type="line"/>
      <point x="296" y="-288" type="line"/>
      <point x="452" y="-288" type="line"/>
    </contour>
    <contour>
      <point x="646" y="1346" type="line"/>
      <point x="762" y="1346" type="line"/>
      <point x="842" y="1688" type="line"/>
      <point x="686" y="1688" type="line"/>
    </contour>
    <component base="S" xOffset="-32"/>
  </outline>
</glyph>
<glyph name="ampersand" format="2">
  <advance width="1120"/>
  <unicode hex="0026"/>
  <outline>
    <contour>
      <point x="390" y="-46" type="curve" smooth="yes"/>
      <point x="524" y="-46"/>
      <point x="628" y="-12"/>
      <point x="746" y="92" type="curve"/>
      <point x="802" y="0" type="line"/>
      <point x="996" y="0" type="line"/>
      <point x="866" y="200" type="line"/>
      <point x="984" y="368"/>
      <point x="1038" y="584"/>
      <point x="1062" y="702" type="curve"/>
      <point x="894" y="702" type="line"/>
      <point x="876" y="618"/>
      <point x="826" y="394"/>
      <point x="774" y="322" type="curve"/>
      <point x="528" y="712" type="line"/>
      <point x="702" y="822"/>
      <point x="894" y="990"/>
      <point x="894" y="1196" type="curve" smooth="yes"/>
      <point x="894" y="1320"/>
      <point x="824" y="1406"/>
      <point x="664" y="1406" type="curve" smooth="yes"/>
      <point x="456" y="1406"/>
      <point x="248" y="1258"/>
      <point x="248" y="1026" type="curve" smooth="yes"/>
      <point x="248" y="944"/>
      <point x="274" y="844"/>
      <point x="328" y="732" type="curve"/>
      <point x="128" y="582"/>
      <point x="24" y="440"/>
      <point x="24" y="262" type="curve" smooth="yes"/>
      <point x="24" y="84"/>
      <point x="128" y="-46"/>
    </contour>
    <contour>
      <point x="420" y="90" type="curve" smooth="yes"/>
      <point x="268" y="90"/>
      <point x="208" y="178"/>
      <point x="208" y="290" type="curve" smooth="yes"/>
      <point x="208" y="424"/>
      <point x="292" y="550"/>
      <point x="394" y="626" type="curve"/>
      <point x="676" y="210" type="line"/>
      <point x="610" y="138"/>
      <point x="532" y="90"/>
    </contour>
    <contour>
      <point x="470" y="812" type="curve"/>
      <point x="430" y="894"/>
      <point x="418" y="972"/>
      <point x="418" y="1026" type="curve" smooth="yes"/>
      <point x="418" y="1184"/>
      <point x="520" y="1268"/>
      <point x="622" y="1268" type="curve"/>
      <point x="692" y="1268"/>
      <point x="732" y="1230"/>
      <point x="732" y="1148" type="curve" smooth="yes"/>
      <point x="732" y="1010"/>
      <point x="622" y="942"/>
    </contour>
  </outline>
</glyph>
<glyph name="quotesingle" format="2">
  <advance width="276"/>
  <unicode hex="0027"/>
  <outline>
    <contour>
      <point x="76" y="980" type="line"/>
      <point x="204" y="980" type="line"/>
      <point x="316" y="1400" type="line"/>
      <point x="116" y="1400" type="line"/>
    </contour>
  </outline>
</glyph>
<glyph name="parenleft" format="2">
  <advance width="516"/>
  <unicode hex="0028"/>
  <outline>
    <contour>
      <point x="252" y="-272" type="curve"/>
      <point x="410" y="-272" type="line"/>
      <point x="344" y="-114"/>
      <point x="292" y="74"/>
      <point x="292" y="306" type="curve" smooth="yes"/>
      <point x="292" y="734"/>
      <point x="450" y="1146"/>
      <point x="722" y="1500" type="curve"/>
      <point x="548" y="1500" type="line"/>
      <point x="270" y="1160"/>
      <point x="112" y="750"/>
      <point x="112" y="312" type="curve" smooth="yes"/>
      <point x="112" y="70"/>
      <point x="172" y="-116"/>
    </contour>
  </outline>
</glyph>
<glyph name="asterisk" format="2">
  <advance width="810"/>
  <unicode hex="002A"/>
  <outline>
    <contour>
      <point x="84" y="956" type="line"/>
      <point x="124" y="856" type="line"/>
      <point x="414" y="1036" type="line"/>
      <point x="348" y="734" type="line"/>
      <point x="462" y="734" type="line"/>
      <point x="504" y="1036" type="line"/>
      <point x="734" y="860" type="line"/>
      <point x="802" y="952" type="line"/>
      <point x="554" y="1116" type="line"/>
      <point x="862" y="1278" type="line"/>
      <point x="822" y="1378" type="line"/>
      <point x="532" y="1198" type="line"/>
      <point x="598" y="1500" type="line"/>
      <point x="484" y="1500" type="line"/>
      <point x="444" y="1196" type="line"/>
      <point x="212" y="1374" type="line"/>
      <point x="144" y="1282" type="line"/>
      <point x="392" y="1120" type="line"/>
    </contour>
  </outline>
</glyph>
<glyph name="plus" format="2">
  <advance width="848"/>
  <unicode hex="002B"/>
  <outline>
    <contour>
      <point x="236" y="220" type="line"/>
      <point x="396" y="220" type="line"/>
      <point x="442" y="486" type="line"/>
      <point x="704" y="486" type="line"/>
      <point x="732" y="638" type="line"/>
      <point x="470" y="638" type="line"/>
      <point x="516" y="904" type="line"/>
      <point x="356" y="904" type="line"/>
      <point x="310" y="638" type="line"/>
      <point x="48" y="638" type="line"/>
      <point x="20" y="486" type="line"/>
      <point x="282" y="486" type="line"/>
    </contour>
  </outline>
</glyph>
<glyph name="comma" format="2">
  <advance width="374"/>
  <unicode hex="002C"/>
  <outline>
    <contour>
      <point x="54" y="-214" type="line"/>
      <point x="200" y="20" type="line"/>
      <point x="234" y="212" type="line"/>
      <point x="18" y="212" type="line"/>
      <point x="-20" y="0" type="line"/>
      <point x="50" y="0" type="line"/>
      <point x="-60" y="-214" type="line"/>
    </contour>
  </outline>
</glyph>
<glyph name="hyphen" format="2">
  <advance width="792"/>
  <unicode hex="002D"/>
  <outline>
    <contour>
      <point x="96" y="536" type="line"/>
      <point x="654" y="536" type="line"/>
      <point x="684" y="708" type="line"/>
      <point x="126" y="708" type="line"/>
    </contour>
  </outline>
</glyph>
<glyph name="period" format="2">
  <advance width="372"/>
  <unicode hex="002E"/>
  <outline>
    <contour>
      <point x="-20" y="0" type="line"/>
      <point x="196" y="0" type="line"/>
      <point x="232" y="212" type="line"/>
      <point x="16" y="212" type="line"/>
    </contour>
  </outline>
</glyph>
<glyph name="slash" format="2">
  <advance width="782"/>
  <unicode hex="002F"/>
  <outline>
    <contour>
      <point x="-100" y="-170" type="line"/>
      <point x="98" y="-170" type="line"/>
      <point x="902" y="1400" type="line"/>
      <point x="704" y="1400" type="line"/>
    </contour>
  </outline>
</glyph>
<glyph name="zero" format="2">
  <advance width="1350"/>
  <unicode hex="0030"/>
  <outline>
    <contour>
      <point x="526" y="-28" type="curve" smooth="yes"/>
      <point x="954" y="-28"/>
      <point x="1242" y="440"/>
      <point x="1242" y="900" type="curve" smooth="yes"/>
      <point x="1242" y="1224"/>
      <point x="1070" y="1428"/>
      <point x="782" y="1428" type="curve" smooth="yes"/>
      <point x="352" y="1428"/>
      <point x="68" y="984"/>
      <point x="68" y="518" type="curve" smooth="yes"/>
      <point x="68" y="190"/>
      <point x="228" y="-28"/>
    </contour>
    <contour>
      <point x="556" y="144" type="curve" smooth="yes"/>
      <point x="368" y="144"/>
      <point x="270" y="278"/>
      <point x="270" y="520" type="curve" smooth="yes"/>
      <point x="270" y="870"/>
      <point x="430" y="1256"/>
      <point x="752" y="1256" type="curve" smooth="yes"/>
      <point x="932" y="1256"/>
      <point x="1042" y="1136"/>
      <point x="1042" y="894" type="curve" smooth="yes"/>
      <point x="1042" y="534"/>
      <point x="876" y="144"/>
    </contour>
  </outline>
</glyph>
<glyph name="one" format="2">
  <advance width="632"/>
  <unicode hex="0031"/>
  <outline>
    <contour>
      <point x="132" y="0" type="line"/>
      <point x="316" y="0" type="line"/>
      <point x="564" y="1400" type="line"/>
      <point x="434" y="1400" type="line"/>
      <point x="356" y="1306"/>
      <point x="216" y="1218"/>
      <point x="100" y="1182" type="curve"/>
      <point x="102" y="1004" type="line"/>
      <point x="160" y="1022"/>
      <point x="222" y="1048"/>
      <point x="332" y="1126" type="curve"/>
    </contour>
  </outline>
</glyph>
<glyph name="two" format="2">
  <advance width="976"/>
  <unicode hex="0032"/>
  <outline>
    <contour>
      <point x="-60" y="2" type="line"/>
      <point x="748" y="2" type="line"/>
      <point x="778" y="174" type="line"/>
      <point x="300" y="174" type="line"/>
      <point x="556" y="494" type="line" smooth="yes"/>
      <point x="762" y="752"/>
      <point x="876" y="900"/>
      <point x="876" y="1108" type="curve" smooth="yes"/>
      <point x="876" y="1300"/>
      <point x="768" y="1428"/>
      <point x="550" y="1428" type="curve" smooth="yes"/>
      <point x="398" y="1428"/>
      <point x="250" y="1356"/>
      <point x="148" y="1270" type="curve"/>
      <point x="136" y="1070" type="line"/>
      <point x="254" y="1174"/>
      <point x="374" y="1248"/>
      <point x="508" y="1248" type="curve" smooth="yes"/>
      <point x="616" y="1248"/>
      <point x="676" y="1182"/>
      <point x="676" y="1078" type="curve" smooth="yes"/>
      <point x="676" y="938"/>
      <point x="588" y="816"/>
      <point x="402" y="582" type="curve" smooth="yes"/>
    </contour>
  </outline>
</glyph>
<glyph name="three" format="2">
  <advance width="1026"/>
  <unicode hex="0033"/>
  <outline>
    <contour>
      <point x="356" y="-28" type="curve" smooth="yes"/>
      <point x="638" y="-28"/>
      <point x="844" y="160"/>
      <point x="844" y="406" type="curve" smooth="yes"/>
      <point x="844" y="590"/>
      <point x="740" y="708"/>
      <point x="564" y="752" type="curve"/>
      <point x="556" y="706" type="line"/>
      <point x="770" y="748"/>
      <point x="918" y="906"/>
      <point x="918" y="1110" type="curve" smooth="yes"/>
      <point x="918" y="1298"/>
      <point x="786" y="1428"/>
      <point x="574" y="1428" type="curve" smooth="yes"/>
      <point x="440" y="1428"/>
      <point x="320" y="1396"/>
      <point x="212" y="1336" type="curve"/>
      <point x="210" y="1142" type="line"/>
      <point x="308" y="1206"/>
      <point x="414" y="1256"/>
      <point x="514" y="1256" type="curve" smooth="yes"/>
      <point x="636" y="1256"/>
      <point x="704" y="1198"/>
      <point x="704" y="1076" type="curve" smooth="yes"/>
      <point x="704" y="904"/>
      <point x="574" y="806"/>
      <point x="388" y="806" type="curve" smooth="yes"/>
      <point x="310" y="806" type="line"/>
      <point x="280" y="634" type="line"/>
      <point x="358" y="634" type="line" smooth="yes"/>
      <point x="552" y="634"/>
      <point x="638" y="542"/>
      <point x="638" y="398" type="curve" smooth="yes"/>
      <point x="638" y="238"/>
      <point x="524" y="144"/>
      <point x="368" y="144" type="curve" smooth="yes"/>
      <point x="240" y="144"/>
      <point x="132" y="194"/>
      <point x="18" y="272" type="curve"/>
      <point x="-60" y="96" type="line"/>
      <point x="60" y="22"/>
      <point x="200" y="-28"/>
    </contour>
  </outline>
</glyph>
<glyph name="four" format="2">
  <advance width="1120"/>
  <unicode hex="0034"/>
  <outline>
    <contour>
      <point x="-40" y="362" type="line"/>
      <point x="636" y="362" type="line"/>
      <point x="572" y="0" type="line"/>
      <point x="756" y="0" type="line"/>
      <point x="820" y="362" type="line"/>
      <point x="980" y="362" type="line"/>
      <point x="1008" y="524" type="line"/>
      <point x="848" y="524" type="line"/>
      <point x="1004" y="1400" type="line"/>
      <point x="866" y="1400" type="line"/>
    </contour>
    <contour>
      <point x="268" y="470" type="line"/>
      <point x="808" y="1094" type="line"/>
      <point x="776" y="1150" type="line"/>
      <point x="664" y="524" type="line"/>
      <point x="234" y="524" type="line"/>
    </contour>
  </outline>
</glyph>
<glyph name="five" format="2">
  <advance width="1022"/>
  <unicode hex="0035"/>
  <outline>
    <contour>
      <point x="350" y="-28" type="curve" smooth="yes"/>
      <point x="654" y="-28"/>
      <point x="876" y="174"/>
      <point x="876" y="476" type="curve" smooth="yes"/>
      <point x="876" y="716"/>
      <point x="730" y="884"/>
      <point x="460" y="884" type="curve" smooth="yes"/>
      <point x="400" y="884"/>
      <point x="338" y="878"/>
      <point x="284" y="868" type="curve"/>
      <point x="328" y="782" type="line"/>
      <point x="458" y="1220" type="line"/>
      <point x="930" y="1220" type="line"/>
      <point x="970" y="1400" type="line"/>
      <point x="334" y="1400" type="line"/>
      <point x="132" y="698" type="line"/>
      <point x="218" y="712"/>
      <point x="298" y="720"/>
      <point x="388" y="720" type="curve" smooth="yes"/>
      <point x="572" y="720"/>
      <point x="676" y="624"/>
      <point x="676" y="456" type="curve" smooth="yes"/>
      <point x="676" y="272"/>
      <point x="556" y="144"/>
      <point x="356" y="144" type="curve" smooth="yes"/>
      <point x="230" y="144"/>
      <point x="144" y="184"/>
      <point x="46" y="246" type="curve"/>
      <point x="-42" y="86" type="line"/>
      <point x="76" y="8"/>
      <point x="202" y="-28"/>
    </contour>
  </outline>
</glyph>
<glyph name="six" format="2">
  <advance width="1098"/>
  <unicode hex="0036"/>
  <outline>
    <contour>
      <point x="448" y="-28" type="curve" smooth="yes"/>
      <point x="756" y="-28"/>
      <point x="978" y="198"/>
      <point x="978" y="480" type="curve" smooth="yes"/>
      <point x="978" y="690"/>
      <point x="838" y="840"/>
      <point x="616" y="840" type="curve" smooth="yes"/>
      <point x="444" y="840"/>
      <point x="296" y="760"/>
      <point x="212" y="632" type="curve"/>
      <point x="236" y="550" type="line"/>
      <point x="300" y="880"/>
      <point x="618" y="1136"/>
      <point x="950" y="1286" type="curve"/>
      <point x="842" y="1428" type="line"/>
      <point x="428" y="1234"/>
      <point x="40" y="814"/>
      <point x="40" y="382" type="curve" smooth="yes"/>
      <point x="40" y="132"/>
      <point x="198" y="-28"/>
    </contour>
    <contour>
      <point x="460" y="136" type="curve" smooth="yes"/>
      <point x="320" y="136"/>
      <point x="238" y="222"/>
      <point x="236" y="350" type="curve" smooth="yes"/>
      <point x="236" y="520"/>
      <point x="376" y="676"/>
      <point x="566" y="676" type="curve" smooth="yes"/>
      <point x="700" y="676"/>
      <point x="778" y="586"/>
      <point x="778" y="462" type="curve" smooth="yes"/>
      <point x="778" y="294"/>
      <point x="644" y="136"/>
    </contour>
  </outline>
</glyph>
<glyph name="seven" format="2">
  <advance width="970"/>
  <unicode hex="0037"/>
  <outline>
    <contour>
      <point x="36" y="0" type="line"/>
      <point x="236" y="0" type="line"/>
      <point x="1050" y="1400" type="line"/>
      <point x="184" y="1400" type="line"/>
      <point x="152" y="1220" type="line"/>
      <point x="828" y="1220" type="line"/>
      <point x="790" y="1306" type="line"/>
    </contour>
  </outline>
</glyph>
<glyph name="eight" format="2">
  <advance width="1168"/>
  <unicode hex="0038"/>
  <outline>
    <contour>
      <point x="456" y="-28" type="curve" smooth="yes"/>
      <point x="754" y="-28"/>
      <point x="992" y="182"/>
      <point x="992" y="480" type="curve" smooth="yes"/>
      <point x="992" y="696"/>
      <point x="840" y="832"/>
      <point x="594" y="832" type="curve" smooth="yes"/>
      <point x="294" y="832"/>
      <point x="44" y="608"/>
      <point x="44" y="324" type="curve" smooth="yes"/>
      <point x="44" y="110"/>
      <point x="212" y="-28"/>
    </contour>
    <contour>
      <point x="472" y="144" type="curve" smooth="yes"/>
      <point x="324" y="144"/>
      <point x="244" y="222"/>
      <point x="242" y="344" type="curve" smooth="yes"/>
      <point x="242" y="526"/>
      <point x="376" y="676"/>
      <point x="566" y="676" type="curve" smooth="yes"/>
      <point x="714" y="676"/>
      <point x="792" y="588"/>
      <point x="794" y="458" type="curve" smooth="yes"/>
      <point x="794" y="276"/>
      <point x="664" y="144"/>
    </contour>
    <contour>
      <point x="596" y="842" type="curve" smooth="yes"/>
      <point x="478" y="842"/>
      <point x="416" y="916"/>
      <point x="416" y="1012" type="curve" smooth="yes"/>
      <point x="416" y="1150"/>
      <point x="520" y="1256"/>
      <point x="668" y="1256" type="curve" smooth="yes"/>
      <point x="784" y="1256"/>
      <point x="840" y="1190"/>
      <point x="840" y="1088" type="curve" smooth="yes"/>
      <point x="840" y="950"/>
      <point x="740" y="842"/>
    </contour>
    <contour>
      <point x="576" y="686" type="curve" smooth="yes"/>
      <point x="830" y="686"/>
      <point x="1032" y="862"/>
      <point x="1032" y="1116" type="curve" smooth="yes"/>
      <point x="1032" y="1286"/>
      <point x="930" y="1428"/>
      <point x="692" y="1428" type="curve" smooth="yes"/>
      <point x="432" y="1428"/>
      <point x="224" y="1240"/>
      <point x="224" y="988" type="curve" smooth="yes"/>
      <point x="226" y="808"/>
      <point x="372" y="686"/>
    </contour>
  </outline>
</glyph>
<glyph name="less" format="2">
  <advance width="846"/>
  <unicode hex="003C"/>
  <outline>
    <contour>
      <point x="20" y="476" type="line"/>
      <point x="662" y="150" type="line"/>
      <point x="692" y="318" type="line"/>
      <point x="188" y="558" type="line"/>
      <point x="776" y="798" type="line"/>
      <point x="806" y="974" type="line"/>
      <point x="52" y="648" type="line"/>
    </contour>
  </outline>
</glyph>
<glyph name="equal" format="2">
  <advance width="880"/>
  <unicode hex="003D"/>
  <guideline x="27" y="318" angle="80"/>
  <outline>
    <contour>
      <point x="55" y="636" type="line"/>
      <point x="755" y="636" type="line"/>
      <point x="783" y="788" type="line"/>
      <point x="83" y="788" type="line"/>
    </contour>
    <contour>
      <point x="-1" y="320" type="line"/>
      <point x="699" y="320" type="line"/>
      <point x="727" y="472" type="line"/>
      <point x="27" y="472" type="line"/>
    </contour>
  </outline>
</glyph>
<glyph name="question" format="2">
  <advance width="884"/>
  <unicode hex="003F"/>
  <outline>
    <contour>
      <point x="214" y="344" type="line"/>
      <point x="402" y="344" type="line"/>
      <point x="414" y="406" type="line" smooth="yes"/>
      <point x="436" y="536"/>
      <point x="528" y="624"/>
      <point x="626" y="722" type="curve" smooth="yes"/>
      <point x="750" y="848"/>
      <point x="864" y="956"/>
      <point x="864" y="1142" type="curve" smooth="yes"/>
      <point x="862" y="1300"/>
      <point x="758" y="1428"/>
      <point x="538" y="1428" type="curve" smooth="yes"/>
      <point x="398" y="1428"/>
      <point x="290" y="1392"/>
      <point x="200" y="1342" type="curve"/>
      <point x="190" y="1180" type="line"/>
      <point x="272" y="1224"/>
      <point x="362" y="1256"/>
      <point x="462" y="1256" type="curve" smooth="yes"/>
      <point x="558" y="1256"/>
      <point x="650" y="1204"/>
      <point x="650" y="1092" type="curve" smooth="yes"/>
      <point x="650" y="962"/>
      <point x="560" y="874"/>
      <point x="454" y="766" type="curve" smooth="yes"/>
      <point x="354" y="666"/>
      <point x="254" y="568"/>
      <point x="224" y="394" type="curve" smooth="yes"/>
    </contour>
    <contour>
      <point x="140" y="0" type="line"/>
      <point x="356" y="0" type="line"/>
      <point x="394" y="212" type="line"/>
      <point x="178" y="212" type="line"/>
    </contour>
  </outline>
</glyph>
<glyph name="A" format="2">
  <advance width="1136"/>
  <unicode hex="0041"/>
  <anchor x="474" y="0" name="bottom"/>
  <anchor x="964" y="0" name="ogonek"/>
  <anchor x="720" y="1400" name="top"/>
  <outline>
    <contour>
      <point x="-74" y="0" type="line"/>
      <point x="126" y="0" type="line"/>
      <point x="308" y="378" type="line"/>
      <point x="770" y="378" type="line"/>
      <point x="820" y="0" type="line"/>
      <point x="1020" y="0" type="line"/>
      <point x="816" y="1400" type="line"/>
      <point x="624" y="1400" type="line"/>
    </contour>
    <contour>
      <point x="400" y="550" type="line"/>
      <point x="672" y="1134" type="line"/>
      <point x="738" y="550" type="line"/>
    </contour>
  </outline>
</glyph>
<glyph name="B" format="2">
  <advance width="1130"/>
  <unicode hex="0042"/>
  <outline>
    <contour>
      <point x="56" y="0" type="line"/>
      <point x="466" y="0" type="line" smooth="yes"/>
      <point x="798" y="0"/>
      <point x="1026" y="152"/>
      <point x="1026" y="462" type="curve" smooth="yes"/>
      <point x="1026" y="608"/>
      <point x="960" y="706"/>
      <point x="832" y="754" type="curve"/>
      <point x="952" y="816"/>
      <point x="1030" y="934"/>
      <point x="1030" y="1100" type="curve" smooth="yes"/>
      <point x="1030" y="1328"/>
      <point x="876" y="1400"/>
      <point x="618" y="1400" type="curve" smooth="yes"/>
      <point x="302" y="1400" type="line"/>
    </contour>
    <contour>
      <point x="276" y="172" type="line"/>
      <point x="360" y="646" type="line"/>
      <point x="598" y="646" type="line" smooth="yes"/>
      <point x="750" y="646"/>
      <point x="826" y="576"/>
      <point x="826" y="442" type="curve" smooth="yes"/>
      <point x="826" y="260"/>
      <point x="664" y="172"/>
      <point x="468" y="172" type="curve" smooth="yes"/>
    </contour>
    <contour>
      <point x="390" y="818" type="line"/>
      <point x="462" y="1230" type="line"/>
      <point x="636" y="1230" type="line" smooth="yes"/>
      <point x="766" y="1230"/>
      <point x="836" y="1178"/>
      <point x="836" y="1054" type="curve" smooth="yes"/>
      <point x="836" y="908"/>
      <point x="732" y="818"/>
      <point x="574" y="818" type="curve" smooth="yes"/>
    </contour>
  </outline>
</glyph>
<glyph name="C" format="2">
  <advance width="1130"/>
  <unicode hex="0043"/>
  <anchor x="626" y="0" name="bottom"/>
  <anchor x="886" y="1400" name="top"/>
  <outline>
    <contour>
      <point x="610" y="-28" type="curve" smooth="yes"/>
      <point x="734" y="-28"/>
      <point x="874" y="6"/>
      <point x="972" y="52" type="curve"/>
      <point x="984" y="228" type="line"/>
      <point x="876" y="190"/>
      <point x="766" y="144"/>
      <point x="646" y="144" type="curve" smooth="yes"/>
      <point x="410" y="144"/>
      <point x="302" y="324"/>
      <point x="302" y="578" type="curve" smooth="yes"/>
      <point x="302" y="926"/>
      <point x="502" y="1256"/>
      <point x="836" y="1256" type="curve" smooth="yes"/>
      <point x="964" y="1256"/>
      <point x="1056" y="1208"/>
      <point x="1150" y="1170" type="curve"/>
      <point x="1202" y="1346" type="line"/>
      <point x="1122" y="1392"/>
      <point x="992" y="1428"/>
      <point x="862" y="1428" type="curve" smooth="yes"/>
      <point x="446" y="1428"/>
      <point x="92" y="1064"/>
      <point x="92" y="568" type="curve" smooth="yes"/>
      <point x="92" y="192"/>
      <point x="294" y="-28"/>
    </contour>
  </outline>
</glyph>
<glyph name="D" format="2">
  <advance width="1344"/>
  <unicode hex="0044"/>
  <anchor x="672" y="0" name="bottom"/>
  <anchor x="822" y="1400" name="top"/>
  <outline>
    <contour>
      <point x="56" y="0" type="line"/>
      <point x="524" y="0" type="line" smooth="yes"/>
      <point x="946" y="0"/>
      <point x="1288" y="334"/>
      <point x="1288" y="822" type="curve" smooth="yes"/>
      <point x="1288" y="1200"/>
      <point x="1084" y="1400"/>
      <point x="770" y="1400" type="curve" smooth="yes"/>
      <point x="302" y="1400" type="line"/>
    </contour>
    <contour>
      <point x="276" y="172" type="line"/>
      <point x="462" y="1228" type="line"/>
      <point x="740" y="1228" type="line" smooth="yes"/>
      <point x="968" y="1228"/>
      <point x="1078" y="1072"/>
      <point x="1078" y="812" type="curve" smooth="yes"/>
      <point x="1078" y="470"/>
      <point x="888" y="172"/>
      <point x="554" y="172" type="curve" smooth="yes"/>
    </contour>
  </outline>
</glyph>
<glyph name="E" format="2">
  <advance width="1028"/>
  <unicode hex="0045"/>
  <anchor x="476" y="0" name="bottom"/>
  <anchor x="798" y="0" name="ogonek"/>
  <anchor x="690" y="1400" name="top"/>
  <outline>
    <contour>
      <point x="56" y="0" type="line"/>
      <point x="854" y="0" type="line"/>
      <point x="884" y="172" type="line"/>
      <point x="278" y="172" type="line"/>
      <point x="362" y="646" type="line"/>
      <point x="826" y="646" type="line"/>
      <point x="856" y="818" type="line"/>
      <point x="392" y="818" type="line"/>
      <point x="464" y="1228" type="line"/>
      <point x="1054" y="1228" type="line"/>
      <point x="1084" y="1400" type="line"/>
      <point x="302" y="1400" type="line"/>
    </contour>
  </outline>
</glyph>
<glyph name="G" format="2">
  <advance width="1242"/>
  <unicode hex="0047"/>
  <anchor x="622" y="0" name="bottom"/>
  <anchor x="854" y="1400" name="top"/>
  <outline>
    <contour>
      <point x="618" y="-28" type="curve" smooth="yes"/>
      <point x="774" y="-28"/>
      <point x="944" y="20"/>
      <point x="1048" y="78" type="curve"/>
      <point x="1158" y="702" type="line"/>
      <point x="788" y="702" type="line"/>
      <point x="758" y="530" type="line"/>
      <point x="938" y="530" type="line"/>
      <point x="876" y="182" type="line"/>
      <point x="806" y="152"/>
      <point x="724" y="144"/>
      <point x="670" y="144" type="curve" smooth="yes"/>
      <point x="418" y="144"/>
      <point x="302" y="318"/>
      <point x="302" y="580" type="curve" smooth="yes"/>
      <point x="302" y="912"/>
      <point x="486" y="1256"/>
      <point x="844" y="1256" type="curve" smooth="yes"/>
      <point x="958" y="1256"/>
      <point x="1086" y="1222"/>
      <point x="1182" y="1182" type="curve"/>
      <point x="1230" y="1348" type="line"/>
      <point x="1144" y="1394"/>
      <point x="994" y="1428"/>
      <point x="864" y="1428" type="curve" smooth="yes"/>
      <point x="442" y="1428"/>
      <point x="94" y="1064"/>
      <point x="94" y="570" type="curve" smooth="yes"/>
      <point x="94" y="194"/>
      <point x="304" y="-28"/>
    </contour>
  </outline>
</glyph>
<glyph name="H" format="2">
  <advance width="1376"/>
  <unicode hex="0048"/>
  <anchor x="584" y="0" name="bottom"/>
  <anchor x="830" y="1400" name="top"/>
  <outline>
    <contour>
      <point x="56" y="0" type="line"/>
      <point x="246" y="0" type="line"/>
      <point x="360" y="642" type="line"/>
      <point x="1034" y="642" type="line"/>
      <point x="920" y="0" type="line"/>
      <point x="1110" y="0" type="line"/>
      <point x="1358" y="1400" type="line"/>
      <point x="1168" y="1400" type="line"/>
      <point x="1066" y="822" type="line"/>
      <point x="390" y="822" type="line"/>
      <point x="492" y="1400" type="line"/>
      <point x="302" y="1400" type="line"/>
    </contour>
  </outline>
</glyph>
<glyph name="I" format="2">
  <advance width="510"/>
  <unicode hex="0049"/>
  <anchor x="152" y="0" name="bottom"/>
  <anchor x="190" y="0" name="ogonek"/>
  <anchor x="396" y="1400" name="top"/>
  <outline>
    <contour>
      <point x="56" y="0" type="line"/>
      <point x="246" y="0" type="line"/>
      <point x="492" y="1400" type="line"/>
      <point x="302" y="1400" type="line"/>
    </contour>
  </outline>
</glyph>
<glyph name="J" format="2">
  <advance width="512"/>
  <unicode hex="004A"/>
  <anchor x="400" y="1400" name="top"/>
  <outline>
    <contour>
      <point x="-152" y="-344" type="line"/>
      <point x="-110" y="-344" type="line" smooth="yes"/>
      <point x="88" y="-344"/>
      <point x="204" y="-244"/>
      <point x="236" y="-64" type="curve" smooth="yes"/>
      <point x="494" y="1400" type="line"/>
      <point x="304" y="1400" type="line"/>
      <point x="56" y="-6" type="line" smooth="yes"/>
      <point x="28" y="-162"/>
      <point x="-12" y="-232"/>
      <point x="-130" y="-232" type="curve" smooth="yes"/>
      <point x="-148" y="-232" type="line"/>
    </contour>
  </outline>
</glyph>
<glyph name="K" format="2">
  <advance width="1094"/>
  <unicode hex="004B"/>
  <anchor x="506" y="0" name="bottom"/>
  <anchor x="730" y="1400" name="top"/>
  <outline>
    <contour>
      <point x="766" y="0" type="line"/>
      <point x="984" y="0" type="line"/>
      <point x="598" y="742" type="line"/>
      <point x="1196" y="1400" type="line"/>
      <point x="968" y="1400" type="line"/>
      <point x="394" y="742" type="line"/>
    </contour>
    <contour>
      <point x="56" y="0" type="line"/>
      <point x="246" y="0" type="line"/>
      <point x="492" y="1400" type="line"/>
      <point x="302" y="1400" type="line"/>
    </contour>
  </outline>
</glyph>
<glyph name="L" format="2">
  <advance width="934"/>
  <unicode hex="004C"/>
  <anchor x="468" y="0" name="bottom"/>
  <anchor x="732" y="768" name="center"/>
  <anchor x="398" y="1400" name="top"/>
  <anchor x="932" y="1400" name="topright"/>
  <outline>
    <contour>
      <point x="56" y="0" type="line"/>
      <point x="804" y="0" type="line"/>
      <point x="836" y="172" type="line"/>
      <point x="276" y="172" type="line"/>
      <point x="492" y="1400" type="line"/>
      <point x="302" y="1400" type="line"/>
    </contour>
  </outline>
</glyph>
<glyph name="M" format="2">
  <advance width="1504"/>
  <unicode hex="004D"/>
  <anchor x="648" y="0" name="bottom"/>
  <anchor x="894" y="1400" name="top"/>
  <outline>
    <contour>
      <point x="-6" y="0" type="line"/>
      <point x="194" y="0" type="line"/>
      <point x="490" y="1032" type="line"/>
      <point x="708" y="332" type="line"/>
      <point x="1168" y="1032" type="line"/>
      <point x="1100" y="0" type="line"/>
      <point x="1300" y="0" type="line"/>
      <point x="1376" y="1400" type="line"/>
      <point x="1204" y="1400" type="line"/>
      <point x="772" y="706" type="line"/>
      <point x="584" y="1400" type="line"/>
      <point x="412" y="1400" type="line"/>
    </contour>
  </outline>
</glyph>
<glyph name="N" format="2">
  <advance width="1306"/>
  <unicode hex="004E"/>
  <anchor x="564" y="0" name="bottom"/>
  <anchor x="800" y="1400" name="top"/>
  <outline>
    <contour>
      <point x="56" y="0" type="line"/>
      <point x="246" y="0" type="line"/>
      <point x="442" y="1106" type="line"/>
      <point x="880" y="0" type="line"/>
      <point x="1040" y="0" type="line"/>
      <point x="1288" y="1400" type="line"/>
      <point x="1096" y="1400" type="line"/>
      <point x="912" y="352" type="line"/>
      <point x="502" y="1400" type="line"/>
      <point x="302" y="1400" type="line"/>
    </contour>
  </outline>
</glyph>
<glyph name="O" format="2">
  <advance width="1420"/>
  <unicode hex="004F"/>
  <anchor x="592" y="0" name="bottom"/>
  <anchor x="678" y="0" name="ogonek"/>
  <anchor x="852" y="1400" name="top"/>
  <anchor x="1004" y="1400" name="topright"/>
  <outline>
    <contour>
      <point x="606" y="-28" type="curve" smooth="yes"/>
      <point x="1016" y="-28"/>
      <point x="1366" y="340"/>
      <point x="1366" y="836" type="curve" smooth="yes"/>
      <point x="1366" y="1210"/>
      <point x="1168" y="1428"/>
      <point x="852" y="1428" type="curve" smooth="yes"/>
      <point x="440" y="1428"/>
      <point x="92" y="1060"/>
      <point x="92" y="564" type="curve" smooth="yes"/>
      <point x="92" y="190"/>
      <point x="290" y="-28"/>
    </contour>
    <contour>
      <point x="638" y="144" type="curve" smooth="yes"/>
      <point x="400" y="144"/>
      <point x="302" y="332"/>
      <point x="302" y="576" type="curve" smooth="yes"/>
      <point x="302" y="924"/>
      <point x="502" y="1256"/>
      <point x="820" y="1256" type="curve" smooth="yes"/>
      <point x="1058" y="1256"/>
      <point x="1158" y="1070"/>
      <point x="1158" y="824" type="curve" smooth="yes"/>
      <point x="1158" y="476"/>
      <point x="956" y="144"/>
    </contour>
  </outline>
</glyph>
<glyph name="P" format="2">
  <advance width="1076"/>
  <unicode hex="0050"/>
  <outline>
    <contour>
      <point x="56" y="0" type="line"/>
      <point x="252" y="0" type="line"/>
      <point x="338" y="490" type="line"/>
      <point x="596" y="490" type="line" smooth="yes"/>
      <point x="844" y="490"/>
      <point x="1098" y="632"/>
      <point x="1098" y="1024" type="curve" smooth="yes"/>
      <point x="1098" y="1286"/>
      <point x="964" y="1400"/>
      <point x="688" y="1400" type="curve" smooth="yes"/>
      <point x="302" y="1400" type="line"/>
    </contour>
    <contour>
      <point x="368" y="660" type="line"/>
      <point x="470" y="1230" type="line"/>
      <point x="684" y="1230" type="line" smooth="yes"/>
      <point x="844" y="1230"/>
      <point x="898" y="1138"/>
      <point x="898" y="998" type="curve" smooth="yes"/>
      <point x="898" y="808"/>
      <point x="794" y="660"/>
      <point x="594" y="660" type="curve" smooth="yes"/>
    </contour>
  </outline>
</glyph>
<glyph name="Q" format="2">
  <advance width="1418"/>
  <unicode hex="0051"/>
  <outline>
    <contour>
      <point x="602" y="-28" type="curve" smooth="yes"/>
      <point x="740" y="-28"/>
      <point x="874" y="16"/>
      <point x="1006" y="114" type="curve"/>
      <point x="1106" y="6" type="line"/>
      <point x="1232" y="124" type="line"/>
      <point x="1140" y="222" type="line"/>
      <point x="1298" y="438"/>
      <point x="1366" y="626"/>
      <point x="1366" y="840" type="curve" smooth="yes"/>
      <point x="1366" y="1200"/>
      <point x="1174" y="1428"/>
      <point x="850" y="1428" type="curve" smooth="yes"/>
      <point x="440" y="1428"/>
      <point x="92" y="1060"/>
      <point x="92" y="566" type="curve" smooth="yes"/>
      <point x="92" y="192"/>
      <point x="292" y="-28"/>
    </contour>
    <contour>
      <point x="640" y="144" type="curve" smooth="yes"/>
      <point x="400" y="144"/>
      <point x="302" y="324"/>
      <point x="302" y="572" type="curve" smooth="yes"/>
      <point x="302" y="922"/>
      <point x="496" y="1256"/>
      <point x="822" y="1256" type="curve" smooth="yes"/>
      <point x="822" y="1256" type="line"/>
      <point x="1058" y="1256"/>
      <point x="1168" y="1082"/>
      <point x="1168" y="808" type="curve" smooth="yes"/>
      <point x="1168" y="582"/>
      <point x="1094" y="460"/>
      <point x="1018" y="344" type="curve"/>
      <point x="868" y="514" type="line"/>
      <point x="742" y="392" type="line"/>
      <point x="892" y="224" type="line"/>
      <point x="808" y="158"/>
      <point x="706" y="144"/>
    </contour>
  </outline>
</glyph>
<glyph name="R" format="2">
  <advance width="1130"/>
  <unicode hex="0052"/>
  <anchor x="516" y="0" name="bottom"/>
  <anchor x="752" y="1400" name="top"/>
  <outline>
    <contour>
      <point x="56" y="0" type="line"/>
      <point x="252" y="0" type="line"/>
      <point x="348" y="546" type="line"/>
      <point x="604" y="546" type="line"/>
      <point x="780" y="0" type="line"/>
      <point x="982" y="0" type="line"/>
      <point x="796" y="596" type="line"/>
      <point x="966" y="652"/>
      <point x="1102" y="810"/>
      <point x="1102" y="1046" type="curve" smooth="yes"/>
      <point x="1102" y="1274"/>
      <point x="968" y="1400"/>
      <point x="692" y="1400" type="curve" smooth="yes"/>
      <point x="302" y="1400" type="line"/>
    </contour>
    <contour>
      <point x="380" y="730" type="line"/>
      <point x="472" y="1246" type="line"/>
      <point x="684" y="1246" type="line" smooth="yes"/>
      <point x="842" y="1246"/>
      <point x="900" y="1172"/>
      <point x="900" y="1032" type="curve" smooth="yes"/>
      <point x="900" y="828"/>
      <point x="778" y="730"/>
      <point x="620" y="730" type="curve" smooth="yes"/>
    </contour>
  </outline>
</glyph>
<glyph name="S" format="2">
  <advance width="1076"/>
  <unicode hex="0053"/>
  <anchor x="464" y="0" name="bottom"/>
  <anchor x="682" y="1400" name="top"/>
  <outline>
    <contour>
      <point x="408" y="-28" type="curve" smooth="yes"/>
      <point x="842" y="-28"/>
      <point x="976" y="216"/>
      <point x="976" y="426" type="curve" smooth="yes"/>
      <point x="976" y="684"/>
      <point x="774" y="746"/>
      <point x="594" y="816" type="curve" smooth="yes"/>
      <point x="454" y="870"/>
      <point x="366" y="914"/>
      <point x="366" y="1026" type="curve" smooth="yes"/>
      <point x="366" y="1186"/>
      <point x="542" y="1256"/>
      <point x="674" y="1256" type="curve" smooth="yes"/>
      <point x="808" y="1256"/>
      <point x="906" y="1212"/>
      <point x="1014" y="1130" type="curve"/>
      <point x="1068" y="1332" type="line"/>
      <point x="988" y="1378"/>
      <point x="854" y="1428"/>
      <point x="688" y="1428" type="curve" smooth="yes"/>
      <point x="298" y="1428"/>
      <point x="156" y="1148"/>
      <point x="156" y="970" type="curve" smooth="yes"/>
      <point x="156" y="764"/>
      <point x="346" y="702"/>
      <point x="494" y="642" type="curve" smooth="yes"/>
      <point x="642" y="582"/>
      <point x="762" y="532"/>
      <point x="762" y="384" type="curve" smooth="yes"/>
      <point x="762" y="218"/>
      <point x="610" y="144"/>
      <point x="438" y="144" type="curve" smooth="yes"/>
      <point x="274" y="144"/>
      <point x="152" y="218"/>
      <point x="76" y="284" type="curve"/>
      <point x="12" y="62" type="line"/>
      <point x="80" y="16"/>
      <point x="224" y="-28"/>
    </contour>
  </outline>
</glyph>
<glyph name="T" format="2">
  <advance width="1046"/>
  <unicode hex="0054"/>
  <anchor x="418" y="0" name="bottom"/>
  <anchor x="664" y="1400" name="top"/>
  <outline>
    <contour>
      <point x="322" y="0" type="line"/>
      <point x="512" y="0" type="line"/>
      <point x="728" y="1228" type="line"/>
      <point x="1092" y="1228" type="line"/>
      <point x="1122" y="1400" type="line"/>
      <point x="204" y="1400" type="line"/>
      <point x="174" y="1228" type="line"/>
      <point x="538" y="1228" type="line"/>
    </contour>
  </outline>
</glyph>
<glyph name="U" format="2">
  <advance width="1336"/>
  <unicode hex="0055"/>
  <anchor x="562" y="0" name="bottom"/>
  <anchor x="680" y="0" name="ogonek"/>
  <anchor x="822" y="1400" name="top"/>
  <anchor x="1220" y="1400" name="topright"/>
  <outline>
    <contour>
      <point x="560" y="-28" type="curve" smooth="yes"/>
      <point x="914" y="-28"/>
      <point x="1124" y="210"/>
      <point x="1192" y="594" type="curve" smooth="yes"/>
      <point x="1334" y="1400" type="line"/>
      <point x="1144" y="1400" type="line"/>
      <point x="1018" y="686" type="line" smooth="yes"/>
      <point x="970" y="412"/>
      <point x="872" y="144"/>
      <point x="590" y="144" type="curve" smooth="yes"/>
      <point x="390" y="144"/>
      <point x="330" y="280"/>
      <point x="330" y="458" type="curve" smooth="yes"/>
      <point x="330" y="530"/>
      <point x="340" y="608"/>
      <point x="354" y="686" type="curve" smooth="yes"/>
      <point x="480" y="1400" type="line"/>
      <point x="290" y="1400" type="line"/>
      <point x="148" y="594" type="line" smooth="yes"/>
      <point x="136" y="528"/>
      <point x="130" y="466"/>
      <point x="130" y="408" type="curve" smooth="yes"/>
      <point x="130" y="134"/>
      <point x="268" y="-28"/>
    </contour>
  </outline>
</glyph>
<glyph name="V" format="2">
  <advance width="1190"/>
  <unicode hex="0056"/>
  <outline>
    <contour>
      <point x="376" y="0" type="line"/>
      <point x="588" y="0" type="line"/>
      <point x="1306" y="1400" type="line"/>
      <point x="1106" y="1400" type="line"/>
      <point x="522" y="230" type="line"/>
      <point x="350" y="1400" type="line"/>
      <point x="150" y="1400" type="line"/>
    </contour>
  </outline>
</glyph>
<glyph name="W" format="2">
  <advance width="1778"/>
  <unicode hex="0057"/>
  <anchor x="786" y="0" name="bottom"/>
  <anchor x="1034" y="1400" name="top"/>
  <outline>
    <contour>
      <point x="292" y="0" type="line"/>
      <point x="490" y="0" type="line"/>
      <point x="992" y="1148" type="line"/>
      <point x="1082" y="0" type="line"/>
      <point x="1274" y="0" type="line"/>
      <point x="1890" y="1400" type="line"/>
      <point x="1692" y="1400" type="line"/>
      <point x="1216" y="238" type="line"/>
      <point x="1132" y="1372" type="line"/>
      <point x="934" y="1372" type="line"/>
      <point x="440" y="236" type="line"/>
      <point x="386" y="1400" type="line"/>
      <point x="186" y="1400" type="line"/>
    </contour>
  </outline>
</glyph>
<glyph name="X" format="2">
  <advance width="1124"/>
  <unicode hex="0058"/>
  <outline>
    <contour>
      <point x="-78" y="0" type="line"/>
      <point x="130" y="0" type="line"/>
      <point x="550" y="574" type="line"/>
      <point x="794" y="0" type="line"/>
      <point x="1000" y="0" type="line"/>
      <point x="682" y="712" type="line"/>
      <point x="1238" y="1400" type="line"/>
      <point x="1032" y="1400" type="line"/>
      <point x="612" y="844" type="line"/>
      <point x="396" y="1400" type="line"/>
      <point x="176" y="1400" type="line"/>
      <point x="464" y="714" type="line"/>
    </contour>
  </outline>
</glyph>
<glyph name="Y" format="2">
  <advance width="1092"/>
  <unicode hex="0059"/>
  <anchor x="436" y="0" name="bottom"/>
  <anchor x="682" y="1400" name="top"/>
  <outline>
    <contour>
      <point x="338" y="0" type="line"/>
      <point x="534" y="0" type="line"/>
      <point x="648" y="646" type="line"/>
      <point x="1208" y="1400" type="line"/>
      <point x="1008" y="1400" type="line"/>
      <point x="584" y="818" type="line"/>
      <point x="356" y="1400" type="line"/>
      <point x="156" y="1400" type="line"/>
      <point x="452" y="646" type="line"/>
    </contour>
  </outline>
</glyph>
<glyph name="Z" format="2">
  <advance width="1000"/>
  <unicode hex="005A"/>
  <anchor x="358" y="0" name="bottom"/>
  <anchor x="686" y="1400" name="top"/>
  <outline>
    <contour>
      <point x="-82" y="0" type="line"/>
      <point x="796" y="0" type="line"/>
      <point x="826" y="172" type="line"/>
      <point x="260" y="172" type="line"/>
      <point x="1124" y="1400" type="line"/>
      <point x="246" y="1400" type="line"/>
      <point x="216" y="1228" type="line"/>
      <point x="780" y="1228" type="line"/>
    </contour>
  </outline>
</glyph>
<glyph name="backslash" format="2">
  <advance width="610"/>
  <unicode hex="005C"/>
  <outline>
    <contour>
      <point x="348" y="-170" type="line"/>
      <point x="530" y="-170" type="line"/>
      <point x="302" y="1400" type="line"/>
      <point x="120" y="1400" type="line"/>
    </contour>
  </outline>
</glyph>
<glyph name="bracketright" format="2">
  <advance width="620"/>
  <unicode hex="005D"/>
  <outline>
    <contour>
      <point x="-136" y="-270" type="line"/>
      <point x="326" y="-270" type="line"/>
      <point x="638" y="1500" type="line"/>
      <point x="176" y="1500" type="line"/>
      <point x="152" y="1364" type="line"/>
      <point x="446" y="1364" type="line"/>
      <point x="182" y="-134" type="line"/>
      <point x="-112" y="-134" type="line"/>
    </contour>
  </outline>
</glyph>
<glyph name="asciicircum" format="2">
  <advance width="862"/>
  <unicode hex="005E"/>
  <outline>
    <contour>
      <point x="44" y="928" type="line"/>
      <point x="482" y="1282" type="line"/>
      <point x="814" y="884" type="line"/>
      <point x="850" y="1086" type="line"/>
      <point x="514" y="1518" type="line"/>
      <point x="80" y="1130" type="line"/>
    </contour>
  </outline>
</glyph>
<glyph name="underscore" format="2">
  <advance width="1002"/>
  <unicode hex="005F"/>
  <outline>
    <contour>
      <point x="-140" y="-244" type="line"/>
      <point x="868" y="-244" type="line"/>
      <point x="898" y="-72" type="line"/>
      <point x="-110" y="-72" type="line"/>
    </contour>
  </outline>
</glyph>
<glyph name="a" format="2">
  <advance width="1080"/>
  <unicode hex="0061"/>
  <anchor x="410" y="0" name="bottom"/>
  <anchor x="812" y="0" name="ogonek"/>
  <anchor x="642" y="980" name="top"/>
  <outline>
    <contour>
      <point x="368" y="-20" type="curve" smooth="yes"/>
      <point x="490" y="-20"/>
      <point x="594" y="30"/>
      <point x="674" y="124" type="curve"/>
      <point x="702" y="-16"/>
      <point x="788" y="-20"/>
      <point x="902" y="-20" type="curve"/>
      <point x="952" y="124" type="line"/>
      <point x="882" y="124"/>
      <point x="858" y="144"/>
      <point x="858" y="208" type="curve" smooth="yes"/>
      <point x="858" y="226"/>
      <point x="860" y="254"/>
      <point x="866" y="286" type="curve" smooth="yes"/>
      <point x="984" y="980" type="line"/>
      <point x="824" y="980" type="line"/>
      <point x="786" y="876" type="line"/>
      <point x="734" y="978"/>
      <point x="640" y="1000"/>
      <point x="558" y="1000" type="curve" smooth="yes"/>
      <point x="258" y="1000"/>
      <point x="42" y="688"/>
      <point x="42" y="372" type="curve" smooth="yes"/>
      <point x="42" y="136"/>
      <point x="170" y="-20"/>
    </contour>
    <contour>
      <point x="428" y="140" type="curve" smooth="yes"/>
      <point x="288" y="140"/>
      <point x="230" y="260"/>
      <point x="230" y="410" type="curve" smooth="yes"/>
      <point x="230" y="638"/>
      <point x="362" y="840"/>
      <point x="538" y="840" type="curve" smooth="yes"/>
      <point x="654" y="840"/>
      <point x="742" y="754"/>
      <point x="742" y="554" type="curve" smooth="yes"/>
      <point x="742" y="284"/>
      <point x="580" y="140"/>
    </contour>
  </outline>
</glyph>
<glyph name="b" format="2">
  <advance width="1040"/>
  <unicode hex="0062"/>
  <outline>
    <contour>
      <point x="492" y="-20" type="curve" smooth="yes"/>
      <point x="738" y="-20"/>
      <point x="964" y="196"/>
      <point x="964" y="588" type="curve" smooth="yes"/>
      <point x="964" y="810"/>
      <point x="854" y="1000"/>
      <point x="630" y="1000" type="curve" smooth="yes"/>
      <point x="550" y="1000"/>
      <point x="444" y="976"/>
      <point x="356" y="874" type="curve"/>
      <point x="466" y="1500" type="line"/>
      <point x="284" y="1500" type="line"/>
      <point x="20" y="0" type="line"/>
      <point x="184" y="0" type="line"/>
      <point x="220" y="124" type="line"/>
      <point x="274" y="32"/>
      <point x="366" y="-20"/>
    </contour>
    <contour>
      <point x="482" y="140" type="curve" smooth="yes"/>
      <point x="360" y="140"/>
      <point x="268" y="214"/>
      <point x="268" y="408" type="curve" smooth="yes"/>
      <point x="268" y="676"/>
      <point x="422" y="840"/>
      <point x="580" y="840" type="curve" smooth="yes"/>
      <point x="714" y="840"/>
      <point x="776" y="724"/>
      <point x="776" y="570" type="curve" smooth="yes"/>
      <point x="776" y="326"/>
      <point x="652" y="140"/>
    </contour>
  </outline>
</glyph>
<glyph name="c" format="2">
  <advance width="836"/>
  <unicode hex="0063"/>
  <anchor x="422" y="0" name="bottom"/>
  <anchor x="616" y="980" name="top"/>
  <outline>
    <contour>
      <point x="420" y="-20" type="curve" smooth="yes"/>
      <point x="538" y="-20"/>
      <point x="628" y="12"/>
      <point x="688" y="44" type="curve"/>
      <point x="694" y="198" type="line"/>
      <point x="622" y="160"/>
      <point x="546" y="138"/>
      <point x="478" y="138" type="curve" smooth="yes"/>
      <point x="310" y="138"/>
      <point x="232" y="244"/>
      <point x="232" y="424" type="curve" smooth="yes"/>
      <point x="232" y="654"/>
      <point x="354" y="840"/>
      <point x="598" y="840" type="curve" smooth="yes"/>
      <point x="668" y="840"/>
      <point x="734" y="818"/>
      <point x="794" y="780" type="curve"/>
      <point x="846" y="942" type="line"/>
      <point x="792" y="978"/>
      <point x="698" y="1000"/>
      <point x="598" y="1000" type="curve" smooth="yes"/>
      <point x="234" y="1000"/>
      <point x="46" y="710"/>
      <point x="46" y="398" type="curve" smooth="yes"/>
      <point x="46" y="166"/>
      <point x="150" y="-20"/>
    </contour>
  </outline>
</glyph>
<glyph name="d" format="2">
  <advance width="1040"/>
  <unicode hex="0064"/>
  <anchor x="520" y="0" name="bottom"/>
  <anchor x="866" y="1232" name="center"/>
  <anchor x="520" y="980" name="top"/>
  <anchor x="1158" y="1500" name="topright"/>
  <outline>
    <contour>
      <point x="368" y="-20" type="curve" smooth="yes"/>
      <point x="472" y="-20"/>
      <point x="574" y="30"/>
      <point x="656" y="124" type="curve"/>
      <point x="648" y="0" type="line"/>
      <point x="814" y="0" type="line"/>
      <point x="1078" y="1500" type="line"/>
      <point x="896" y="1500" type="line"/>
      <point x="772" y="792" type="line"/>
      <point x="814" y="806" type="line"/>
      <point x="754" y="938"/>
      <point x="676" y="1000"/>
      <point x="538" y="1000" type="curve" smooth="yes"/>
      <point x="250" y="1000"/>
      <point x="42" y="698"/>
      <point x="42" y="394" type="curve" smooth="yes"/>
      <point x="42" y="158"/>
      <point x="172" y="-20"/>
    </contour>
    <contour>
      <point x="428" y="140" type="curve" smooth="yes"/>
      <point x="288" y="140"/>
      <point x="230" y="260"/>
      <point x="230" y="410" type="curve" smooth="yes"/>
      <point x="230" y="638"/>
      <point x="362" y="840"/>
      <point x="538" y="840" type="curve" smooth="yes"/>
      <point x="654" y="840"/>
      <point x="742" y="754"/>
      <point x="742" y="554" type="curve" smooth="yes"/>
      <point x="742" y="284"/>
      <point x="580" y="140"/>
    </contour>
  </outline>
</glyph>
<glyph name="e" format="2">
  <advance width="916"/>
  <unicode hex="0065"/>
  <anchor x="466" y="0" name="bottom"/>
  <anchor x="696" y="56" name="ogonek"/>
  <anchor x="594" y="980" name="top"/>
  <outline>
    <contour>
      <point x="442" y="-20" type="curve" smooth="yes"/>
      <point x="570" y="-20"/>
      <point x="676" y="12"/>
      <point x="752" y="56" type="curve"/>
      <point x="760" y="198" type="line"/>
      <point x="674" y="158"/>
      <point x="568" y="140"/>
      <point x="490" y="140" type="curve" smooth="yes"/>
      <point x="348" y="140"/>
      <point x="236" y="200"/>
      <point x="236" y="436" type="curve"/>
      <point x="264" y="430"/>
      <point x="340" y="420"/>
      <point x="412" y="420" type="curve" smooth="yes"/>
      <point x="764" y="420"/>
      <point x="868" y="602"/>
      <point x="868" y="750" type="curve" smooth="yes"/>
      <point x="868" y="898"/>
      <point x="766" y="1000"/>
      <point x="576" y="1000" type="curve" smooth="yes"/>
      <point x="256" y="1000"/>
      <point x="42" y="714"/>
      <point x="42" y="404" type="curve" smooth="yes"/>
      <point x="42" y="166"/>
      <point x="170" y="-20"/>
    </contour>
    <contour>
      <point x="396" y="542" type="curve" smooth="yes"/>
      <point x="330" y="542"/>
      <point x="286" y="552"/>
      <point x="256" y="562" type="curve"/>
      <point x="324" y="756"/>
      <point x="434" y="840"/>
      <point x="558" y="840" type="curve" smooth="yes"/>
      <point x="636" y="840"/>
      <point x="702" y="808"/>
      <point x="702" y="728" type="curve" smooth="yes"/>
      <point x="702" y="648"/>
      <point x="636" y="542"/>
    </contour>
  </outline>
</glyph>
<glyph name="g" format="2">
  <advance width="918"/>
  <unicode hex="0067"/>
  <anchor x="296" y="-484" name="bottom"/>
  <anchor x="498" y="980" name="top"/>
  <outline>
    <contour>
      <point x="288" y="-500" type="curve" smooth="yes"/>
      <point x="592" y="-500"/>
      <point x="780" y="-328"/>
      <point x="780" y="-162" type="curve" smooth="yes"/>
      <point x="780" y="6"/>
      <point x="586" y="54"/>
      <point x="464" y="80" type="curve" smooth="yes"/>
      <point x="292" y="116"/>
      <point x="224" y="132"/>
      <point x="224" y="178" type="curve" smooth="yes"/>
      <point x="224" y="204"/>
      <point x="244" y="226"/>
      <point x="270" y="244" type="curve"/>
      <point x="304" y="232"/>
      <point x="344" y="226"/>
      <point x="386" y="226" type="curve" smooth="yes"/>
      <point x="648" y="226"/>
      <point x="818" y="460"/>
      <point x="818" y="674" type="curve" smooth="yes"/>
      <point x="818" y="726"/>
      <point x="808" y="792"/>
      <point x="780" y="850" type="curve"/>
      <point x="814" y="860"/>
      <point x="858" y="864"/>
      <point x="870" y="864" type="curve" smooth="yes"/>
      <point x="924" y="864" type="line"/>
      <point x="962" y="984" type="line"/>
      <point x="934" y="984" type="line" smooth="yes"/>
      <point x="848" y="984"/>
      <point x="772" y="960"/>
      <point x="718" y="928" type="curve"/>
      <point x="660" y="978"/>
      <point x="594" y="1000"/>
      <point x="510" y="1000" type="curve" smooth="yes"/>
      <point x="240" y="1000"/>
      <point x="74" y="776"/>
      <point x="74" y="548" type="curve" smooth="yes"/>
      <point x="74" y="462"/>
      <point x="98" y="364"/>
      <point x="172" y="286" type="curve"/>
      <point x="80" y="238"/>
      <point x="46" y="164"/>
      <point x="46" y="124" type="curve" smooth="yes"/>
      <point x="46" y="98"/>
      <point x="62" y="48"/>
      <point x="112" y="16" type="curve"/>
      <point x="-46" y="-50"/>
      <point x="-84" y="-176"/>
      <point x="-84" y="-246" type="curve" smooth="yes"/>
      <point x="-84" y="-356"/>
      <point x="10" y="-500"/>
    </contour>
    <contour>
      <point x="312" y="-360" type="curve" smooth="yes"/>
      <point x="162" y="-360"/>
      <point x="82" y="-298"/>
      <point x="82" y="-220" type="curve" smooth="yes"/>
      <point x="82" y="-142"/>
      <point x="162" y="-58"/>
      <point x="250" y="-28" type="curve"/>
      <point x="366" y="-66"/>
      <point x="602" y="-70"/>
      <point x="602" y="-190" type="curve" smooth="yes"/>
      <point x="602" y="-272"/>
      <point x="490" y="-360"/>
    </contour>
    <contour>
      <point x="406" y="364" type="curve" smooth="yes"/>
      <point x="304" y="364"/>
      <point x="244" y="434"/>
      <point x="244" y="560" type="curve" smooth="yes"/>
      <point x="244" y="716"/>
      <point x="336" y="856"/>
      <point x="486" y="856" type="curve" smooth="yes"/>
      <point x="588" y="856"/>
      <point x="648" y="792"/>
      <point x="648" y="668" type="curve" smooth="yes"/>
      <point x="648" y="514"/>
      <point x="554" y="364"/>
    </contour>
  </outline>
</glyph>
<glyph name="h" format="2">
  <advance width="1012"/>
  <unicode hex="0068"/>
  <anchor x="408" y="0" name="bottom"/>
  <anchor x="376" y="1500" name="top"/>
  <outline>
    <contour>
      <point x="20" y="0" type="line"/>
      <point x="202" y="0" type="line"/>
      <point x="328" y="712" type="line"/>
      <point x="392" y="788"/>
      <point x="464" y="840"/>
      <point x="562" y="840" type="curve" smooth="yes"/>
      <point x="662" y="840"/>
      <point x="720" y="776"/>
      <point x="720" y="672" type="curve" smooth="yes"/>
      <point x="720" y="626"/>
      <point x="712" y="572"/>
      <point x="698" y="490" type="curve" smooth="yes"/>
      <point x="614" y="0" type="line"/>
      <point x="796" y="0" type="line"/>
      <point x="882" y="494" type="line" smooth="yes"/>
      <point x="898" y="586"/>
      <point x="904" y="654"/>
      <point x="904" y="696" type="curve" smooth="yes"/>
      <point x="904" y="862"/>
      <point x="820" y="1000"/>
      <point x="636" y="1000" type="curve" smooth="yes"/>
      <point x="526" y="1000"/>
      <point x="440" y="966"/>
      <point x="356" y="874" type="curve"/>
      <point x="468" y="1500" type="line"/>
      <point x="284" y="1500" type="line"/>
    </contour>
  </outline>
</glyph>
<glyph name="i" format="2">
  <advance width="428"/>
  <unicode hex="0069"/>
  <anchor x="110" y="0" name="bottom"/>
  <outline>
    <contour>
      <point x="20" y="0" type="line"/>
      <point x="202" y="0" type="line"/>
      <point x="374" y="980" type="line"/>
      <point x="192" y="980" type="line"/>
    </contour>
    <contour>
      <point x="232" y="1200" type="line"/>
      <point x="414" y="1200" type="line"/>
      <point x="448" y="1400" type="line"/>
      <point x="266" y="1400" type="line"/>
    </contour>
  </outline>
</glyph>
<glyph name="k" format="2">
  <advance width="856"/>
  <unicode hex="006B"/>
  <anchor x="362" y="0" name="bottom"/>
  <anchor x="376" y="1500" name="top"/>
  <outline>
    <contour>
      <point x="20" y="0" type="line"/>
      <point x="202" y="0" type="line"/>
      <point x="290" y="498" type="line"/>
      <point x="520" y="0" type="line"/>
      <point x="734" y="0" type="line"/>
      <point x="470" y="528" type="line"/>
      <point x="902" y="980" type="line"/>
      <point x="686" y="980" type="line"/>
      <point x="296" y="538" type="line"/>
      <point x="466" y="1500" type="line"/>
      <point x="284" y="1500" type="line"/>
    </contour>
  </outline>
</glyph>
<glyph name="l" format="2">
  <advance width="468"/>
  <unicode hex="006C"/>
  <anchor x="234" y="0" name="bottom"/>
  <anchor x="532" y="830" name="center"/>
  <anchor x="370" y="1500" name="top"/>
  <anchor x="540" y="1500" name="topright"/>
  <outline>
    <contour>
      <point x="240" y="-20" type="curve" smooth="yes"/>
      <point x="302" y="-20" type="line"/>
      <point x="350" y="124" type="line"/>
      <point x="268" y="124"/>
      <point x="238" y="138"/>
      <point x="238" y="204" type="curve" smooth="yes"/>
      <point x="238" y="216"/>
      <point x="240" y="232"/>
      <point x="248" y="282" type="curve" smooth="yes"/>
      <point x="460" y="1500" type="line"/>
      <point x="278" y="1500" type="line"/>
      <point x="68" y="300" type="line" smooth="yes"/>
      <point x="56" y="226"/>
      <point x="48" y="182"/>
      <point x="48" y="152" type="curve" smooth="yes"/>
      <point x="48" y="58"/>
      <point x="98" y="-20"/>
    </contour>
  </outline>
</glyph>
<glyph name="m" format="2">
  <advance width="1602"/>
  <unicode hex="006D"/>
  <anchor x="704" y="0" name="bottom"/>
  <anchor x="902" y="980" name="top"/>
  <outline>
    <contour>
      <point x="20" y="0" type="line"/>
      <point x="202" y="0" type="line"/>
      <point x="328" y="712" type="line"/>
      <point x="386" y="800"/>
      <point x="468" y="840"/>
      <point x="566" y="840" type="curve" smooth="yes"/>
      <point x="660" y="840"/>
      <point x="720" y="802"/>
      <point x="720" y="668" type="curve" smooth="yes"/>
      <point x="720" y="632"/>
      <point x="716" y="590"/>
      <point x="612" y="0" type="curve"/>
      <point x="794" y="0" type="line"/>
      <point x="894" y="568" type="line" smooth="yes"/>
      <point x="914" y="682"/>
      <point x="972" y="840"/>
      <point x="1160" y="840" type="curve" smooth="yes"/>
      <point x="1268" y="840"/>
      <point x="1316" y="788"/>
      <point x="1316" y="680" type="curve" smooth="yes"/>
      <point x="1316" y="648"/>
      <point x="1312" y="614"/>
      <point x="1204" y="0" type="curve"/>
      <point x="1386" y="0" type="line"/>
      <point x="1496" y="628"/>
      <point x="1502" y="674"/>
      <point x="1502" y="720" type="curve" smooth="yes"/>
      <point x="1502" y="908"/>
      <point x="1404" y="1000"/>
      <point x="1218" y="1000" type="curve" smooth="yes"/>
      <point x="1052" y="1000"/>
      <point x="938" y="926"/>
      <point x="868" y="804" type="curve"/>
      <point x="822" y="968"/>
      <point x="714" y="1000"/>
      <point x="608" y="1000" type="curve" smooth="yes"/>
      <point x="516" y="1000"/>
      <point x="438" y="976"/>
      <point x="336" y="876" type="curve"/>
      <point x="336" y="980" type="line"/>
      <point x="192" y="980" type="line"/>
    </contour>
  </outline>
</glyph>
<glyph name="q" format="2">
  <advance width="1042"/>
  <unicode hex="0071"/>
  <outline>
    <contour>
      <point x="548" y="-484" type="line"/>
      <point x="730" y="-484" type="line"/>
      <point x="988" y="980" type="line"/>
      <point x="840" y="980" type="line"/>
      <point x="798" y="840" type="line"/>
      <point x="744" y="942"/>
      <point x="682" y="1000"/>
      <point x="552" y="1000" type="curve" smooth="yes"/>
      <point x="252" y="1000"/>
      <point x="42" y="696"/>
      <point x="42" y="378" type="curve" smooth="yes"/>
      <point x="42" y="152"/>
      <point x="148" y="-20"/>
      <point x="374" y="-20" type="curve"/>
      <point x="458" y="-20"/>
      <point x="574" y="28"/>
      <point x="656" y="124" type="curve"/>
    </contour>
    <contour>
      <point x="426" y="140" type="curve" smooth="yes"/>
      <point x="290" y="140"/>
      <point x="232" y="256"/>
      <point x="232" y="410" type="curve" smooth="yes"/>
      <point x="232" y="638"/>
      <point x="360" y="840"/>
      <point x="542" y="840" type="curve"/>
      <point x="654" y="840"/>
      <point x="740" y="760"/>
      <point x="740" y="562" type="curve" smooth="yes"/>
      <point x="740" y="294"/>
      <point x="582" y="140"/>
    </contour>
  </outline>
</glyph>
<glyph name="r" format="2">
  <advance width="614"/>
  <unicode hex="0072"/>
  <anchor x="114" y="0" name="bottom"/>
  <anchor x="428" y="980" name="top"/>
  <outline>
    <contour>
      <point x="20" y="0" type="line"/>
      <point x="208" y="0" type="line"/>
      <point x="330" y="692" type="line"/>
      <point x="370" y="754"/>
      <point x="468" y="818"/>
      <point x="542" y="818" type="curve" smooth="yes"/>
      <point x="608" y="818" type="line"/>
      <point x="680" y="1016" type="line"/>
      <point x="652" y="1016" type="line" smooth="yes"/>
      <point x="546" y="1016"/>
      <point x="448" y="952"/>
      <point x="336" y="818" type="curve"/>
      <point x="350" y="980" type="line"/>
      <point x="192" y="980" type="line"/>
    </contour>
  </outline>
</glyph>
<glyph name="t" format="2">
  <advance width="606"/>
  <unicode hex="0074"/>
  <anchor x="304" y="0" name="bottom"/>
  <anchor x="304" y="490" name="center"/>
  <anchor x="374" y="1222" name="top"/>
  <anchor x="596" y="1416" name="topright"/>
  <outline>
    <contour>
      <point x="296" y="-20" type="curve" smooth="yes"/>
      <point x="446" y="-20" type="line"/>
      <point x="486" y="124" type="line"/>
      <point x="438" y="124" type="line" smooth="yes"/>
      <point x="324" y="124"/>
      <point x="288" y="130"/>
      <point x="288" y="202" type="curve" smooth="yes"/>
      <point x="288" y="230"/>
      <point x="294" y="270"/>
      <point x="394" y="840" type="curve"/>
      <point x="616" y="840" type="line"/>
      <point x="642" y="980" type="line"/>
      <point x="420" y="980" type="line"/>
      <point x="466" y="1240" type="line"/>
      <point x="282" y="1222" type="line"/>
      <point x="238" y="980" type="line"/>
      <point x="110" y="980" type="line"/>
      <point x="70" y="840" type="line"/>
      <point x="214" y="840" type="line"/>
      <point x="102" y="208"/>
      <point x="100" y="182"/>
      <point x="100" y="162" type="curve" smooth="yes"/>
      <point x="100" y="66"/>
      <point x="152" y="-20"/>
    </contour>
  </outline>
</glyph>
<glyph name="u" format="2">
  <advance width="988"/>
  <unicode hex="0075"/>
  <anchor x="342" y="0" name="bottom"/>
  <anchor x="890" y="20" name="ogonek"/>
  <anchor x="558" y="980" name="top"/>
  <anchor x="826" y="980" name="topright"/>
  <outline>
    <contour>
      <point x="340" y="-20" type="curve" smooth="yes"/>
      <point x="454" y="-20"/>
      <point x="536" y="32"/>
      <point x="602" y="108" type="curve"/>
      <point x="596" y="0" type="line"/>
      <point x="762" y="0" type="line"/>
      <point x="934" y="980" type="line"/>
      <point x="752" y="980" type="line"/>
      <point x="624" y="252" type="line"/>
      <point x="568" y="174"/>
      <point x="492" y="140"/>
      <point x="414" y="140" type="curve" smooth="yes"/>
      <point x="306" y="140"/>
      <point x="258" y="204"/>
      <point x="258" y="324" type="curve" smooth="yes"/>
      <point x="258" y="344"/>
      <point x="260" y="374"/>
      <point x="270" y="432" type="curve" smooth="yes"/>
      <point x="364" y="980" type="line"/>
      <point x="182" y="980" type="line"/>
      <point x="84" y="404" type="line" smooth="yes"/>
      <point x="72" y="338"/>
      <point x="68" y="292"/>
      <point x="68" y="268" type="curve" smooth="yes"/>
      <point x="68" y="84"/>
      <point x="166" y="-20"/>
    </contour>
  </outline>
</glyph>
<glyph name="w" format="2">
  <advance width="1324"/>
  <unicode hex="0077"/>
  <anchor x="558" y="0" name="bottom"/>
  <anchor x="726" y="980" name="top"/>
  <outline>
    <contour>
      <point x="190" y="0" type="line"/>
      <point x="372" y="0" type="line"/>
      <point x="686" y="724" type="line"/>
      <point x="742" y="0" type="line"/>
      <point x="926" y="0" type="line"/>
      <point x="1364" y="980" type="line"/>
      <point x="1164" y="980" type="line"/>
      <point x="862" y="198" type="line"/>
      <point x="812" y="950" type="line"/>
      <point x="638" y="950" type="line"/>
      <point x="324" y="198" type="line"/>
      <point x="298" y="980" type="line"/>
      <point x="98" y="980" type="line"/>
    </contour>
  </outline>
</glyph>
<glyph name="y" format="2">
  <advance width="918"/>
  <unicode hex="0079"/>
  <anchor x="620" y="0" name="bottom"/>
  <anchor x="520" y="980" name="top"/>
  <outline>
    <contour>
      <point x="-26" y="-484" type="line"/>
      <point x="168" y="-484" type="line"/>
      <point x="974" y="980" type="line"/>
      <point x="772" y="980" type="line"/>
      <point x="400" y="252" type="line"/>
      <point x="266" y="980" type="line"/>
      <point x="64" y="980" type="line"/>
      <point x="270" y="44" type="line"/>
    </contour>
  </outline>
</glyph>
<glyph name="braceleft" format="2">
  <advance width="560"/>
  <unicode hex="007B"/>
  <outline>
    <contour>
      <point x="362" y="-272" type="curve" smooth="yes"/>
      <point x="436" y="-272" type="line"/>
      <point x="460" y="-134" type="line"/>
      <point x="406" y="-134" type="line" smooth="yes"/>
      <point x="294" y="-134"/>
      <point x="230" y="-92"/>
      <point x="232" y="24" type="curve" smooth="yes"/>
      <point x="232" y="130"/>
      <point x="314" y="366"/>
      <point x="314" y="454" type="curve" smooth="yes"/>
      <point x="314" y="552"/>
      <point x="254" y="596"/>
      <point x="164" y="622" type="curve"/>
      <point x="160" y="606" type="line"/>
      <point x="282" y="636"/>
      <point x="366" y="692"/>
      <point x="390" y="828" type="curve" smooth="yes"/>
      <point x="404" y="920"/>
      <point x="408" y="1046"/>
      <point x="422" y="1140" type="curve" smooth="yes"/>
      <point x="450" y="1304"/>
      <point x="534" y="1362"/>
      <point x="670" y="1362" type="curve" smooth="yes"/>
      <point x="724" y="1362" type="line"/>
      <point x="748" y="1500" type="line"/>
      <point x="674" y="1500" type="line" smooth="yes"/>
      <point x="432" y="1500"/>
      <point x="310" y="1376"/>
      <point x="280" y="1200" type="curve" smooth="yes"/>
      <point x="266" y="1110"/>
      <point x="262" y="986"/>
      <point x="248" y="888" type="curve" smooth="yes"/>
      <point x="222" y="744"/>
      <point x="172" y="674"/>
      <point x="50" y="674" type="curve"/>
      <point x="30" y="554" type="line"/>
      <point x="124" y="554"/>
      <point x="162" y="512"/>
      <point x="162" y="426" type="curve" smooth="yes"/>
      <point x="162" y="312"/>
      <point x="74" y="72"/>
      <point x="74" y="-36" type="curve" smooth="yes"/>
      <point x="74" y="-178"/>
      <point x="158" y="-272"/>
    </contour>
  </outline>
</glyph>
<glyph name="bar" format="2">
  <advance width="430"/>
  <unicode hex="007C"/>
  <outline>
    <contour>
      <point x="-50" y="-418" type="line"/>
      <point x="134" y="-418" type="line"/>
      <point x="474" y="1500" type="line"/>
      <point x="290" y="1500" type="line"/>
    </contour>
  </outline>
</glyph>
<glyph name="asciitilde" format="2">
  <advance width="860"/>
  <unicode hex="007E"/>
  <outline>
    <contour>
      <point x="590" y="588" type="curve" smooth="yes"/>
      <point x="720" y="588"/>
      <point x="802" y="670"/>
      <point x="836" y="844" type="curve"/>
      <point x="690" y="844" type="line"/>
      <point x="680" y="786"/>
      <point x="644" y="752"/>
      <point x="594" y="752" type="curve" smooth="yes"/>
      <point x="504" y="752"/>
      <point x="450" y="846"/>
      <point x="320" y="846" type="curve" smooth="yes"/>
      <point x="194" y="846"/>
      <point x="108" y="758"/>
      <point x="72" y="596" type="curve"/>
      <point x="218" y="596" type="line"/>
      <point x="228" y="650"/>
      <point x="266" y="682"/>
      <point x="316" y="682" type="curve" smooth="yes"/>
      <point x="414" y="682"/>
      <point x="464" y="588"/>
    </contour>
  </outline>
</glyph>
<glyph name="cent" format="2">
  <advance width="888"/>
  <unicode hex="00A2"/>
  <anchor x="424" y="0" name="bottom"/>
  <anchor x="618" y="980" name="top"/>
  <outline>
    <contour>
      <point x="488" y="68" type="line"/>
      <point x="372" y="68" type="line"/>
      <point x="290" y="-288" type="line"/>
      <point x="446" y="-288" type="line"/>
    </contour>
    <contour>
      <point x="522" y="918" type="line"/>
      <point x="638" y="918" type="line"/>
      <point x="718" y="1260" type="line"/>
      <point x="562" y="1260" type="line"/>
    </contour>
    <component base="c" xOffset="2"/>
  </outline>
</glyph>
<glyph name="sterling" format="2">
  <advance width="1048"/>
  <unicode hex="00A3"/>
  <outline>
    <contour>
      <point x="168" y="98" type="line"/>
      <point x="288" y="268"/>
      <point x="346" y="392"/>
      <point x="420" y="652" type="curve" smooth="yes"/>
      <point x="522" y="1016" type="line" smooth="yes"/>
      <point x="562" y="1162"/>
      <point x="644" y="1256"/>
      <point x="774" y="1256" type="curve" smooth="yes"/>
      <point x="852" y="1256"/>
      <point x="912" y="1218"/>
      <point x="972" y="1168" type="curve"/>
      <point x="1028" y="1370" type="line"/>
      <point x="956" y="1408"/>
      <point x="882" y="1428"/>
      <point x="790" y="1428" type="curve" smooth="yes"/>
      <point x="552" y="1428"/>
      <point x="410" y="1292"/>
      <point x="340" y="1040" type="curve" smooth="yes"/>
      <point x="226" y="636" type="line" smooth="yes"/>
      <point x="152" y="376"/>
      <point x="74" y="220"/>
      <point x="-60" y="0" type="curve"/>
      <point x="798" y="0" type="line"/>
      <point x="830" y="180" type="line"/>
      <point x="138" y="180" type="line"/>
    </contour>
    <contour>
      <point x="72" y="632" type="line"/>
      <point x="784" y="632" type="line"/>
      <point x="810" y="780" type="line"/>
      <point x="98" y="780" type="line"/>
    </contour>
  </outline>
</glyph>
<glyph name="currency" format="2">
  <advance width="1256"/>
  <unicode hex="00A4"/>
  <outline>
    <contour>
      <point x="516" y="188" type="curve" smooth="yes"/>
      <point x="838" y="188"/>
      <point x="1106" y="464"/>
      <point x="1106" y="798" type="curve" smooth="yes"/>
      <point x="1106" y="1032"/>
      <point x="950" y="1204"/>
      <point x="696" y="1204" type="curve" smooth="yes"/>
      <point x="376" y="1204"/>
      <point x="106" y="926"/>
      <point x="106" y="594" type="curve" smooth="yes"/>
      <point x="106" y="358"/>
      <point x="260" y="188"/>
    </contour>
    <contour>
      <point x="14" y="126" type="line"/>
      <point x="292" y="360" type="line"/>
      <point x="240" y="420" type="line"/>
      <point x="-36" y="186" type="line"/>
    </contour>
    <contour>
      <point x="1006" y="122" type="line"/>
      <point x="1068" y="174" type="line"/>
      <point x="868" y="418" type="line"/>
      <point x="806" y="366" type="line"/>
    </contour>
    <contour>
      <point x="546" y="352" type="curve" smooth="yes"/>
      <point x="372" y="352"/>
      <point x="288" y="462"/>
      <point x="286" y="614" type="curve" smooth="yes"/>
      <point x="286" y="844"/>
      <point x="438" y="1040"/>
      <point x="666" y="1040" type="curve" smooth="yes"/>
      <point x="842" y="1040"/>
      <point x="926" y="928"/>
      <point x="926" y="774" type="curve" smooth="yes"/>
      <point x="926" y="518"/>
      <point x="768" y="352"/>
    </contour>
    <contour>
      <point x="336" y="984" type="line"/>
      <point x="402" y="1032" type="line"/>
      <point x="206" y="1270" type="line"/>
      <point x="144" y="1218" type="line"/>
    </contour>
    <contour>
      <point x="972" y="972" type="line"/>
      <point x="1248" y="1206" type="line"/>
      <point x="1198" y="1266" type="line"/>
      <point x="920" y="1032" type="line"/>
    </contour>
  </outline>
</glyph>
<glyph name="yen" format="2">
  <advance width="1078"/>
  <unicode hex="00A5"/>
  <outline>
    <contour>
      <point x="70" y="574" type="line"/>
      <point x="826" y="574" type="line"/>
      <point x="852" y="722" type="line"/>
      <point x="96" y="722" type="line"/>
    </contour>
    <contour>
      <point x="20" y="294" type="line"/>
      <point x="776" y="294" type="line"/>
      <point x="802" y="442" type="line"/>
      <point x="46" y="442" type="line"/>
    </contour>
    <component base="Y" xOffset="-90"/>
  </outline>
</glyph>
<glyph name="brokenbar" format="2">
  <advance width="421"/>
  <unicode hex="00A6"/>
  <outline>
    <contour>
      <point x="145" y="684" type="line"/>
      <point x="321" y="684" type="line"/>
      <point x="465" y="1500" type="line"/>
      <point x="289" y="1500" type="line"/>
    </contour>
    <contour>
      <point x="-51" y="-420" type="line"/>
      <point x="125" y="-420" type="line"/>
      <point x="269" y="396" type="line"/>
      <point x="93" y="396" type="line"/>
    </contour>
  </outline>
</glyph>
<glyph name="section" format="2">
  <advance width="900"/>
  <unicode hex="00A7"/>
  <outline>
    <contour>
      <point x="492" y="904" type="curve"/>
      <point x="380" y="968" type="line"/>
      <point x="192" y="918"/>
      <point x="66" y="798"/>
      <point x="66" y="642" type="curve" smooth="yes"/>
      <point x="66" y="302"/>
      <point x="528" y="378"/>
      <point x="528" y="122" type="curve" smooth="yes"/>
      <point x="528" y="22"/>
      <point x="444" y="-46"/>
      <point x="306" y="-46" type="curve" smooth="yes"/>
      <point x="210" y="-46"/>
      <point x="124" y="-12"/>
      <point x="48" y="44" type="curve"/>
      <point x="0" y="-82" type="line"/>
      <point x="70" y="-134"/>
      <point x="168" y="-168"/>
      <point x="282" y="-168" type="curve" smooth="yes"/>
      <point x="482" y="-168"/>
      <point x="662" y="-48"/>
      <point x="662" y="144" type="curve" smooth="yes"/>
      <point x="662" y="508"/>
      <point x="210" y="428"/>
      <point x="210" y="684" type="curve" smooth="yes"/>
      <point x="210" y="812"/>
      <point x="326" y="876"/>
    </contour>
    <contour>
      <point x="252" y="864"/>
      <point x="688" y="918"/>
      <point x="688" y="646" type="curve" smooth="yes"/>
      <point x="688" y="546"/>
      <point x="576" y="440"/>
      <point x="436" y="424" type="curve"/>
      <point x="516" y="352" type="line"/>
      <point x="714" y="426"/>
      <point x="844" y="514"/>
      <point x="844" y="670" type="curve" smooth="yes"/>
      <point x="844" y="1000"/>
      <point x="404" y="998"/>
      <point x="404" y="1206" type="curve" smooth="yes"/>
      <point x="404" y="1304"/>
      <point x="498" y="1380"/>
      <point x="626" y="1380" type="curve" smooth="yes"/>
      <point x="724" y="1380"/>
      <point x="806" y="1340"/>
      <point x="872" y="1294" type="curve"/>
      <point x="920" y="1420" type="line"/>
      <point x="838" y="1466"/>
      <point x="752" y="1500"/>
      <point x="626" y="1500" type="curve" smooth="yes"/>
      <point x="410" y="1500"/>
      <point x="252" y="1368"/>
      <point x="252" y="1184" type="curve" smooth="yes"/>
    </contour>
  </outline>
</glyph>
<glyph name="copyright" format="2">
  <advance width="1334"/>
  <unicode hex="00A9"/>
  <outline>
    <contour>
      <point x="578" y="74" type="curve"/>
      <point x="954" y="74"/>
      <point x="1266" y="400"/>
      <point x="1266" y="860" type="curve" smooth="yes"/>
      <point x="1266" y="1180"/>
      <point x="1088" y="1386"/>
      <point x="810" y="1386" type="curve" smooth="yes"/>
      <point x="436" y="1386"/>
      <point x="120" y="1062"/>
      <point x="120" y="602" type="curve" smooth="yes"/>
      <point x="120" y="282"/>
      <point x="300" y="74"/>
    </contour>
    <contour>
      <point x="650" y="394" type="curve"/>
      <point x="708" y="394"/>
      <point x="776" y="408"/>
      <point x="826" y="434" type="curve"/>
      <point x="834" y="552" type="line"/>
      <point x="778" y="528"/>
      <point x="726" y="512"/>
      <point x="672" y="512" type="curve" smooth="yes"/>
      <point x="588" y="512"/>
      <point x="550" y="582"/>
      <point x="550" y="674" type="curve" smooth="yes"/>
      <point x="550" y="814"/>
      <point x="622" y="940"/>
      <point x="746" y="940" type="curve" smooth="yes"/>
      <point x="802" y="940"/>
      <point x="848" y="924"/>
      <point x="894" y="902" type="curve"/>
      <point x="930" y="1022" type="line"/>
      <point x="888" y="1044"/>
      <point x="826" y="1060"/>
      <point x="768" y="1060" type="curve" smooth="yes"/>
      <point x="574" y="1060"/>
      <point x="414" y="896"/>
      <point x="414" y="660" type="curve" smooth="yes"/>
      <point x="414" y="498"/>
      <point x="506" y="394"/>
    </contour>
    <contour>
      <point x="594" y="162" type="curve" smooth="yes"/>
      <point x="342" y="162"/>
      <point x="228" y="350"/>
      <point x="228" y="600" type="curve" smooth="yes"/>
      <point x="228" y="966"/>
      <point x="428" y="1296"/>
      <point x="794" y="1296" type="curve"/>
      <point x="1044" y="1296"/>
      <point x="1158" y="1108"/>
      <point x="1158" y="858" type="curve" smooth="yes"/>
      <point x="1158" y="494"/>
      <point x="958" y="162"/>
    </contour>
  </outline>
</glyph>
<glyph name="ordfeminine" format="2">
  <advance width="614"/>
  <unicode hex="00AA"/>
  <outline>
    <contour>
      <point x="266" y="868" type="curve" smooth="yes"/>
      <point x="332" y="868"/>
      <point x="402" y="890"/>
      <point x="444" y="930" type="curve"/>
      <point x="450" y="884"/>
      <point x="490" y="868"/>
      <point x="546" y="868" type="curve" smooth="yes"/>
      <point x="598" y="868" type="line"/>
      <point x="634" y="990" type="line"/>
      <point x="628" y="990" type="line" smooth="yes"/>
      <point x="604" y="990"/>
      <point x="592" y="996"/>
      <point x="592" y="1020" type="curve" smooth="yes"/>
      <point x="592" y="1032"/>
      <point x="596" y="1050"/>
      <point x="600" y="1074" type="curve" smooth="yes"/>
      <point x="628" y="1234" type="line" smooth="yes"/>
      <point x="632" y="1256"/>
      <point x="634" y="1274"/>
      <point x="634" y="1292" type="curve" smooth="yes"/>
      <point x="634" y="1404"/>
      <point x="564" y="1450"/>
      <point x="448" y="1450" type="curve" smooth="yes"/>
      <point x="376" y="1450"/>
      <point x="306" y="1438"/>
      <point x="232" y="1408" type="curve"/>
      <point x="222" y="1288" type="line"/>
      <point x="286" y="1312"/>
      <point x="334" y="1324"/>
      <point x="386" y="1324" type="curve" smooth="yes"/>
      <point x="452" y="1324"/>
      <point x="478" y="1302"/>
      <point x="478" y="1260" type="curve" smooth="yes"/>
      <point x="478" y="1254"/>
      <point x="478" y="1248"/>
      <point x="476" y="1240" type="curve"/>
      <point x="318" y="1224"/>
      <point x="120" y="1176"/>
      <point x="120" y="1006" type="curve" smooth="yes"/>
      <point x="118" y="918"/>
      <point x="180" y="868"/>
    </contour>
    <contour>
      <point x="438" y="1014" type="line"/>
      <point x="406" y="990"/>
      <point x="372" y="980"/>
      <point x="342" y="980" type="curve" smooth="yes"/>
      <point x="306" y="980"/>
      <point x="282" y="994"/>
      <point x="282" y="1026" type="curve" smooth="yes"/>
      <point x="282" y="1102"/>
      <point x="378" y="1132"/>
      <point x="460" y="1140" type="curve"/>
    </contour>
  </outline>
</glyph>
<glyph name="logicalnot" format="2">
  <advance width="1006"/>
  <unicode hex="00AC"/>
  <outline>
    <contour>
      <point x="678" y="302" type="line"/>
      <point x="838" y="302" type="line"/>
      <point x="926" y="812" type="line"/>
      <point x="86" y="812" type="line"/>
      <point x="60" y="660" type="line"/>
      <point x="740" y="660" type="line"/>
    </contour>
  </outline>
</glyph>
<glyph name="softhyphen" format="2">
  <advance width="832"/>
  <unicode hex="00AD"/>
  <outline>
    <contour>
      <point x="116" y="536" type="line"/>
      <point x="674" y="536" type="line"/>
      <point x="704" y="708" type="line"/>
      <point x="146" y="708" type="line"/>
    </contour>
  </outline>
</glyph>
<glyph name="degree" format="2">
  <advance width="558"/>
  <unicode hex="00B0"/>
  <outline>
    <contour>
      <point x="274" y="964" type="curve" smooth="yes"/>
      <point x="448" y="964"/>
      <point x="578" y="1106"/>
      <point x="578" y="1292" type="curve" smooth="yes"/>
      <point x="578" y="1416"/>
      <point x="508" y="1510"/>
      <point x="370" y="1510" type="curve" smooth="yes"/>
      <point x="198" y="1510"/>
      <point x="68" y="1364"/>
      <point x="68" y="1180" type="curve" smooth="yes"/>
      <point x="68" y="1056"/>
      <point x="138" y="964"/>
    </contour>
    <contour>
      <point x="288" y="1044" type="curve" smooth="yes"/>
      <point x="206" y="1044"/>
      <point x="164" y="1112"/>
      <point x="164" y="1194" type="curve" smooth="yes"/>
      <point x="164" y="1310"/>
      <point x="244" y="1430"/>
      <point x="356" y="1430" type="curve" smooth="yes"/>
      <point x="442" y="1430"/>
      <point x="480" y="1360"/>
      <point x="480" y="1280" type="curve" smooth="yes"/>
      <point x="480" y="1160"/>
      <point x="402" y="1044"/>
    </contour>
  </outline>
</glyph>
<glyph name="plusminus" format="2">
  <advance width="864"/>
  <unicode hex="00B1"/>
  <outline>
    <contour>
      <point x="282" y="352" type="line"/>
      <point x="422" y="352" type="line"/>
      <point x="470" y="624" type="line"/>
      <point x="738" y="624" type="line"/>
      <point x="764" y="768" type="line"/>
      <point x="496" y="768" type="line"/>
      <point x="544" y="1040" type="line"/>
      <point x="404" y="1040" type="line"/>
      <point x="356" y="768" type="line"/>
      <point x="88" y="768" type="line"/>
      <point x="62" y="624" type="line"/>
      <point x="330" y="624" type="line"/>
    </contour>
    <contour>
      <point x="-28" y="120" type="line"/>
      <point x="648" y="120" type="line"/>
      <point x="674" y="264" type="line"/>
      <point x="-2" y="264" type="line"/>
    </contour>
  </outline>
</glyph>
<glyph name="micro" format="2">
  <advance width="1006"/>
  <unicode hex="00B5"/>
  <outline>
    <contour>
      <point x="-60" y="-484" type="line"/>
      <point x="116" y="-484" type="line"/>
      <point x="208" y="24" type="line"/>
      <point x="246" y="-6"/>
      <point x="298" y="-22"/>
      <point x="366" y="-22" type="curve" smooth="yes"/>
      <point x="468" y="-22"/>
      <point x="548" y="26"/>
      <point x="620" y="108" type="curve"/>
      <point x="642" y="20"/>
      <point x="714" y="-20"/>
      <point x="828" y="-20" type="curve" smooth="yes"/>
      <point x="860" y="-20" type="line"/>
      <point x="918" y="124" type="line"/>
      <point x="894" y="124" type="line" smooth="yes"/>
      <point x="844" y="124"/>
      <point x="824" y="158"/>
      <point x="824" y="220" type="curve" smooth="yes"/>
      <point x="824" y="252"/>
      <point x="830" y="290"/>
      <point x="838" y="340" type="curve" smooth="yes"/>
      <point x="952" y="980" type="line"/>
      <point x="770" y="980" type="line"/>
      <point x="640" y="242" type="line"/>
      <point x="580" y="184"/>
      <point x="518" y="138"/>
      <point x="440" y="138" type="curve" smooth="yes"/>
      <point x="332" y="138"/>
      <point x="276" y="202"/>
      <point x="276" y="324" type="curve" smooth="yes"/>
      <point x="276" y="354"/>
      <point x="280" y="386"/>
      <point x="286" y="424" type="curve" smooth="yes"/>
      <point x="382" y="980" type="line"/>
      <point x="200" y="980" type="line"/>
    </contour>
  </outline>
</glyph>
<glyph name="paragraph" format="2">
  <advance width="1144"/>
  <unicode hex="00B6"/>
  <outline>
    <contour>
      <point x="460" y="0" type="line"/>
      <point x="550" y="0" type="line"/>
      <point x="774" y="1266" type="line"/>
      <point x="932" y="1266" type="line"/>
      <point x="710" y="0" type="line"/>
      <point x="818" y="0" type="line"/>
      <point x="1042" y="1266" type="line"/>
      <point x="1174" y="1266" type="line"/>
      <point x="1198" y="1400" type="line"/>
      <point x="730" y="1400" type="line" smooth="yes"/>
      <point x="336" y="1400"/>
      <point x="126" y="1124"/>
      <point x="126" y="884" type="curve" smooth="yes"/>
      <point x="126" y="694"/>
      <point x="250" y="506"/>
      <point x="546" y="486" type="curve"/>
    </contour>
  </outline>
</glyph>
<glyph name="ordmasculine" format="2">
  <advance width="648"/>
  <unicode hex="00BA"/>
  <outline>
    <contour>
      <point x="366" y="868" type="curve" smooth="yes"/>
      <point x="556" y="868"/>
      <point x="716" y="998"/>
      <point x="716" y="1218" type="curve" smooth="yes"/>
      <point x="716" y="1348"/>
      <point x="632" y="1450"/>
      <point x="470" y="1450" type="curve" smooth="yes"/>
      <point x="276" y="1450"/>
      <point x="120" y="1292"/>
      <point x="120" y="1104" type="curve" smooth="yes"/>
      <point x="122" y="972"/>
      <point x="206" y="868"/>
    </contour>
    <contour>
      <point x="388" y="988" type="curve" smooth="yes"/>
      <point x="314" y="988"/>
      <point x="276" y="1040"/>
      <point x="276" y="1118" type="curve" smooth="yes"/>
      <point x="276" y="1224"/>
      <point x="340" y="1332"/>
      <point x="448" y="1332" type="curve" smooth="yes"/>
      <point x="522" y="1332"/>
      <point x="560" y="1282"/>
      <point x="560" y="1208" type="curve" smooth="yes"/>
      <point x="560" y="1096"/>
      <point x="496" y="988"/>
    </contour>
  </outline>
</glyph>
<glyph name="Eth" format="2">
  <advance width="1348"/>
  <unicode hex="00D0"/>
  <outline>
    <contour>
      <point x="68" y="0" type="line"/>
      <point x="532" y="0" type="line" smooth="yes"/>
      <point x="952" y="0"/>
      <point x="1292" y="326"/>
      <point x="1292" y="842" type="curve" smooth="yes"/>
      <point x="1292" y="1192"/>
      <point x="1090" y="1400"/>
      <point x="778" y="1400" type="curve" smooth="yes"/>
      <point x="314" y="1400" type="line"/>
    </contour>
    <contour>
      <point x="38" y="630" type="line"/>
      <point x="628" y="630" type="line"/>
      <point x="658" y="794" type="line"/>
      <point x="66" y="794" type="line"/>
    </contour>
    <contour>
      <point x="282" y="174" type="line"/>
      <point x="468" y="1228" type="line"/>
      <point x="748" y="1228" type="line" smooth="yes"/>
      <point x="976" y="1228"/>
      <point x="1086" y="1068"/>
      <point x="1086" y="828" type="curve" smooth="yes"/>
      <point x="1086" y="462"/>
      <point x="900" y="174"/>
      <point x="562" y="174" type="curve" smooth="yes"/>
    </contour>
  </outline>
</glyph>
<glyph name="multiply" format="2">
  <advance width="878"/>
  <unicode hex="00D7"/>
  <outline>
    <contour>
      <point x="96" y="212" type="line"/>
      <point x="762" y="792" type="line"/>
      <point x="668" y="904" type="line"/>
      <point x="2" y="324" type="line"/>
    </contour>
    <contour>
      <point x="666" y="310" type="line"/>
      <point x="200" y="902" type="line"/>
      <point x="84" y="806" type="line"/>
      <point x="550" y="214" type="line"/>
    </contour>
  </outline>
</glyph>
<glyph name="Oslash" format="2">
  <advance width="1420"/>
  <unicode hex="00D8"/>
  <anchor x="592" y="0" name="bottom"/>
  <anchor x="678" y="0" name="ogonek"/>
  <anchor x="852" y="1400" name="top"/>
  <anchor x="1004" y="1400" name="topright"/>
  <outline>
    <contour>
      <point x="1252" y="1488" type="line"/>
      <point x="34" y="-88" type="line"/>
      <point x="216" y="-88" type="line"/>
      <point x="1436" y="1488" type="line"/>
    </contour>
    <component base="O"/>
  </outline>
</glyph>
<glyph name="Thorn" format="2">
  <advance width="1034"/>
  <unicode hex="00DE"/>
  <outline>
    <contour>
      <point x="40" y="0" type="line"/>
      <point x="236" y="0" type="line"/>
      <point x="304" y="382" type="line"/>
      <point x="574" y="382" type="line" smooth="yes"/>
      <point x="864" y="382"/>
      <point x="1054" y="538"/>
      <point x="1054" y="798" type="curve" smooth="yes"/>
      <point x="1054" y="982"/>
      <point x="932" y="1090"/>
      <point x="698" y="1090" type="curve" smooth="yes"/>
      <point x="428" y="1090" type="line"/>
      <point x="484" y="1400" type="line"/>
      <point x="288" y="1400" type="line"/>
    </contour>
    <contour>
      <point x="334" y="552" type="line"/>
      <point x="398" y="920" type="line"/>
      <point x="654" y="920" type="line" smooth="yes"/>
      <point x="786" y="920"/>
      <point x="854" y="866"/>
      <point x="854" y="766" type="curve" smooth="yes"/>
      <point x="854" y="630"/>
      <point x="756" y="552"/>
      <point x="590" y="552" type="curve" smooth="yes"/>
    </contour>
  </outline>
</glyph>
<glyph name="germandbls" format="2">
  <advance width="1106"/>
  <unicode hex="00DF"/>
  <outline>
    <contour>
      <point x="564" y="-28" type="curve" smooth="yes"/>
      <point x="808" y="-28"/>
      <point x="1018" y="112"/>
      <point x="1016" y="338" type="curve" smooth="yes"/>
      <point x="1014" y="578"/>
      <point x="740" y="620"/>
      <point x="740" y="750" type="curve" smooth="yes"/>
      <point x="740" y="810"/>
      <point x="790" y="850"/>
      <point x="902" y="958" type="curve" smooth="yes"/>
      <point x="1004" y="1056"/>
      <point x="1058" y="1130"/>
      <point x="1058" y="1270" type="curve" smooth="yes"/>
      <point x="1058" y="1422"/>
      <point x="938" y="1528"/>
      <point x="740" y="1528" type="curve" smooth="yes"/>
      <point x="488" y="1528"/>
      <point x="288" y="1388"/>
      <point x="238" y="1100" type="curve" smooth="yes"/>
      <point x="216" y="980" type="line"/>
      <point x="88" y="980" type="line"/>
      <point x="48" y="840" type="line"/>
      <point x="192" y="840" type="line"/>
      <point x="44" y="0" type="line"/>
      <point x="226" y="0" type="line"/>
      <point x="420" y="1104" type="line" smooth="yes"/>
      <point x="448" y="1268"/>
      <point x="546" y="1368"/>
      <point x="706" y="1368" type="curve" smooth="yes"/>
      <point x="818" y="1368"/>
      <point x="876" y="1314"/>
      <point x="878" y="1230" type="curve" smooth="yes"/>
      <point x="878" y="1136"/>
      <point x="830" y="1082"/>
      <point x="756" y="1012" type="curve" smooth="yes"/>
      <point x="634" y="902"/>
      <point x="550" y="818"/>
      <point x="550" y="722" type="curve" smooth="yes"/>
      <point x="550" y="528"/>
      <point x="830" y="514"/>
      <point x="830" y="316" type="curve" smooth="yes"/>
      <point x="830" y="196"/>
      <point x="716" y="132"/>
      <point x="578" y="132" type="curve" smooth="yes"/>
      <point x="500" y="132"/>
      <point x="432" y="142"/>
      <point x="364" y="160" type="curve"/>
      <point x="340" y="0" type="line"/>
      <point x="414" y="-20"/>
      <point x="482" y="-28"/>
    </contour>
  </outline>
</glyph>
<glyph name="ae" format="2">
  <advance width="1456"/>
  <unicode hex="00E6"/>
  <anchor x="808" y="980" name="top"/>
  <outline>
    <contour>
      <point x="222" y="-28" type="curve" smooth="yes"/>
      <point x="388" y="-28"/>
      <point x="534" y="50"/>
      <point x="628" y="206" type="curve"/>
      <point x="664" y="44"/>
      <point x="776" y="-20"/>
      <point x="950" y="-20" type="curve" smooth="yes"/>
      <point x="1072" y="-20"/>
      <point x="1170" y="16"/>
      <point x="1260" y="60" type="curve"/>
      <point x="1260" y="198" type="line"/>
      <point x="1162" y="152"/>
      <point x="1080" y="124"/>
      <point x="994" y="124" type="curve" smooth="yes"/>
      <point x="860" y="124"/>
      <point x="766" y="214"/>
      <point x="766" y="396" type="curve" smooth="yes"/>
      <point x="766" y="426"/>
      <point x="770" y="456"/>
      <point x="774" y="490" type="curve"/>
      <point x="1368" y="490" type="line"/>
      <point x="1388" y="550"/>
      <point x="1406" y="608"/>
      <point x="1406" y="686" type="curve" smooth="yes"/>
      <point x="1406" y="888"/>
      <point x="1296" y="1000"/>
      <point x="1120" y="1000" type="curve" smooth="yes"/>
      <point x="976" y="1000"/>
      <point x="824" y="938"/>
      <point x="748" y="760" type="curve"/>
      <point x="748" y="962"/>
      <point x="610" y="1000"/>
      <point x="510" y="1000" type="curve" smooth="yes"/>
      <point x="418" y="1000"/>
      <point x="312" y="974"/>
      <point x="200" y="922" type="curve"/>
      <point x="192" y="782" type="line"/>
      <point x="282" y="820"/>
      <point x="352" y="840"/>
      <point x="430" y="840" type="curve" smooth="yes"/>
      <point x="560" y="840"/>
      <point x="588" y="774"/>
      <point x="588" y="614" type="curve"/>
      <point x="362" y="600"/>
      <point x="-16" y="532"/>
      <point x="-16" y="186" type="curve" smooth="yes"/>
      <point x="-16" y="56"/>
      <point x="62" y="-28"/>
    </contour>
    <contour>
      <point x="288" y="124" type="curve" smooth="yes"/>
      <point x="224" y="124"/>
      <point x="176" y="152"/>
      <point x="176" y="224" type="curve" smooth="yes"/>
      <point x="176" y="422"/>
      <point x="416" y="490"/>
      <point x="580" y="490" type="curve"/>
      <point x="576" y="454"/>
      <point x="570" y="422"/>
      <point x="566" y="396" type="curve" smooth="yes"/>
      <point x="530" y="194"/>
      <point x="392" y="124"/>
    </contour>
    <contour>
      <point x="808" y="614" type="line"/>
      <point x="868" y="774"/>
      <point x="966" y="840"/>
      <point x="1084" y="840" type="curve" smooth="yes"/>
      <point x="1184" y="840"/>
      <point x="1236" y="796"/>
      <point x="1238" y="696" type="curve" smooth="yes"/>
      <point x="1238" y="672"/>
      <point x="1236" y="644"/>
      <point x="1230" y="614" type="curve"/>
    </contour>
  </outline>
</glyph>
<glyph name="eth" format="2">
  <advance width="974"/>
  <unicode hex="00F0"/>
  <outline>
    <contour>
      <point x="378" y="-24" type="curve" smooth="yes"/>
      <point x="664" y="-24"/>
      <point x="886" y="246"/>
      <point x="886" y="684" type="curve" smooth="yes"/>
      <point x="886" y="1036"/>
      <point x="720" y="1306"/>
      <point x="434" y="1402" type="curve"/>
      <point x="370" y="1318" type="line"/>
      <point x="578" y="1216"/>
      <point x="700" y="1016"/>
      <point x="700" y="742" type="curve"/>
      <point x="664" y="790"/>
      <point x="596" y="852"/>
      <point x="470" y="852" type="curve" smooth="yes"/>
      <point x="210" y="852"/>
      <point x="20" y="616"/>
      <point x="20" y="340" type="curve" smooth="yes"/>
      <point x="20" y="134"/>
      <point x="146" y="-24"/>
    </contour>
    <contour>
      <point x="394" y="142" type="curve" smooth="yes"/>
      <point x="274" y="142"/>
      <point x="214" y="242"/>
      <point x="214" y="368" type="curve" smooth="yes"/>
      <point x="214" y="540"/>
      <point x="324" y="686"/>
      <point x="484" y="686" type="curve" smooth="yes"/>
      <point x="594" y="686"/>
      <point x="652" y="600"/>
      <point x="652" y="476" type="curve" smooth="yes"/>
      <point x="652" y="288"/>
      <point x="538" y="142"/>
    </contour>
    <contour>
      <point x="358" y="1010" type="line"/>
      <point x="912" y="1246" type="line"/>
      <point x="862" y="1358" type="line"/>
      <point x="306" y="1122" type="line"/>
    </contour>
  </outline>
</glyph>
<glyph name="divide" format="2">
  <advance width="924"/>
  <unicode hex="00F7"/>
  <outline>
    <contour>
      <point x="20" y="486" type="line"/>
      <point x="780" y="486" type="line"/>
      <point x="808" y="638" type="line"/>
      <point x="48" y="638" type="line"/>
    </contour>
    <contour>
      <point x="238" y="118" type="line"/>
      <point x="430" y="118" type="line"/>
      <point x="464" y="318" type="line"/>
      <point x="272" y="318" type="line"/>
    </contour>
    <contour>
      <point x="360" y="806" type="line"/>
      <point x="552" y="806" type="line"/>
      <point x="586" y="1006" type="line"/>
      <point x="394" y="1006" type="line"/>
    </contour>
  </outline>
</glyph>
<glyph name="oslash" format="2">
  <advance width="1028"/>
  <unicode hex="00F8"/>
  <anchor x="410" y="0" name="bottom"/>
  <anchor x="514" y="490" name="center"/>
  <anchor x="484" y="0" name="ogonek"/>
  <anchor x="586" y="980" name="top"/>
  <anchor x="662" y="980" name="topright"/>
  <outline>
    <contour>
      <point x="852" y="1060" type="line"/>
      <point x="-20" y="-80" type="line"/>
      <point x="140" y="-80" type="line"/>
      <point x="1012" y="1060" type="line"/>
    </contour>
    <component base="o"/>
  </outline>
</glyph>
<glyph name="thorn" format="2">
  <advance width="1044"/>
  <unicode hex="00FE"/>
  <outline>
    <contour>
      <point x="-66" y="-484" type="line"/>
      <point x="116" y="-484" type="line"/>
      <point x="222" y="124" type="line"/>
      <point x="276" y="22"/>
      <point x="364" y="-20"/>
      <point x="472" y="-20" type="curve" smooth="yes"/>
      <point x="762" y="-20"/>
      <point x="964" y="276"/>
      <point x="964" y="586" type="curve" smooth="yes"/>
      <point x="964" y="814"/>
      <point x="858" y="1000"/>
      <point x="640" y="1000" type="curve" smooth="yes"/>
      <point x="524" y="1000"/>
      <point x="430" y="958"/>
      <point x="354" y="884" type="curve"/>
      <point x="466" y="1500" type="line"/>
      <point x="284" y="1500" type="line"/>
    </contour>
    <contour>
      <point x="462" y="140" type="curve" smooth="yes"/>
      <point x="352" y="140"/>
      <point x="268" y="216"/>
      <point x="268" y="412" type="curve" smooth="yes"/>
      <point x="268" y="680"/>
      <point x="426" y="840"/>
      <point x="584" y="840" type="curve" smooth="yes"/>
      <point x="714" y="840"/>
      <point x="776" y="730"/>
      <point x="776" y="574" type="curve" smooth="yes"/>
      <point x="776" y="348"/>
      <point x="646" y="140"/>
    </contour>
  </outline>
</glyph>
<glyph name="Hbar" format="2">
  <advance width="1376"/>
  <unicode hex="0126"/>
  <outline>
    <contour>
      <point x="112" y="1002" type="line"/>
      <point x="1408" y="1002" type="line"/>
      <point x="1430" y="1126" type="line"/>
      <point x="132" y="1126" type="line"/>
    </contour>
    <component base="H"/>
  </outline>
</glyph>
<glyph name="idotless" format="2">
  <advance width="428"/>
  <unicode hex="0131"/>
  <anchor x="88" y="0" name="bottom"/>
  <anchor x="146" y="0" name="ogonek"/>
  <anchor x="284" y="980" name="top"/>
  <outline>
    <contour>
      <point x="20" y="0" type="line"/>
      <point x="202" y="0" type="line"/>
      <point x="374" y="980" type="line"/>
      <point x="192" y="980" type="line"/>
    </contour>
  </outline>
</glyph>
<glyph name="IJ" format="2">
  <advance width="1336"/>
  <unicode hex="0132"/>
  <outline>
    <contour>
      <point x="560" y="-28" type="curve" smooth="yes"/>
      <point x="914" y="-28"/>
      <point x="1124" y="210"/>
      <point x="1192" y="594" type="curve" smooth="yes"/>
      <point x="1334" y="1400" type="line"/>
      <point x="1144" y="1400" type="line"/>
      <point x="1018" y="686" type="line" smooth="yes"/>
      <point x="970" y="412"/>
      <point x="872" y="144"/>
      <point x="590" y="144" type="curve" smooth="yes"/>
      <point x="396" y="144"/>
      <point x="334" y="272"/>
      <point x="330" y="442" type="curve"/>
      <point x="130" y="396" type="line"/>
      <point x="134" y="130"/>
      <point x="272" y="-28"/>
    </contour>
    <contour>
      <point x="146" y="582" type="line"/>
      <point x="338" y="582" type="line"/>
      <point x="342" y="616"/>
      <point x="348" y="652"/>
      <point x="354" y="686" type="curve" smooth="yes"/>
      <point x="480" y="1400" type="line"/>
      <point x="290" y="1400" type="line"/>
    </contour>
  </outline>
</glyph>
<glyph name="kgreenlandic" format="2">
  <advance width="908"/>
  <unicode hex="0138"/>
  <outline>
    <contour>
      <point x="20" y="0" type="line"/>
      <point x="202" y="0" type="line"/>
      <point x="290" y="498" type="line"/>
      <point x="580" y="0" type="line"/>
      <point x="788" y="0" type="line"/>
      <point x="474" y="512" type="line"/>
      <point x="968" y="980" type="line"/>
      <point x="746" y="980" type="line"/>
      <point x="296" y="538" type="line"/>
      <point x="374" y="980" type="line"/>
      <point x="192" y="980" type="line"/>
    </contour>
  </outline>
</glyph>
<glyph name="Lslash" format="2">
  <advance width="934"/>
  <unicode hex="0141"/>
  <anchor x="468" y="0" name="bottom"/>
  <anchor x="398" y="1400" name="top"/>
  <anchor x="932" y="1400" name="topright"/>
  <outline>
    <contour>
      <point x="40" y="696" type="line"/>
      <point x="772" y="972" type="line"/>
      <point x="798" y="1118" type="line"/>
      <point x="66" y="842" type="line"/>
    </contour>
    <component base="L"/>
  </outline>
</glyph>
<glyph name="lslash" format="2">
  <advance width="468"/>
  <unicode hex="0142"/>
  <outline>
    <contour>
      <point x="-2" y="704" type="line"/>
      <point x="516" y="898" type="line"/>
      <point x="540" y="1036" type="line"/>
      <point x="22" y="842" type="line"/>
    </contour>
    <component base="l"/>
  </outline>
</glyph>
<glyph name="Eng" format="2">
  <advance width="1348"/>
  <unicode hex="014A"/>
  <outline>
    <contour>
      <point x="1108" y="80" type="curve" smooth="yes"/>
      <point x="1256" y="920" type="line" smooth="yes"/>
      <point x="1264" y="962"/>
      <point x="1268" y="1004"/>
      <point x="1268" y="1042" type="curve" smooth="yes"/>
      <point x="1268" y="1274"/>
      <point x="1144" y="1428"/>
      <point x="902" y="1428" type="curve" smooth="yes"/>
      <point x="742" y="1428"/>
      <point x="598" y="1370"/>
      <point x="464" y="1258" type="curve"/>
      <point x="476" y="1400" type="line"/>
      <point x="316" y="1400" type="line"/>
      <point x="68" y="0" type="line"/>
      <point x="258" y="0" type="line"/>
      <point x="450" y="1090" type="line"/>
      <point x="538" y="1178"/>
      <point x="660" y="1256"/>
      <point x="810" y="1256" type="curve" smooth="yes"/>
      <point x="984" y="1256"/>
      <point x="1072" y="1162"/>
      <point x="1072" y="990" type="curve" smooth="yes"/>
      <point x="1072" y="962"/>
      <point x="1070" y="932"/>
      <point x="1064" y="900" type="curve" smooth="yes"/>
      <point x="918" y="80" type="line" smooth="yes"/>
      <point x="890" y="-106"/>
      <point x="784" y="-198"/>
      <point x="644" y="-198" type="curve" smooth="yes"/>
      <point x="580" y="-198"/>
      <point x="518" y="-184"/>
      <point x="460" y="-158" type="curve"/>
      <point x="406" y="-326" type="line"/>
      <point x="470" y="-354"/>
      <point x="544" y="-370"/>
      <point x="622" y="-370" type="curve" smooth="yes"/>
      <point x="864" y="-370"/>
      <point x="1054" y="-228"/>
    </contour>
  </outline>
</glyph>
<glyph name="eng" format="2">
  <advance width="1130"/>
  <unicode hex="014B"/>
  <outline>
    <contour>
      <point x="876" y="34" type="curve" smooth="yes"/>
      <point x="964" y="540" type="line" smooth="yes"/>
      <point x="972" y="590"/>
      <point x="978" y="638"/>
      <point x="978" y="682" type="curve" smooth="yes"/>
      <point x="978" y="880"/>
      <point x="892" y="1000"/>
      <point x="686" y="1000" type="curve" smooth="yes"/>
      <point x="594" y="1000"/>
      <point x="494" y="976"/>
      <point x="380" y="876" type="curve"/>
      <point x="378" y="980" type="line"/>
      <point x="236" y="980" type="line"/>
      <point x="64" y="0" type="line"/>
      <point x="246" y="0" type="line"/>
      <point x="370" y="712" type="line"/>
      <point x="428" y="800"/>
      <point x="524" y="840"/>
      <point x="622" y="840" type="curve" smooth="yes"/>
      <point x="744" y="840"/>
      <point x="796" y="780"/>
      <point x="796" y="650" type="curve" smooth="yes"/>
      <point x="796" y="618"/>
      <point x="792" y="582"/>
      <point x="784" y="540" type="curve" smooth="yes"/>
      <point x="694" y="28" type="line" smooth="yes"/>
      <point x="668" y="-120"/>
      <point x="580" y="-198"/>
      <point x="462" y="-198" type="curve" smooth="yes"/>
      <point x="412" y="-198"/>
      <point x="364" y="-188"/>
      <point x="316" y="-168" type="curve"/>
      <point x="262" y="-324" type="line"/>
      <point x="320" y="-346"/>
      <point x="386" y="-358"/>
      <point x="454" y="-358" type="curve" smooth="yes"/>
      <point x="662" y="-358"/>
      <point x="828" y="-240"/>
    </contour>
  </outline>
</glyph>
<glyph name="OE" format="2">
  <advance width="1948"/>
  <unicode hex="0152"/>
  <anchor x="1194" y="1400" name="top"/>
  <outline>
    <contour>
      <point x="572" y="-28" type="curve" smooth="yes"/>
      <point x="990" y="-28"/>
      <point x="1260" y="380"/>
      <point x="1260" y="842" type="curve" smooth="yes"/>
      <point x="1260" y="1170"/>
      <point x="1108" y="1428"/>
      <point x="812" y="1428" type="curve" smooth="yes"/>
      <point x="420" y="1428"/>
      <point x="92" y="1046"/>
      <point x="92" y="564" type="curve" smooth="yes"/>
      <point x="92" y="192"/>
      <point x="280" y="-28"/>
    </contour>
    <contour>
      <point x="616" y="144" type="curve" smooth="yes"/>
      <point x="394" y="144"/>
      <point x="302" y="332"/>
      <point x="302" y="576" type="curve" smooth="yes"/>
      <point x="302" y="924"/>
      <point x="494" y="1256"/>
      <point x="798" y="1256" type="curve" smooth="yes"/>
      <point x="1016" y="1256"/>
      <point x="1108" y="1070"/>
      <point x="1108" y="824" type="curve" smooth="yes"/>
      <point x="1108" y="476"/>
      <point x="916" y="144"/>
    </contour>
    <contour>
      <point x="996" y="0" type="line"/>
      <point x="1774" y="0" type="line"/>
      <point x="1804" y="172" type="line"/>
      <point x="1198" y="172" type="line"/>
      <point x="1282" y="646" type="line"/>
      <point x="1746" y="646" type="line"/>
      <point x="1776" y="818" type="line"/>
      <point x="1312" y="818" type="line"/>
      <point x="1384" y="1228" type="line"/>
      <point x="1974" y="1228" type="line"/>
      <point x="2004" y="1400" type="line"/>
      <point x="1242" y="1400" type="line"/>
    </contour>
  </outline>
</glyph>
<glyph name="oe" format="2">
  <advance width="1644"/>
  <unicode hex="0153"/>
  <outline>
    <contour>
      <point x="410" y="-20" type="curve" smooth="yes"/>
      <point x="562" y="-20"/>
      <point x="714" y="54"/>
      <point x="800" y="194" type="curve"/>
      <point x="838" y="54"/>
      <point x="940" y="-20"/>
      <point x="1150" y="-20" type="curve" smooth="yes"/>
      <point x="1270" y="-20"/>
      <point x="1372" y="10"/>
      <point x="1444" y="44" type="curve"/>
      <point x="1456" y="198" type="line"/>
      <point x="1374" y="156"/>
      <point x="1260" y="124"/>
      <point x="1164" y="124" type="curve" smooth="yes"/>
      <point x="1070" y="124"/>
      <point x="940" y="164"/>
      <point x="940" y="382" type="curve" smooth="yes"/>
      <point x="940" y="414"/>
      <point x="944" y="450"/>
      <point x="950" y="490" type="curve"/>
      <point x="1556" y="490" type="line"/>
      <point x="1568" y="524"/>
      <point x="1592" y="554"/>
      <point x="1592" y="670" type="curve" smooth="yes"/>
      <point x="1592" y="878"/>
      <point x="1464" y="1000"/>
      <point x="1268" y="1000" type="curve" smooth="yes"/>
      <point x="1142" y="1000"/>
      <point x="996" y="936"/>
      <point x="902" y="796" type="curve"/>
      <point x="862" y="936"/>
      <point x="724" y="1000"/>
      <point x="582" y="1000" type="curve" smooth="yes"/>
      <point x="258" y="1000"/>
      <point x="44" y="726"/>
      <point x="44" y="400" type="curve" smooth="yes"/>
      <point x="44" y="164"/>
      <point x="170" y="-20"/>
    </contour>
    <contour>
      <point x="442" y="140" type="curve" smooth="yes"/>
      <point x="300" y="140"/>
      <point x="228" y="238"/>
      <point x="228" y="400" type="curve" smooth="yes"/>
      <point x="228" y="656"/>
      <point x="350" y="840"/>
      <point x="566" y="840" type="curve" smooth="yes"/>
      <point x="704" y="840"/>
      <point x="772" y="730"/>
      <point x="772" y="576" type="curve" smooth="yes"/>
      <point x="772" y="354"/>
      <point x="654" y="140"/>
    </contour>
    <contour>
      <point x="976" y="614" type="line"/>
      <point x="1026" y="760"/>
      <point x="1118" y="840"/>
      <point x="1240" y="840" type="curve" smooth="yes"/>
      <point x="1352" y="840"/>
      <point x="1406" y="772"/>
      <point x="1406" y="664" type="curve" smooth="yes"/>
      <point x="1406" y="648"/>
      <point x="1404" y="632"/>
      <point x="1402" y="614" type="curve"/>
    </contour>
  </outline>
</glyph>
<glyph name="Tbar" format="2">
  <advance width="1046"/>
  <unicode hex="0166"/>
  <outline>
    <contour>
      <point x="196" y="654" type="line"/>
      <point x="868" y="654" type="line"/>
      <point x="890" y="778" type="line"/>
      <point x="218" y="778" type="line"/>
    </contour>
    <component base="T"/>
  </outline>
</glyph>
<glyph name="tbar" format="2">
  <advance width="626"/>
  <unicode hex="0167"/>
  <outline>
    <contour>
      <point x="26" y="484" type="line"/>
      <point x="572" y="484" type="line"/>
      <point x="596" y="610" type="line"/>
      <point x="50" y="610" type="line"/>
    </contour>
    <component base="t" xOffset="20"/>
  </outline>
</glyph>
<glyph name="Schwa" format="2">
  <advance width="1335"/>
  <unicode hex="018F"/>
  <outline>
    <contour>
      <point x="1076" y="484"/>
      <point x="890" y="144"/>
      <point x="564" y="144" type="curve" smooth="yes"/>
      <point x="356" y="144"/>
      <point x="262" y="254"/>
      <point x="260" y="434" type="curve" smooth="yes"/>
      <point x="260" y="466"/>
      <point x="264" y="498"/>
      <point x="270" y="534" type="curve"/>
      <point x="1160" y="534" type="line"/>
      <point x="1190" y="702" type="line"/>
      <point x="104" y="702" type="line"/>
      <point x="78" y="632"/>
      <point x="56" y="520"/>
      <point x="56" y="434" type="curve" smooth="yes"/>
      <point x="56" y="138"/>
      <point x="244" y="-28"/>
      <point x="528" y="-28" type="curve" smooth="yes"/>
      <point x="970" y="-28"/>
      <point x="1284" y="386"/>
      <point x="1284" y="864" type="curve" smooth="yes"/>
      <point x="1284" y="1216"/>
      <point x="1092" y="1428"/>
      <point x="758" y="1428" type="curve" smooth="yes"/>
      <point x="576" y="1428"/>
      <point x="404" y="1384"/>
      <point x="262" y="1322" type="curve"/>
      <point x="270" y="1162" type="line"/>
      <point x="412" y="1216"/>
      <point x="558" y="1256"/>
      <point x="706" y="1256" type="curve" smooth="yes"/>
      <point x="950" y="1256"/>
      <point x="1076" y="1102"/>
      <point x="1076" y="842" type="curve" smooth="yes"/>
    </contour>
  </outline>
</glyph>
<glyph name="florin" format="2">
  <advance width="1162"/>
  <unicode hex="0192"/>
  <outline>
    <contour>
      <point x="396" y="840" type="line"/>
      <point x="1034" y="840" type="line"/>
      <point x="1074" y="980" type="line"/>
      <point x="436" y="980" type="line"/>
    </contour>
    <contour>
      <point x="494" y="90" type="curve" smooth="yes"/>
      <point x="810" y="1026" type="line" smooth="yes"/>
      <point x="866" y="1192"/>
      <point x="948" y="1256"/>
      <point x="1076" y="1256" type="curve" smooth="yes"/>
      <point x="1112" y="1256"/>
      <point x="1150" y="1250"/>
      <point x="1178" y="1240" type="curve"/>
      <point x="1222" y="1406" type="line"/>
      <point x="1182" y="1420"/>
      <point x="1136" y="1428"/>
      <point x="1076" y="1428" type="curve" smooth="yes"/>
      <point x="876" y="1428"/>
      <point x="722" y="1330"/>
      <point x="636" y="1074" type="curve" smooth="yes"/>
      <point x="312" y="114" type="line" smooth="yes"/>
      <point x="254" y="-60"/>
      <point x="174" y="-116"/>
      <point x="46" y="-116" type="curve" smooth="yes"/>
      <point x="10" y="-116"/>
      <point x="-28" y="-110"/>
      <point x="-56" y="-100" type="curve"/>
      <point x="-100" y="-266" type="line"/>
      <point x="-58" y="-282"/>
      <point x="-8" y="-288"/>
      <point x="54" y="-288" type="curve" smooth="yes"/>
      <point x="272" y="-288"/>
      <point x="410" y="-160"/>
    </contour>
  </outline>
</glyph>
<glyph name="jdotless" format="2">
  <advance width="428"/>
  <unicode hex="0237"/>
  <anchor x="284" y="980" name="top"/>
  <outline>
    <contour>
      <point x="-170" y="-484" type="line"/>
      <point x="-106" y="-474" type="line" smooth="yes"/>
      <point x="10" y="-456"/>
      <point x="130" y="-402"/>
      <point x="164" y="-214" type="curve" smooth="yes"/>
      <point x="374" y="980" type="line"/>
      <point x="192" y="980" type="line"/>
      <point x="-6" y="-146" type="line" smooth="yes"/>
      <point x="-34" y="-304"/>
      <point x="-60" y="-334"/>
      <point x="-164" y="-346" type="curve"/>
    </contour>
  </outline>
</glyph>
<glyph name="ringhalfright" format="2">
  <advance width="348"/>
  <unicode hex="02BE"/>
  <outline>
    <contour>
      <point x="160" y="1136" type="line"/>
      <point x="306" y="1136"/>
      <point x="408" y="1232"/>
      <point x="408" y="1366" type="curve" smooth="yes"/>
      <point x="408" y="1460"/>
      <point x="352" y="1536"/>
      <point x="232" y="1536" type="curve"/>
      <point x="216" y="1448" type="line"/>
      <point x="270" y="1448"/>
      <point x="310" y="1414"/>
      <point x="310" y="1354" type="curve" smooth="yes"/>
      <point x="310" y="1276"/>
      <point x="248" y="1224"/>
      <point x="176" y="1224" type="curve"/>
    </contour>
  </outline>
</glyph>
<glyph name="ringhalfleft" format="2">
  <advance width="348"/>
  <unicode hex="02BF"/>
  <outline>
    <contour>
      <point x="408" y="1536" type="line"/>
      <point x="262" y="1536"/>
      <point x="160" y="1440"/>
      <point x="160" y="1306" type="curve" smooth="yes"/>
      <point x="160" y="1212"/>
      <point x="216" y="1136"/>
      <point x="336" y="1136" type="curve"/>
      <point x="352" y="1224" type="line"/>
      <point x="298" y="1224"/>
      <point x="258" y="1258"/>
      <point x="258" y="1318" type="curve" smooth="yes"/>
      <point x="258" y="1396"/>
      <point x="320" y="1448"/>
      <point x="392" y="1448" type="curve"/>
    </contour>
  </outline>
</glyph>
<glyph name="verticallinemod" format="2">
  <advance width="364"/>
  <unicode hex="02C8"/>
  <outline>
    <contour>
      <point x="272" y="1536" type="line"/>
      <point x="200" y="1136" type="line"/>
      <point x="352" y="1136" type="line"/>
      <point x="424" y="1536" type="line"/>
    </contour>
  </outline>
</glyph>
<glyph name="verticallinelowmod" format="2">
  <advance width="344"/>
  <unicode hex="02CC"/>
  <outline>
    <contour>
      <point x="40" y="238" type="line"/>
      <point x="-32" y="-162" type="line"/>
      <point x="120" y="-162" type="line"/>
      <point x="192" y="238" type="line"/>
    </contour>
  </outline>
</glyph>
<glyph name="gravecomb" format="2">
  <unicode hex="0300"/>
  <anchor x="-42" y="980" name="_top"/>
  <anchor x="42" y="1464" name="top"/>
  <outline>
    <contour>
      <point x="164" y="1152" type="line"/>
      <point x="186" y="1274" type="line"/>
      <point x="-132" y="1486" type="line"/>
      <point x="-166" y="1290" type="line"/>
    </contour>
  </outline>
</glyph>
<glyph name="acutecomb" format="2">
  <unicode hex="0301"/>
  <anchor x="-46" y="980" name="_top"/>
  <anchor x="38" y="1464" name="top"/>
  <outline>
    <contour>
      <point x="-180" y="1150" type="line"/>
      <point x="176" y="1272" type="line"/>
      <point x="210" y="1494" type="line"/>
      <point x="-156" y="1286" type="line"/>
    </contour>
  </outline>
</glyph>
<glyph name="circumflexcomb" format="2">
  <unicode hex="0302"/>
  <anchor x="-46" y="980" name="_top"/>
  <anchor x="48" y="1464" name="top"/>
  <outline>
    <contour>
      <point x="-236" y="1148" type="line"/>
      <point x="14" y="1288" type="line"/>
      <point x="236" y="1128" type="line"/>
      <point x="260" y="1250" type="line"/>
      <point x="50" y="1470" type="line"/>
      <point x="-206" y="1276" type="line"/>
    </contour>
  </outline>
</glyph>
<glyph name="tildecomb" format="2">
  <unicode hex="0303"/>
  <anchor x="-42" y="980" name="_top"/>
  <anchor x="40" y="1404" name="top"/>
  <outline>
    <contour>
      <point x="150" y="1160" type="curve" smooth="yes"/>
      <point x="252" y="1160"/>
      <point x="318" y="1228"/>
      <point x="354" y="1388" type="curve"/>
      <point x="210" y="1388" type="line"/>
      <point x="200" y="1336"/>
      <point x="176" y="1310"/>
      <point x="134" y="1310" type="curve" smooth="yes"/>
      <point x="52" y="1310"/>
      <point x="-20" y="1398"/>
      <point x="-112" y="1398" type="curve" smooth="yes"/>
      <point x="-218" y="1398"/>
      <point x="-288" y="1320"/>
      <point x="-322" y="1176" type="curve"/>
      <point x="-178" y="1176" type="line"/>
      <point x="-168" y="1220"/>
      <point x="-144" y="1248"/>
      <point x="-102" y="1248" type="curve" smooth="yes"/>
      <point x="-30" y="1248"/>
      <point x="64" y="1160"/>
    </contour>
  </outline>
</glyph>
<glyph name="macroncomb" format="2">
  <unicode hex="0304"/>
  <anchor x="-42" y="980" name="_top"/>
  <anchor x="40" y="1400" name="top"/>
  <outline>
    <contour>
      <point x="-314" y="1182" type="line"/>
      <point x="310" y="1182" type="line"/>
      <point x="338" y="1324" type="line"/>
      <point x="-286" y="1324" type="line"/>
    </contour>
  </outline>
</glyph>
<glyph name="brevecomb" format="2">
  <unicode hex="0306"/>
  <anchor x="-54" y="980" name="_top"/>
  <anchor x="52" y="1528" name="top"/>
  <outline>
    <contour>
      <point x="-10" y="1152" type="curve" smooth="yes"/>
      <point x="184" y="1152"/>
      <point x="296" y="1264"/>
      <point x="318" y="1406" type="curve"/>
      <point x="152" y="1406" type="line"/>
      <point x="138" y="1324"/>
      <point x="76" y="1284"/>
      <point x="6" y="1284" type="curve" smooth="yes"/>
      <point x="-58" y="1284"/>
      <point x="-100" y="1314"/>
      <point x="-100" y="1372" type="curve" smooth="yes"/>
      <point x="-100" y="1384"/>
      <point x="-98" y="1396"/>
      <point x="-94" y="1406" type="curve"/>
      <point x="-250" y="1406" type="line"/>
      <point x="-256" y="1388"/>
      <point x="-258" y="1372"/>
      <point x="-258" y="1354" type="curve" smooth="yes"/>
      <point x="-258" y="1244"/>
      <point x="-182" y="1152"/>
    </contour>
  </outline>
</glyph>
<glyph name="dotaccentcomb" format="2">
  <unicode hex="0307"/>
  <anchor x="-36" y="980" name="_top"/>
  <anchor x="34" y="1342" name="top"/>
  <outline>
    <contour>
      <point x="-90" y="1182" type="line"/>
      <point x="94" y="1182" type="line"/>
      <point x="130" y="1362" type="line"/>
      <point x="-54" y="1362" type="line"/>
    </contour>
  </outline>
</glyph>
<glyph name="dieresiscomb" format="2">
  <unicode hex="0308"/>
  <anchor x="-40" y="980" name="_top"/>
  <anchor x="40" y="1400" name="top"/>
  <outline>
    <contour>
      <point x="-272" y="1182" type="line"/>
      <point x="-104" y="1182" type="line"/>
      <point x="-72" y="1342" type="line"/>
      <point x="-240" y="1342" type="line"/>
    </contour>
    <contour>
      <point x="100" y="1182" type="line"/>
      <point x="268" y="1182" type="line"/>
      <point x="300" y="1342" type="line"/>
      <point x="132" y="1342" type="line"/>
    </contour>
  </outline>
</glyph>
<glyph name="hookabovecomb" format="2">
  <unicode hex="0309"/>
  <anchor x="-42" y="980" name="_top"/>
  <anchor x="44" y="1420" name="top"/>
  <outline>
    <contour>
      <point x="-54" y="1116" type="curve"/>
      <point x="2" y="1050" type="line"/>
      <point x="104" y="1116"/>
      <point x="182" y="1186"/>
      <point x="182" y="1290" type="curve" smooth="yes"/>
      <point x="180" y="1376"/>
      <point x="110" y="1424"/>
      <point x="12" y="1424" type="curve" smooth="yes"/>
      <point x="-50" y="1424"/>
      <point x="-106" y="1410"/>
      <point x="-156" y="1386" type="curve"/>
      <point x="-140" y="1284" type="line"/>
      <point x="-94" y="1306"/>
      <point x="-50" y="1322"/>
      <point x="-8" y="1322" type="curve" smooth="yes"/>
      <point x="36" y="1322"/>
      <point x="62" y="1304"/>
      <point x="62" y="1268" type="curve" smooth="yes"/>
      <point x="62" y="1208"/>
      <point x="12" y="1170"/>
    </contour>
  </outline>
</glyph>
<glyph name="ringcomb" format="2">
  <unicode hex="030A"/>
  <guideline x="-8" y="568" angle="80"/>
  <anchor x="-44" y="980" name="_top"/>
  <anchor x="42" y="1466" name="top"/>
  <outline>
    <contour>
      <point x="-16" y="1136" type="curve" smooth="yes"/>
      <point x="124" y="1136"/>
      <point x="230" y="1244"/>
      <point x="230" y="1378" type="curve" smooth="yes"/>
      <point x="230" y="1464"/>
      <point x="172" y="1536"/>
      <point x="56" y="1536" type="curve" smooth="yes"/>
      <point x="-78" y="1536"/>
      <point x="-190" y="1428"/>
      <point x="-190" y="1294" type="curve" smooth="yes"/>
      <point x="-190" y="1208"/>
      <point x="-132" y="1136"/>
    </contour>
    <contour>
      <point x="-2" y="1224" type="curve" smooth="yes"/>
      <point x="-48" y="1224"/>
      <point x="-86" y="1256"/>
      <point x="-86" y="1312" type="curve" smooth="yes"/>
      <point x="-86" y="1384"/>
      <point x="-26" y="1448"/>
      <point x="42" y="1448" type="curve" smooth="yes"/>
      <point x="90" y="1448"/>
      <point x="126" y="1412"/>
      <point x="126" y="1358" type="curve" smooth="yes"/>
      <point x="126" y="1286"/>
      <point x="66" y="1224"/>
    </contour>
  </outline>
</glyph>
<glyph name="hungarumlautcomb" format="2">
  <unicode hex="030B"/>
  <anchor x="-52" y="980" name="_top"/>
  <anchor x="50" y="1510" name="top"/>
  <outline>
    <contour>
      <point x="-226" y="1156" type="line"/>
      <point x="-94" y="1156" type="line"/>
      <point x="182" y="1490" type="line"/>
      <point x="-14" y="1490" type="line"/>
    </contour>
    <contour>
      <point x="54" y="1156" type="line"/>
      <point x="186" y="1156" type="line"/>
      <point x="472" y="1490" type="line"/>
      <point x="276" y="1490" type="line"/>
    </contour>
  </outline>
</glyph>
<glyph name="caroncomb" format="2">
  <unicode hex="030C"/>
  <anchor x="-42" y="980" name="_top"/>
  <anchor x="42" y="1414" name="top"/>
  <outline>
    <contour>
      <point x="-16" y="1116" type="line"/>
      <point x="268" y="1308" type="line"/>
      <point x="292" y="1458" type="line"/>
      <point x="20" y="1298" type="line"/>
      <point x="-202" y="1458" type="line"/>
      <point x="-226" y="1336" type="line"/>
    </contour>
  </outline>
</glyph>
<glyph name="dblgravecomb" format="2">
  <unicode hex="030F"/>
  <anchor x="-46" y="980" name="_top"/>
  <anchor x="46" y="1510" name="top"/>
  <outline>
    <contour>
      <point x="190" y="1156" type="line"/>
      <point x="118" y="1490" type="line"/>
      <point x="-78" y="1490" type="line"/>
      <point x="58" y="1156" type="line"/>
    </contour>
    <contour>
      <point x="-88" y="1156" type="line"/>
      <point x="-170" y="1490" type="line"/>
      <point x="-366" y="1490" type="line"/>
      <point x="-220" y="1156" type="line"/>
    </contour>
  </outline>
</glyph>
<glyph name="breveinvertedcomb" format="2">
  <unicode hex="0311"/>
  <anchor x="-34" y="980" name="_top"/>
  <anchor x="34" y="1366" name="top"/>
  <outline>
    <contour>
      <point x="36" y="1406" type="curve" smooth="yes"/>
      <point x="-164" y="1406"/>
      <point x="-278" y="1284"/>
      <point x="-300" y="1152" type="curve"/>
      <point x="-136" y="1152" type="line"/>
      <point x="-122" y="1234"/>
      <point x="-54" y="1274"/>
      <point x="18" y="1274" type="curve" smooth="yes"/>
      <point x="82" y="1274"/>
      <point x="130" y="1242"/>
      <point x="130" y="1178" type="curve" smooth="yes"/>
      <point x="130" y="1170"/>
      <point x="130" y="1160"/>
      <point x="128" y="1152" type="curve"/>
      <point x="284" y="1152" type="line"/>
      <point x="286" y="1168"/>
      <point x="288" y="1182"/>
      <point x="288" y="1198" type="curve" smooth="yes"/>
      <point x="288" y="1312"/>
      <point x="212" y="1406"/>
    </contour>
  </outline>
</glyph>
<glyph name="horncomb" format="2">
  <unicode hex="031B"/>
  <anchor x="0" y="980" name="_topright"/>
  <outline>
    <contour>
      <point x="-24" y="848" type="line"/>
      <point x="182" y="848"/>
      <point x="322" y="956"/>
      <point x="358" y="1128" type="curve"/>
      <point x="186" y="1128" type="line"/>
      <point x="166" y="1022"/>
      <point x="100" y="980"/>
      <point x="0" y="980" type="curve"/>
    </contour>
  </outline>
</glyph>
<glyph name="commaaccentcomb" format="2">
  <unicode hex="0326"/>
  <anchor x="54" y="0" name="_bottom"/>
  <anchor x="-54" y="-618" name="bottom"/>
  <outline>
    <contour>
      <point x="-36" y="-524" type="line"/>
      <point x="98" y="-354" type="line"/>
      <point x="128" y="-182" type="line"/>
      <point x="-64" y="-182" type="line"/>
      <point x="-94" y="-354" type="line"/>
      <point x="-22" y="-354" type="line"/>
      <point x="-110" y="-524" type="line"/>
    </contour>
  </outline>
</glyph>
<glyph name="cedillacomb" format="2">
  <unicode hex="0327"/>
  <anchor x="40" y="0" name="_bottom"/>
  <anchor x="-40" y="-458" name="bottom"/>
  <outline>
    <contour>
      <point x="18" y="-158" type="line"/>
      <point x="96" y="0" type="line"/>
      <point x="-4" y="0" type="line"/>
      <point x="-94" y="-210" type="line"/>
      <point x="-58" y="-198"/>
      <point x="-28" y="-194"/>
      <point x="2" y="-194" type="curve" smooth="yes"/>
      <point x="62" y="-194"/>
      <point x="90" y="-220"/>
      <point x="90" y="-262" type="curve" smooth="yes"/>
      <point x="90" y="-312"/>
      <point x="48" y="-350"/>
      <point x="-22" y="-350" type="curve" smooth="yes"/>
      <point x="-68" y="-350"/>
      <point x="-106" y="-338"/>
      <point x="-142" y="-316" type="curve"/>
      <point x="-190" y="-414" type="line"/>
      <point x="-156" y="-434"/>
      <point x="-108" y="-452"/>
      <point x="-40" y="-452" type="curve" smooth="yes"/>
      <point x="100" y="-452"/>
      <point x="208" y="-364"/>
      <point x="208" y="-240" type="curve" smooth="yes"/>
      <point x="208" y="-158"/>
      <point x="152" y="-108"/>
      <point x="58" y="-108" type="curve" smooth="yes"/>
      <point x="22" y="-108"/>
      <point x="-8" y="-116"/>
      <point x="-42" y="-128" type="curve"/>
    </contour>
  </outline>
</glyph>
<glyph name="ogonekcomb" format="2">
  <unicode hex="0328"/>
  <anchor x="36" y="0" name="_ogonek"/>
  <outline>
    <contour>
      <point x="-14" y="0" type="line"/>
      <point x="-120" y="-56"/>
      <point x="-226" y="-166"/>
      <point x="-226" y="-278" type="curve" smooth="yes"/>
      <point x="-224" y="-368"/>
      <point x="-152" y="-416"/>
      <point x="-56" y="-416" type="curve" smooth="yes"/>
      <point x="10" y="-416"/>
      <point x="66" y="-398"/>
      <point x="104" y="-378" type="curve"/>
      <point x="92" y="-280" type="line"/>
      <point x="52" y="-302"/>
      <point x="14" y="-314"/>
      <point x="-28" y="-314" type="curve" smooth="yes"/>
      <point x="-74" y="-314"/>
      <point x="-102" y="-288"/>
      <point x="-102" y="-238" type="curve" smooth="yes"/>
      <point x="-102" y="-142"/>
      <point x="-6" y="-68"/>
      <point x="92" y="0" type="curve"/>
    </contour>
  </outline>
</glyph>
<glyph name="pi" format="2">
  <advance width="1340"/>
  <unicode hex="03C0"/>
  <outline>
    <contour>
      <point x="974" y="136" type="curve" smooth="yes"/>
      <point x="912" y="136"/>
      <point x="880" y="170"/>
      <point x="880" y="236" type="curve" smooth="yes"/>
      <point x="880" y="250"/>
      <point x="882" y="264"/>
      <point x="884" y="280" type="curve" smooth="yes"/>
      <point x="984" y="840" type="line"/>
      <point x="1196" y="840" type="line"/>
      <point x="1220" y="980" type="line"/>
      <point x="84" y="980" type="line"/>
      <point x="60" y="840" type="line"/>
      <point x="276" y="840" type="line"/>
      <point x="128" y="0" type="line"/>
      <point x="308" y="0" type="line"/>
      <point x="456" y="840" type="line"/>
      <point x="806" y="840" type="line"/>
      <point x="702" y="252" type="line" smooth="yes"/>
      <point x="696" y="220"/>
      <point x="692" y="192"/>
      <point x="692" y="166" type="curve" smooth="yes"/>
      <point x="690" y="44"/>
      <point x="760" y="-20"/>
      <point x="880" y="-20" type="curve" smooth="yes"/>
      <point x="944" y="-20"/>
      <point x="1006" y="-6"/>
      <point x="1042" y="10" type="curve"/>
      <point x="1068" y="150" type="line"/>
      <point x="1042" y="142"/>
      <point x="1008" y="136"/>
    </contour>
  </outline>
</glyph>
<glyph name="Germandbls" format="2">
  <advance width="1152"/>
  <unicode hex="1E9E"/>
  <outline>
    <contour>
      <point x="48" y="0" type="line"/>
      <point x="238" y="0" type="line"/>
      <point x="410" y="974" type="line" smooth="yes"/>
      <point x="444" y="1168"/>
      <point x="574" y="1256"/>
      <point x="750" y="1256" type="curve" smooth="yes"/>
      <point x="850" y="1256"/>
      <point x="922" y="1236"/>
      <point x="988" y="1204" type="curve"/>
      <point x="996" y="1306" type="line"/>
      <point x="604" y="808" type="line"/>
      <point x="578" y="668" type="line"/>
      <point x="606" y="666" type="line" smooth="yes"/>
      <point x="762" y="654"/>
      <point x="862" y="580"/>
      <point x="862" y="428" type="curve" smooth="yes"/>
      <point x="862" y="260"/>
      <point x="754" y="144"/>
      <point x="576" y="144" type="curve" smooth="yes"/>
      <point x="520" y="144"/>
      <point x="470" y="154"/>
      <point x="426" y="170" type="curve"/>
      <point x="392" y="0" type="line"/>
      <point x="444" y="-16"/>
      <point x="508" y="-28"/>
      <point x="572" y="-28" type="curve" smooth="yes"/>
      <point x="870" y="-28"/>
      <point x="1070" y="174"/>
      <point x="1070" y="442" type="curve" smooth="yes"/>
      <point x="1070" y="668"/>
      <point x="914" y="806"/>
      <point x="676" y="806" type="curve"/>
      <point x="748" y="722" type="line"/>
      <point x="1100" y="1174" type="line"/>
      <point x="1132" y="1326" type="line"/>
      <point x="1036" y="1384"/>
      <point x="904" y="1428"/>
      <point x="750" y="1428" type="curve" smooth="yes"/>
      <point x="482" y="1428"/>
      <point x="274" y="1290"/>
      <point x="220" y="970" type="curve" smooth="yes"/>
    </contour>
  </outline>
</glyph>
<glyph name="figuredash" format="2">
  <advance width="1350"/>
  <unicode hex="2012"/>
  <outline>
    <contour>
      <point x="0" y="536" type="line"/>
      <point x="1320" y="536" type="line"/>
      <point x="1350" y="708" type="line"/>
      <point x="30" y="708" type="line"/>
    </contour>
  </outline>
</glyph>
<glyph name="endash" format="2">
  <advance width="1232"/>
  <unicode hex="2013"/>
  <outline>
    <contour>
      <point x="0" y="536" type="line"/>
      <point x="1202" y="536" type="line"/>
      <point x="1232" y="708" type="line"/>
      <point x="30" y="708" type="line"/>
    </contour>
  </outline>
</glyph>
<glyph name="emdash" format="2">
  <advance width="1382"/>
  <unicode hex="2014"/>
  <outline>
    <contour>
      <point x="0" y="536" type="line"/>
      <point x="1352" y="536" type="line"/>
      <point x="1382" y="708" type="line"/>
      <point x="30" y="708" type="line"/>
    </contour>
  </outline>
</glyph>
<glyph name="minute" format="2">
  <advance width="252"/>
  <unicode hex="2032"/>
  <outline>
    <contour>
      <point x="80" y="1026" type="line"/>
      <point x="212" y="1026" type="line"/>
      <point x="332" y="1400" type="line"/>
      <point x="144" y="1400" type="line"/>
    </contour>
  </outline>
</glyph>
<glyph name="guilsinglleft" format="2">
  <advance width="618"/>
  <unicode hex="2039"/>
  <outline>
    <contour>
      <point x="244" y="156" type="line"/>
      <point x="462" y="156" type="line"/>
      <point x="252" y="568" type="line"/>
      <point x="606" y="980" type="line"/>
      <point x="388" y="980" type="line"/>
      <point x="34" y="568" type="line"/>
    </contour>
  </outline>
</glyph>
<glyph name="guilsinglright" format="2">
  <advance width="620"/>
  <unicode hex="203A"/>
  <outline>
    <contour>
      <point x="6" y="156" type="line"/>
      <point x="224" y="156" type="line"/>
      <point x="578" y="568" type="line"/>
      <point x="370" y="980" type="line"/>
      <point x="152" y="980" type="line"/>
      <point x="360" y="568" type="line"/>
    </contour>
  </outline>
</glyph>
<glyph name="fraction" format="2">
  <advance width="114"/>
  <unicode hex="2044"/>
  <outline>
    <contour>
      <point x="-554" y="0" type="line"/>
      <point x="-384" y="0" type="line"/>
      <point x="668" y="1400" type="line"/>
      <point x="500" y="1400" type="line"/>
    </contour>
  </outline>
</glyph>
<glyph name="colonsign" format="2">
  <advance width="1214"/>
  <unicode hex="20A1"/>
  <anchor x="626" y="0" name="bottom"/>
  <anchor x="886" y="1400" name="top"/>
  <outline>
    <contour>
      <point x="738" y="1628" type="line"/>
      <point x="254" y="-228" type="line"/>
      <point x="394" y="-228" type="line"/>
      <point x="878" y="1628" type="line"/>
    </contour>
    <contour>
      <point x="1046" y="1628" type="line"/>
      <point x="562" y="-228" type="line"/>
      <point x="702" y="-228" type="line"/>
      <point x="1186" y="1628" type="line"/>
    </contour>
    <component base="C"/>
  </outline>
</glyph>
<glyph name="franc" format="2">
  <advance width="1074"/>
  <unicode hex="20A3"/>
  <outline>
    <contour>
      <point x="24" y="276" type="line"/>
      <point x="696" y="276" type="line"/>
      <point x="724" y="424" type="line"/>
      <point x="52" y="424" type="line"/>
    </contour>
    <component base="F" xOffset="40"/>
  </outline>
</glyph>
<glyph name="lira" format="2">
  <advance width="1028"/>
  <unicode hex="20A4"/>
  <outline>
    <contour>
      <point x="168" y="98" type="line"/>
      <point x="288" y="268"/>
      <point x="346" y="392"/>
      <point x="420" y="652" type="curve" smooth="yes"/>
      <point x="522" y="1016" type="line" smooth="yes"/>
      <point x="562" y="1162"/>
      <point x="644" y="1256"/>
      <point x="774" y="1256" type="curve" smooth="yes"/>
      <point x="852" y="1256"/>
      <point x="912" y="1218"/>
      <point x="972" y="1168" type="curve"/>
      <point x="1028" y="1370" type="line"/>
      <point x="956" y="1408"/>
      <point x="882" y="1428"/>
      <point x="790" y="1428" type="curve" smooth="yes"/>
      <point x="552" y="1428"/>
      <point x="410" y="1292"/>
      <point x="340" y="1040" type="curve" smooth="yes"/>
      <point x="226" y="636" type="line" smooth="yes"/>
      <point x="152" y="376"/>
      <point x="74" y="220"/>
      <point x="-60" y="0" type="curve"/>
      <point x="798" y="0" type="line"/>
      <point x="830" y="180" type="line"/>
      <point x="138" y="180" type="line"/>
    </contour>
    <contour>
      <point x="96" y="772" type="line"/>
      <point x="828" y="772" type="line"/>
      <point x="854" y="920" type="line"/>
      <point x="122" y="920" type="line"/>
    </contour>
    <contour>
      <point x="22" y="472" type="line"/>
      <point x="754" y="472" type="line"/>
      <point x="780" y="620" type="line"/>
      <point x="48" y="620" type="line"/>
    </contour>
  </outline>
</glyph>
<glyph name="naira" format="2">
  <advance width="1212"/>
  <unicode hex="20A6"/>
  <outline>
    <contour>
      <point x="-20" y="672" type="line"/>
      <point x="1204" y="672" type="line"/>
      <point x="1232" y="820" type="line"/>
      <point x="8" y="820" type="line"/>
    </contour>
    <component base="N" xOffset="-74"/>
  </outline>
</glyph>
<glyph name="peseta" format="2">
  <advance width="2404"/>
  <unicode hex="20A7"/>
  <outline>
    <contour>
      <point x="1352" y="-20" type="curve" smooth="yes"/>
      <point x="1502" y="-20" type="line"/>
      <point x="1542" y="124" type="line"/>
      <point x="1494" y="124" type="line" smooth="yes"/>
      <point x="1380" y="124"/>
      <point x="1344" y="130"/>
      <point x="1344" y="202" type="curve" smooth="yes"/>
      <point x="1344" y="230"/>
      <point x="1350" y="270"/>
      <point x="1450" y="840" type="curve"/>
      <point x="1672" y="840" type="line"/>
      <point x="1698" y="980" type="line"/>
      <point x="1476" y="980" type="line"/>
      <point x="1522" y="1240" type="line"/>
      <point x="1338" y="1222" type="line"/>
      <point x="1294" y="980" type="line"/>
      <point x="1166" y="980" type="line"/>
      <point x="1126" y="840" type="line"/>
      <point x="1270" y="840" type="line"/>
      <point x="1158" y="208"/>
      <point x="1156" y="182"/>
      <point x="1156" y="162" type="curve" smooth="yes"/>
      <point x="1156" y="66"/>
      <point x="1208" y="-20"/>
    </contour>
    <contour>
      <point x="1902" y="-20" type="curve" smooth="yes"/>
      <point x="2236" y="-20"/>
      <point x="2292" y="204"/>
      <point x="2292" y="320" type="curve" smooth="yes"/>
      <point x="2292" y="486"/>
      <point x="2174" y="536"/>
      <point x="2088" y="566" type="curve" smooth="yes"/>
      <point x="1966" y="608"/>
      <point x="1910" y="630"/>
      <point x="1910" y="710" type="curve" smooth="yes"/>
      <point x="1910" y="808"/>
      <point x="1994" y="858"/>
      <point x="2102" y="858" type="curve" smooth="yes"/>
      <point x="2196" y="858"/>
      <point x="2268" y="820"/>
      <point x="2310" y="772" type="curve"/>
      <point x="2358" y="936" type="line"/>
      <point x="2312" y="966"/>
      <point x="2234" y="1000"/>
      <point x="2114" y="1000" type="curve" smooth="yes"/>
      <point x="1830" y="1000"/>
      <point x="1728" y="812"/>
      <point x="1728" y="662" type="curve" smooth="yes"/>
      <point x="1728" y="500"/>
      <point x="1844" y="460"/>
      <point x="1956" y="424" type="curve" smooth="yes"/>
      <point x="2024" y="402"/>
      <point x="2102" y="374"/>
      <point x="2102" y="280" type="curve" smooth="yes"/>
      <point x="2102" y="198"/>
      <point x="2044" y="140"/>
      <point x="1918" y="140" type="curve" smooth="yes"/>
      <point x="1788" y="140"/>
      <point x="1694" y="202"/>
      <point x="1656" y="240" type="curve"/>
      <point x="1606" y="66" type="line"/>
      <point x="1646" y="34"/>
      <point x="1738" y="-20"/>
    </contour>
    <contour>
      <point x="56" y="0" type="line"/>
      <point x="252" y="0" type="line"/>
      <point x="338" y="490" type="line"/>
      <point x="596" y="490" type="line" smooth="yes"/>
      <point x="904" y="490"/>
      <point x="1098" y="694"/>
      <point x="1098" y="1024" type="curve" smooth="yes"/>
      <point x="1098" y="1286"/>
      <point x="964" y="1400"/>
      <point x="688" y="1400" type="curve" smooth="yes"/>
      <point x="302" y="1400" type="line"/>
    </contour>
    <contour>
      <point x="368" y="660" type="line"/>
      <point x="470" y="1230" type="line"/>
      <point x="684" y="1230" type="line" smooth="yes"/>
      <point x="844" y="1230"/>
      <point x="898" y="1138"/>
      <point x="898" y="998" type="curve" smooth="yes"/>
      <point x="898" y="808"/>
      <point x="794" y="660"/>
      <point x="594" y="660" type="curve" smooth="yes"/>
    </contour>
  </outline>
</glyph>
<glyph name="won" format="2">
  <advance width="1744"/>
  <unicode hex="20A9"/>
  <outline>
    <contour>
      <point x="20" y="664" type="line"/>
      <point x="1694" y="664" type="line"/>
      <point x="1720" y="812" type="line"/>
      <point x="46" y="812" type="line"/>
    </contour>
    <contour>
      <point x="214" y="0" type="line"/>
      <point x="414" y="0" type="line"/>
      <point x="986" y="1230" type="line"/>
      <point x="906" y="1230" type="line"/>
      <point x="1026" y="0" type="line"/>
      <point x="1226" y="0" type="line"/>
      <point x="1784" y="1400" type="line"/>
      <point x="1570" y="1400" type="line"/>
      <point x="1114" y="132" type="line"/>
      <point x="1186" y="132" type="line"/>
      <point x="1056" y="1372" type="line"/>
      <point x="884" y="1372" type="line"/>
      <point x="310" y="132" type="line"/>
      <point x="394" y="132" type="line"/>
      <point x="384" y="1400" type="line"/>
      <point x="170" y="1400" type="line"/>
    </contour>
  </outline>
</glyph>
<glyph name="dong" format="2">
  <advance width="1092"/>
  <unicode hex="20AB"/>
  <anchor x="478" y="0" name="bottom"/>
  <anchor x="824" y="1232" name="center"/>
  <anchor x="478" y="980" name="top"/>
  <anchor x="1116" y="1500" name="topright"/>
  <outline>
    <contour>
      <point x="-20" y="-262" type="line"/>
      <point x="726" y="-262" type="line"/>
      <point x="752" y="-116" type="line"/>
      <point x="6" y="-116" type="line"/>
    </contour>
    <component base="dcroat" xOffset="-42"/>
  </outline>
</glyph>
<glyph name="euro" format="2">
  <advance width="1278"/>
  <unicode hex="20AC"/>
  <outline>
    <contour>
      <point x="18" y="804" type="line"/>
      <point x="1016" y="804" type="line"/>
      <point x="1042" y="952" type="line"/>
      <point x="44" y="952" type="line"/>
    </contour>
    <contour>
      <point x="-44" y="460" type="line"/>
      <point x="954" y="460" type="line"/>
      <point x="980" y="608" type="line"/>
      <point x="-18" y="608" type="line"/>
    </contour>
    <component base="C" xOffset="76"/>
  </outline>
</glyph>
<glyph name="kip" format="2">
  <advance width="1182"/>
  <unicode hex="20AD"/>
  <anchor x="512" y="0" name="bottom"/>
  <anchor x="736" y="1400" name="top"/>
  <outline>
    <contour>
      <point x="20" y="668" type="line"/>
      <point x="992" y="668" type="line"/>
      <point x="1016" y="812" type="line"/>
      <point x="44" y="812" type="line"/>
    </contour>
    <component base="K" xOffset="6"/>
  </outline>
</glyph>
<glyph name="peso" format="2">
  <advance width="1316"/>
  <unicode hex="20B1"/>
  <outline>
    <contour>
      <point x="64" y="0" type="line"/>
      <point x="264" y="0" type="line"/>
      <point x="334" y="390" type="line"/>
      <point x="586" y="390" type="line" smooth="yes"/>
      <point x="952" y="390"/>
      <point x="1152" y="672"/>
      <point x="1152" y="1042" type="curve" smooth="yes"/>
      <point x="1152" y="1298"/>
      <point x="998" y="1400"/>
      <point x="764" y="1400" type="curve" smooth="yes"/>
      <point x="312" y="1400" type="line"/>
    </contour>
    <contour>
      <point x="364" y="560" type="line"/>
      <point x="482" y="1230" type="line"/>
      <point x="706" y="1230" type="line" smooth="yes"/>
      <point x="880" y="1230"/>
      <point x="960" y="1156"/>
      <point x="960" y="1000" type="curve" smooth="yes"/>
      <point x="960" y="750"/>
      <point x="844" y="560"/>
      <point x="588" y="560" type="curve" smooth="yes"/>
    </contour>
    <contour>
      <point x="74" y="964" type="line"/>
      <point x="1292" y="964" type="line"/>
      <point x="1316" y="1104" type="line"/>
      <point x="98" y="1104" type="line"/>
    </contour>
    <contour>
      <point x="24" y="686" type="line"/>
      <point x="1242" y="686" type="line"/>
      <point x="1266" y="826" type="line"/>
      <point x="48" y="826" type="line"/>
    </contour>
  </outline>
</glyph>
<glyph name="guarani" format="2">
  <advance width="1216"/>
  <unicode hex="20B2"/>
  <anchor x="548" y="0" name="bottom"/>
  <anchor x="780" y="1400" name="top"/>
  <outline>
    <contour>
      <point x="632" y="68" type="line"/>
      <point x="516" y="68" type="line"/>
      <point x="434" y="-288" type="line"/>
      <point x="590" y="-288" type="line"/>
    </contour>
    <contour>
      <point x="742" y="1346" type="line"/>
      <point x="858" y="1346" type="line"/>
      <point x="938" y="1688" type="line"/>
      <point x="782" y="1688" type="line"/>
    </contour>
    <component base="G" xOffset="-74"/>
  </outline>
</glyph>
<glyph name="cedi" format="2">
  <advance width="1150"/>
  <unicode hex="20B5"/>
  <outline>
    <contour>
      <point x="620" y="68" type="line"/>
      <point x="504" y="68" type="line"/>
      <point x="422" y="-288" type="line"/>
      <point x="578" y="-288" type="line"/>
    </contour>
    <contour>
      <point x="730" y="1346" type="line"/>
      <point x="846" y="1346" type="line"/>
      <point x="926" y="1688" type="line"/>
      <point x="770" y="1688" type="line"/>
    </contour>
    <component base="C" xOffset="-72"/>
  </outline>
</glyph>
<glyph name="rupeeIndian" format="2">
  <advance width="1100"/>
  <unicode hex="20B9"/>
  <outline>
    <contour>
      <point x="40" y="486" type="line"/>
      <point x="274" y="486" type="line" smooth="yes"/>
      <point x="606" y="486"/>
      <point x="836" y="698"/>
      <point x="836" y="1030" type="curve" smooth="yes"/>
      <point x="836" y="1140"/>
      <point x="800" y="1224"/>
      <point x="734" y="1284" type="curve"/>
      <point x="708" y="1246" type="line"/>
      <point x="1052" y="1246" type="line"/>
      <point x="1080" y="1400" type="line"/>
      <point x="202" y="1400" type="line"/>
      <point x="174" y="1246" type="line"/>
      <point x="380" y="1246" type="line" smooth="yes"/>
      <point x="548" y="1246"/>
      <point x="638" y="1168"/>
      <point x="636" y="1014" type="curve" smooth="yes"/>
      <point x="636" y="796"/>
      <point x="506" y="640"/>
      <point x="274" y="640" type="curve" smooth="yes"/>
      <point x="68" y="640" type="line"/>
    </contour>
    <contour>
      <point x="630" y="0" type="line"/>
      <point x="842" y="0" type="line"/>
      <point x="560" y="568" type="line"/>
      <point x="352" y="568" type="line"/>
    </contour>
    <contour>
      <point x="108" y="866" type="line"/>
      <point x="986" y="866" type="line"/>
      <point x="1012" y="1020" type="line"/>
      <point x="134" y="1020" type="line"/>
    </contour>
  </outline>
</glyph>
<glyph name="liraTurkish" format="2">
  <advance width="1114"/>
  <unicode hex="20BA"/>
  <outline>
    <contour>
      <point x="514" y="1400" type="line"/>
      <point x="324" y="1400" type="line"/>
      <point x="76" y="0" type="line"/>
      <point x="304" y="0" type="line" smooth="yes"/>
      <point x="668" y="0"/>
      <point x="936" y="198"/>
      <point x="1012" y="634" type="curve" smooth="yes"/>
      <point x="1022" y="690" type="line"/>
      <point x="832" y="690" type="line"/>
      <point x="822" y="634" type="line" smooth="yes"/>
      <point x="768" y="324"/>
      <point x="608" y="172"/>
      <point x="348" y="172" type="curve" smooth="yes"/>
      <point x="296" y="172" type="line"/>
    </contour>
    <contour>
      <point x="20" y="592" type="line"/>
      <point x="922" y="854" type="line"/>
      <point x="950" y="1012" type="line"/>
      <point x="48" y="750" type="line"/>
    </contour>
    <contour>
      <point x="74" y="892" type="line"/>
      <point x="976" y="1154" type="line"/>
      <point x="1004" y="1312" type="line"/>
      <point x="102" y="1050" type="line"/>
    </contour>
  </outline>
</glyph>
<glyph name="manat" format="2">
  <advance width="1274"/>
  <unicode hex="20BC"/>
  <outline>
    <contour>
      <point x="672" y="1168" type="curve" smooth="yes"/>
      <point x="298" y="1168"/>
      <point x="100" y="938"/>
      <point x="40" y="566" type="curve" smooth="yes"/>
      <point x="-60" y="0" type="line"/>
      <point x="130" y="0" type="line"/>
      <point x="222" y="514" type="line" smooth="yes"/>
      <point x="260" y="760"/>
      <point x="352" y="996"/>
      <point x="656" y="996" type="curve" smooth="yes"/>
      <point x="876" y="996"/>
      <point x="936" y="856"/>
      <point x="936" y="682" type="curve" smooth="yes"/>
      <point x="936" y="628"/>
      <point x="930" y="572"/>
      <point x="922" y="514" type="curve" smooth="yes"/>
      <point x="830" y="0" type="line"/>
      <point x="1020" y="0" type="line"/>
      <point x="1120" y="566" type="line" smooth="yes"/>
      <point x="1130" y="622"/>
      <point x="1134" y="674"/>
      <point x="1134" y="724" type="curve" smooth="yes"/>
      <point x="1136" y="988"/>
      <point x="986" y="1168"/>
    </contour>
    <contour>
      <point x="386" y="0" type="line"/>
      <point x="576" y="0" type="line"/>
      <point x="824" y="1400" type="line"/>
      <point x="634" y="1400" type="line"/>
    </contour>
  </outline>
</glyph>
<glyph name="ruble" format="2">
  <advance width="1144"/>
  <unicode hex="20BD"/>
  <outline>
    <contour>
      <point x="90" y="0" type="line"/>
      <point x="290" y="0" type="line"/>
      <point x="508" y="1230" type="line"/>
      <point x="722" y="1230" type="line" smooth="yes"/>
      <point x="888" y="1230"/>
      <point x="962" y="1162"/>
      <point x="962" y="1022" type="curve" smooth="yes"/>
      <point x="962" y="804"/>
      <point x="850" y="660"/>
      <point x="620" y="660" type="curve" smooth="yes"/>
      <point x="46" y="660" type="line"/>
      <point x="16" y="490" type="line"/>
      <point x="618" y="490" type="line" smooth="yes"/>
      <point x="964" y="490"/>
      <point x="1162" y="714"/>
      <point x="1164" y="1044" type="curve" smooth="yes"/>
      <point x="1166" y="1284"/>
      <point x="1022" y="1400"/>
      <point x="780" y="1400" type="curve" smooth="yes"/>
      <point x="338" y="1400" type="line"/>
    </contour>
    <contour>
      <point x="-32" y="216" type="line"/>
      <point x="726" y="216" type="line"/>
      <point x="752" y="364" type="line"/>
      <point x="-6" y="364" type="line"/>
    </contour>
  </outline>
</glyph>
<glyph name="literSign" format="2">
  <advance width="908"/>
  <unicode hex="2113"/>
  <outline>
    <contour>
      <point x="264" y="1140" type="curve" smooth="yes"/>
      <point x="124" y="340" type="line" smooth="yes"/>
      <point x="118" y="304"/>
      <point x="114" y="276"/>
      <point x="114" y="246" type="curve" smooth="yes"/>
      <point x="114" y="88"/>
      <point x="196" y="-16"/>
      <point x="380" y="-16" type="curve" smooth="yes"/>
      <point x="606" y="-16"/>
      <point x="702" y="122"/>
      <point x="746" y="336" type="curve"/>
      <point x="598" y="336" type="line"/>
      <point x="566" y="200"/>
      <point x="516" y="114"/>
      <point x="412" y="114" type="curve" smooth="yes"/>
      <point x="334" y="114"/>
      <point x="296" y="156"/>
      <point x="296" y="258" type="curve" smooth="yes"/>
      <point x="296" y="284"/>
      <point x="298" y="306"/>
      <point x="304" y="344" type="curve" smooth="yes"/>
      <point x="440" y="1116" type="line" smooth="yes"/>
      <point x="466" y="1268"/>
      <point x="524" y="1322"/>
      <point x="594" y="1322" type="curve" smooth="yes"/>
      <point x="652" y="1322"/>
      <point x="682" y="1282"/>
      <point x="682" y="1204" type="curve" smooth="yes"/>
      <point x="682" y="910"/>
      <point x="434" y="736"/>
      <point x="42" y="618" type="curve"/>
      <point x="20" y="490" type="line"/>
      <point x="492" y="614"/>
      <point x="848" y="818"/>
      <point x="848" y="1196" type="curve" smooth="yes"/>
      <point x="848" y="1346"/>
      <point x="770" y="1446"/>
      <point x="598" y="1446" type="curve" smooth="yes"/>
      <point x="412" y="1446"/>
      <point x="300" y="1348"/>
    </contour>
  </outline>
</glyph>
<glyph name="numero" format="2">
  <advance width="2242"/>
  <unicode hex="2116"/>
  <outline>
    <contour>
      <point x="1640" y="468" type="curve" smooth="yes"/>
      <point x="1938" y="468"/>
      <point x="2162" y="740"/>
      <point x="2162" y="1050" type="curve" smooth="yes"/>
      <point x="2162" y="1268"/>
      <point x="2040" y="1428"/>
      <point x="1810" y="1428" type="curve" smooth="yes"/>
      <point x="1508" y="1428"/>
      <point x="1290" y="1156"/>
      <point x="1290" y="840" type="curve" smooth="yes"/>
      <point x="1290" y="626"/>
      <point x="1412" y="468"/>
    </contour>
    <contour>
      <point x="1668" y="628" type="curve" smooth="yes"/>
      <point x="1542" y="628"/>
      <point x="1474" y="710"/>
      <point x="1474" y="854" type="curve" smooth="yes"/>
      <point x="1474" y="1068"/>
      <point x="1582" y="1268"/>
      <point x="1782" y="1268" type="curve" smooth="yes"/>
      <point x="1908" y="1268"/>
      <point x="1976" y="1186"/>
      <point x="1976" y="1042" type="curve" smooth="yes"/>
      <point x="1976" y="826"/>
      <point x="1868" y="628"/>
    </contour>
    <contour>
      <point x="1316" y="158" type="line"/>
      <point x="1856" y="158" type="line"/>
      <point x="1884" y="318" type="line"/>
      <point x="1344" y="318" type="line"/>
    </contour>
    <component base="N" xOffset="-76"/>
  </outline>
</glyph>
<glyph name="trademark" format="2">
  <advance width="1342"/>
  <unicode hex="2122"/>
  <outline>
    <contour>
      <point x="572" y="674" type="line"/>
      <point x="682" y="674" type="line"/>
      <point x="834" y="1212" type="line"/>
      <point x="932" y="886" type="line"/>
      <point x="946" y="886" type="line"/>
      <point x="1162" y="1210" type="line"/>
      <point x="1120" y="674" type="line"/>
      <point x="1234" y="674" type="line"/>
      <point x="1276" y="1400" type="line"/>
      <point x="1210" y="1400" type="line"/>
      <point x="968" y="1042" type="line"/>
      <point x="850" y="1400" type="line"/>
      <point x="786" y="1400" type="line"/>
    </contour>
    <contour>
      <point x="258" y="674" type="line"/>
      <point x="366" y="674" type="line"/>
      <point x="478" y="1300" type="line"/>
      <point x="654" y="1300" type="line"/>
      <point x="684" y="1400" type="line"/>
      <point x="206" y="1400" type="line"/>
      <point x="188" y="1300" type="line"/>
      <point x="368" y="1300" type="line"/>
    </contour>
  </outline>
</glyph>
<glyph name="Ohm" format="2">
  <advance width="1608"/>
  <unicode hex="2126"/>
  <outline>
    <contour>
      <point x="896" y="1262" type="curve" smooth="yes"/>
      <point x="1126" y="1262"/>
      <point x="1258" y="1112"/>
      <point x="1256" y="854" type="curve" smooth="yes"/>
      <point x="1256" y="558"/>
      <point x="1104" y="332"/>
      <point x="808" y="182" type="curve"/>
      <point x="776" y="0" type="line"/>
      <point x="1370" y="0" type="line"/>
      <point x="1400" y="172" type="line"/>
      <point x="1022" y="172" type="line"/>
      <point x="1306" y="332"/>
      <point x="1468" y="570"/>
      <point x="1468" y="862" type="curve" smooth="yes"/>
      <point x="1468" y="1190"/>
      <point x="1258" y="1428"/>
      <point x="912" y="1428" type="curve" smooth="yes"/>
      <point x="466" y="1428"/>
      <point x="154" y="1090"/>
      <point x="154" y="650" type="curve" smooth="yes"/>
      <point x="154" y="432"/>
      <point x="260" y="278"/>
      <point x="396" y="172" type="curve"/>
      <point x="50" y="172" type="line"/>
      <point x="20" y="0" type="line"/>
      <point x="570" y="0" type="line"/>
      <point x="602" y="182" type="line"/>
      <point x="450" y="292"/>
      <point x="360" y="426"/>
      <point x="360" y="634" type="curve" smooth="yes"/>
      <point x="360" y="996"/>
      <point x="564" y="1262"/>
    </contour>
  </outline>
</glyph>
<glyph name="emptyset" format="2">
  <advance width="1004"/>
  <unicode hex="2205"/>
  <outline>
    <contour>
      <point x="384" y="124" type="curve" smooth="yes"/>
      <point x="664" y="124"/>
      <point x="908" y="362"/>
      <point x="908" y="640" type="curve" smooth="yes"/>
      <point x="908" y="846"/>
      <point x="756" y="1004"/>
      <point x="540" y="1004" type="curve" smooth="yes"/>
      <point x="256" y="1004"/>
      <point x="14" y="762"/>
      <point x="14" y="484" type="curve" smooth="yes"/>
      <point x="14" y="278"/>
      <point x="168" y="124"/>
    </contour>
    <contour>
      <point x="412" y="284" type="curve" smooth="yes"/>
      <point x="274" y="284"/>
      <point x="186" y="376"/>
      <point x="186" y="508" type="curve" smooth="yes"/>
      <point x="186" y="676"/>
      <point x="324" y="844"/>
      <point x="512" y="844" type="curve" smooth="yes"/>
      <point x="650" y="844"/>
      <point x="738" y="752"/>
      <point x="738" y="620" type="curve" smooth="yes"/>
      <point x="738" y="428"/>
      <point x="596" y="284"/>
    </contour>
    <contour>
      <point x="50" y="100" type="line"/>
      <point x="944" y="944" type="line"/>
      <point x="874" y="1028" type="line"/>
      <point x="-20" y="184" type="line"/>
    </contour>
  </outline>
</glyph>
<glyph name="increment" format="2">
  <advance width="1216"/>
  <unicode hex="2206"/>
  <outline>
    <contour>
      <point x="808" y="1400" type="line"/>
      <point x="608" y="1400" type="line"/>
      <point x="-104" y="86" type="line"/>
      <point x="-120" y="0" type="line"/>
      <point x="1040" y="0" type="line"/>
      <point x="1056" y="84" type="line"/>
    </contour>
    <contour>
      <point x="926" y="172" type="line"/>
      <point x="58" y="172" type="line"/>
      <point x="100" y="92" type="line"/>
      <point x="706" y="1222" type="line"/>
      <point x="658" y="1222" type="line"/>
      <point x="856" y="92" type="line"/>
    </contour>
  </outline>
</glyph>
<glyph name="product" format="2">
  <advance width="1272"/>
  <unicode hex="220F"/>
  <outline>
    <contour>
      <point x="-40" y="-400" type="line"/>
      <point x="150" y="-400" type="line"/>
      <point x="434" y="1220" type="line"/>
      <point x="970" y="1220" type="line"/>
      <point x="686" y="-400" type="line"/>
      <point x="876" y="-400" type="line"/>
      <point x="1160" y="1220" type="line"/>
      <point x="1340" y="1220" type="line"/>
      <point x="1372" y="1400" type="line"/>
      <point x="96" y="1400" type="line"/>
      <point x="64" y="1220" type="line"/>
      <point x="244" y="1220" type="line"/>
    </contour>
  </outline>
</glyph>
<glyph name="summation" format="2">
  <advance width="1176"/>
  <unicode hex="2211"/>
  <outline>
    <contour>
      <point x="770" y="496" type="line"/>
      <point x="306" y="1314" type="line"/>
      <point x="278" y="1220" type="line"/>
      <point x="1144" y="1220" type="line"/>
      <point x="1176" y="1400" type="line"/>
      <point x="116" y="1400" type="line"/>
      <point x="100" y="1308" type="line"/>
      <point x="546" y="514" type="line"/>
      <point x="-186" y="-320" type="line"/>
      <point x="-200" y="-400" type="line"/>
      <point x="880" y="-400" type="line"/>
      <point x="912" y="-220" type="line"/>
      <point x="26" y="-220" type="line"/>
      <point x="44" y="-308" type="line"/>
    </contour>
  </outline>
</glyph>
<glyph name="minus" format="2">
  <advance width="840"/>
  <unicode hex="2212"/>
  <outline>
    <contour>
      <point x="20" y="486" type="line"/>
      <point x="696" y="486" type="line"/>
      <point x="724" y="638" type="line"/>
      <point x="48" y="638" type="line"/>
    </contour>
  </outline>
</glyph>
<glyph name="radical" format="2">
  <advance width="1504"/>
  <unicode hex="221A"/>
  <outline>
    <contour>
      <point x="118" y="502" type="line"/>
      <point x="272" y="-400" type="line"/>
      <point x="462" y="-400" type="line"/>
      <point x="1314" y="1302" type="line"/>
      <point x="1188" y="1220" type="line"/>
      <point x="1492" y="1220" type="line"/>
      <point x="1524" y="1400" type="line"/>
      <point x="1160" y="1400" type="line"/>
      <point x="378" y="-174" type="line"/>
      <point x="420" y="-174" type="line"/>
      <point x="290" y="600" type="line"/>
      <point x="-8" y="600" type="line"/>
      <point x="-40" y="420" type="line"/>
      <point x="214" y="420" type="line"/>
    </contour>
  </outline>
</glyph>
<glyph name="infinity" format="2">
  <advance width="1378"/>
  <unicode hex="221E"/>
  <outline>
    <contour>
      <point x="890" y="352" type="curve" smooth="yes"/>
      <point x="1120" y="352"/>
      <point x="1318" y="532"/>
      <point x="1318" y="772" type="curve" smooth="yes"/>
      <point x="1318" y="938"/>
      <point x="1196" y="1056"/>
      <point x="1016" y="1056" type="curve" smooth="yes"/>
      <point x="788" y="1056"/>
      <point x="596" y="862"/>
      <point x="596" y="634" type="curve" smooth="yes"/>
      <point x="596" y="468"/>
      <point x="714" y="352"/>
    </contour>
    <contour>
      <point x="304" y="352" type="curve" smooth="yes"/>
      <point x="532" y="352"/>
      <point x="722" y="546"/>
      <point x="722" y="774" type="curve" smooth="yes"/>
      <point x="722" y="940"/>
      <point x="604" y="1056"/>
      <point x="428" y="1056" type="curve" smooth="yes"/>
      <point x="198" y="1056"/>
      <point x="0" y="866"/>
      <point x="0" y="636" type="curve" smooth="yes"/>
      <point x="0" y="470"/>
      <point x="122" y="352"/>
    </contour>
    <contour>
      <point x="906" y="524" type="curve" smooth="yes"/>
      <point x="810" y="524"/>
      <point x="748" y="582"/>
      <point x="748" y="668" type="curve" smooth="yes"/>
      <point x="748" y="780"/>
      <point x="842" y="884"/>
      <point x="970" y="884" type="curve" smooth="yes"/>
      <point x="1066" y="884"/>
      <point x="1126" y="826"/>
      <point x="1128" y="740" type="curve" smooth="yes"/>
      <point x="1128" y="628"/>
      <point x="1034" y="524"/>
    </contour>
    <contour>
      <point x="348" y="524" type="curve" smooth="yes"/>
      <point x="252" y="524"/>
      <point x="190" y="582"/>
      <point x="190" y="668" type="curve" smooth="yes"/>
      <point x="190" y="780"/>
      <point x="284" y="884"/>
      <point x="412" y="884" type="curve" smooth="yes"/>
      <point x="508" y="884"/>
      <point x="570" y="826"/>
      <point x="570" y="738" type="curve" smooth="yes"/>
      <point x="570" y="608"/>
      <point x="488" y="524"/>
    </contour>
  </outline>
</glyph>
<glyph name="integral" format="2">
  <advance width="802"/>
  <unicode hex="222B"/>
  <outline>
    <contour>
      <point x="122" y="-66" type="line" smooth="yes"/>
      <point x="98" y="-186"/>
      <point x="34" y="-244"/>
      <point x="-70" y="-244" type="curve" smooth="yes"/>
      <point x="-104" y="-244"/>
      <point x="-132" y="-238"/>
      <point x="-156" y="-230" type="curve"/>
      <point x="-200" y="-400" type="line"/>
      <point x="-158" y="-418"/>
      <point x="-108" y="-428"/>
      <point x="-48" y="-428" type="curve" smooth="yes"/>
      <point x="124" y="-428"/>
      <point x="260" y="-320"/>
      <point x="302" y="-120" type="curve" smooth="yes"/>
      <point x="560" y="1066" type="line" smooth="yes"/>
      <point x="584" y="1186"/>
      <point x="648" y="1244"/>
      <point x="752" y="1244" type="curve" smooth="yes"/>
      <point x="786" y="1244"/>
      <point x="814" y="1238"/>
      <point x="838" y="1230" type="curve"/>
      <point x="882" y="1400" type="line"/>
      <point x="840" y="1418"/>
      <point x="790" y="1428"/>
      <point x="730" y="1428" type="curve" smooth="yes"/>
      <point x="558" y="1428"/>
      <point x="422" y="1320"/>
      <point x="380" y="1120" type="curve" smooth="yes"/>
    </contour>
  </outline>
</glyph>
<glyph name="notequal" format="2">
  <advance width="882"/>
  <unicode hex="2260"/>
  <outline>
    <contour>
      <point x="64" y="200" type="line"/>
      <point x="216" y="200" type="line"/>
      <point x="764" y="908" type="line"/>
      <point x="612" y="908" type="line"/>
    </contour>
    <component base="equal"/>
  </outline>
</glyph>
<glyph name="lessequal" format="2">
  <advance width="892"/>
  <unicode hex="2264"/>
  <outline>
    <contour>
      <point x="-32" y="120" type="line"/>
      <point x="696" y="120" type="line"/>
      <point x="722" y="264" type="line"/>
      <point x="-6" y="264" type="line"/>
    </contour>
    <contour>
      <point x="54" y="606" type="line"/>
      <point x="734" y="336" type="line"/>
      <point x="764" y="494" type="line"/>
      <point x="254" y="684" type="line"/>
      <point x="830" y="870" type="line"/>
      <point x="860" y="1040" type="line"/>
      <point x="84" y="770" type="line"/>
    </contour>
  </outline>
</glyph>
<glyph name="greaterequal" format="2">
  <advance width="868"/>
  <unicode hex="2265"/>
  <outline>
    <contour>
      <point x="672" y="120" type="line"/>
      <point x="698" y="264" type="line"/>
      <point x="-30" y="264" type="line"/>
      <point x="-56" y="120" type="line"/>
    </contour>
    <contour>
      <point x="758" y="606" type="line"/>
      <point x="788" y="770" type="line"/>
      <point x="108" y="1040" type="line"/>
      <point x="78" y="882" type="line"/>
      <point x="592" y="696" type="line"/>
      <point x="12" y="506" type="line"/>
      <point x="-18" y="336" type="line"/>
    </contour>
  </outline>
</glyph>
<glyph name="lozenge" format="2">
  <advance width="1164"/>
  <unicode hex="25CA"/>
  <outline>
    <contour>
      <point x="1104" y="700" type="line"/>
      <point x="748" y="1400" type="line"/>
      <point x="628" y="1400" type="line"/>
      <point x="24" y="700" type="line"/>
      <point x="380" y="0" type="line"/>
      <point x="500" y="0" type="line"/>
    </contour>
    <contour>
      <point x="878" y="706" type="line"/>
      <point x="440" y="192" type="line"/>
      <point x="504" y="192" type="line"/>
      <point x="250" y="700" type="line"/>
      <point x="688" y="1214" type="line"/>
      <point x="624" y="1214" type="line"/>
    </contour>
  </outline>
</glyph>
<glyph name="A.sc" format="2">
  <advance width="992"/>
  <outline>
    <contour>
      <point x="-76" y="0" type="line"/>
      <point x="118" y="0" type="line"/>
      <point x="262" y="282" type="line"/>
      <point x="636" y="282" type="line"/>
      <point x="682" y="0" type="line"/>
      <point x="874" y="0" type="line"/>
      <point x="688" y="1120" type="line"/>
      <point x="508" y="1120" type="line"/>
    </contour>
    <contour>
      <point x="356" y="458" type="line"/>
      <point x="546" y="836" type="line"/>
      <point x="604" y="458" type="line"/>
    </contour>
  </outline>
</glyph>
<glyph name="D.sc" format="2">
  <advance width="1172"/>
  <outline>
    <contour>
      <point x="42" y="0" type="line"/>
      <point x="446" y="0" type="line" smooth="yes"/>
      <point x="804" y="0"/>
      <point x="1092" y="258"/>
      <point x="1092" y="666" type="curve" smooth="yes"/>
      <point x="1092" y="950"/>
      <point x="914" y="1120"/>
      <point x="644" y="1120" type="curve" smooth="yes"/>
      <point x="240" y="1120" type="line"/>
    </contour>
    <contour>
      <point x="258" y="176" type="line"/>
      <point x="394" y="944" type="line"/>
      <point x="612" y="944" type="line" smooth="yes"/>
      <point x="798" y="944"/>
      <point x="888" y="828"/>
      <point x="888" y="648" type="curve" smooth="yes"/>
      <point x="888" y="378"/>
      <point x="744" y="176"/>
      <point x="478" y="176" type="curve" smooth="yes"/>
    </contour>
  </outline>
</glyph>
<glyph name="F.sc" format="2">
  <advance width="864"/>
  <outline>
    <contour>
      <point x="42" y="0" type="line"/>
      <point x="226" y="0" type="line"/>
      <point x="314" y="496" type="line"/>
      <point x="686" y="496" type="line"/>
      <point x="716" y="672" type="line"/>
      <point x="346" y="672" type="line"/>
      <point x="394" y="944" type="line"/>
      <point x="874" y="944" type="line"/>
      <point x="904" y="1120" type="line"/>
      <point x="240" y="1120" type="line"/>
    </contour>
  </outline>
</glyph>
<glyph name="K.sc" format="2">
  <advance width="1000"/>
  <outline>
    <contour>
      <point x="656" y="0" type="line"/>
      <point x="860" y="0" type="line"/>
      <point x="582" y="592" type="line"/>
      <point x="1058" y="1120" type="line"/>
      <point x="852" y="1120" type="line"/>
      <point x="376" y="592" type="line"/>
    </contour>
    <contour>
      <point x="42" y="0" type="line"/>
      <point x="226" y="0" type="line"/>
      <point x="424" y="1120" type="line"/>
      <point x="240" y="1120" type="line"/>
    </contour>
  </outline>
</glyph>
<glyph name="N.sc" format="2">
  <advance width="1146"/>
  <outline>
    <contour>
      <point x="42" y="0" type="line"/>
      <point x="226" y="0" type="line"/>
      <point x="370" y="810" type="line"/>
      <point x="740" y="0" type="line"/>
      <point x="894" y="0" type="line"/>
      <point x="1092" y="1120" type="line"/>
      <point x="906" y="1120" type="line"/>
      <point x="772" y="356" type="line"/>
      <point x="424" y="1120" type="line"/>
      <point x="240" y="1120" type="line"/>
    </contour>
  </outline>
</glyph>
<glyph name="P.sc" format="2">
  <advance width="966"/>
  <outline>
    <contour>
      <point x="42" y="0" type="line"/>
      <point x="230" y="0" type="line"/>
      <point x="296" y="376" type="line"/>
      <point x="500" y="376" type="line" smooth="yes"/>
      <point x="672" y="376"/>
      <point x="946" y="474"/>
      <point x="946" y="856" type="curve" smooth="yes"/>
      <point x="946" y="1080"/>
      <point x="796" y="1120"/>
      <point x="556" y="1120" type="curve" smooth="yes"/>
      <point x="240" y="1120" type="line"/>
    </contour>
    <contour>
      <point x="326" y="548" type="line"/>
      <point x="400" y="962" type="line"/>
      <point x="562" y="962" type="line" smooth="yes"/>
      <point x="702" y="962"/>
      <point x="754" y="918"/>
      <point x="754" y="820" type="curve" smooth="yes"/>
      <point x="754" y="652"/>
      <point x="700" y="548"/>
      <point x="504" y="548" type="curve" smooth="yes"/>
    </contour>
  </outline>
</glyph>
<glyph name="R.sc" format="2">
  <advance width="1014"/>
  <outline>
    <contour>
      <point x="42" y="0" type="line"/>
      <point x="230" y="0" type="line"/>
      <point x="304" y="424" type="line"/>
      <point x="512" y="424" type="line"/>
      <point x="666" y="0" type="line"/>
      <point x="860" y="0" type="line"/>
      <point x="696" y="472" type="line"/>
      <point x="838" y="548"/>
      <point x="948" y="664"/>
      <point x="948" y="862" type="curve" smooth="yes"/>
      <point x="948" y="1056"/>
      <point x="812" y="1120"/>
      <point x="624" y="1120" type="curve" smooth="yes"/>
      <point x="240" y="1120" type="line"/>
    </contour>
    <contour>
      <point x="336" y="600" type="line"/>
      <point x="400" y="966" type="line"/>
      <point x="562" y="966" type="line" smooth="yes"/>
      <point x="702" y="966"/>
      <point x="750" y="914"/>
      <point x="750" y="828" type="curve" smooth="yes"/>
      <point x="750" y="696"/>
      <point x="702" y="600"/>
      <point x="502" y="600" type="curve" smooth="yes"/>
    </contour>
  </outline>
</glyph>
<glyph name="T.sc" format="2">
  <advance width="916"/>
  <outline>
    <contour>
      <point x="262" y="0" type="line"/>
      <point x="448" y="0" type="line"/>
      <point x="614" y="944" type="line"/>
      <point x="924" y="944" type="line"/>
      <point x="954" y="1120" type="line"/>
      <point x="152" y="1120" type="line"/>
      <point x="120" y="944" type="line"/>
      <point x="428" y="944" type="line"/>
    </contour>
  </outline>
</glyph>
<glyph name="U.sc" format="2">
  <advance width="1166"/>
  <outline>
    <contour>
      <point x="476" y="-22" type="curve"/>
      <point x="782" y="-22"/>
      <point x="958" y="174"/>
      <point x="1012" y="478" type="curve" smooth="yes"/>
      <point x="1126" y="1120" type="line"/>
      <point x="940" y="1120" type="line"/>
      <point x="840" y="548" type="line" smooth="yes"/>
      <point x="802" y="336"/>
      <point x="728" y="154"/>
      <point x="508" y="154" type="curve" smooth="yes"/>
      <point x="346" y="154"/>
      <point x="296" y="252"/>
      <point x="296" y="388" type="curve" smooth="yes"/>
      <point x="296" y="438"/>
      <point x="302" y="492"/>
      <point x="312" y="548" type="curve" smooth="yes"/>
      <point x="412" y="1120" type="line"/>
      <point x="230" y="1120" type="line"/>
      <point x="116" y="478" type="line" smooth="yes"/>
      <point x="108" y="428"/>
      <point x="102" y="382"/>
      <point x="102" y="338" type="curve" smooth="yes"/>
      <point x="102" y="114"/>
      <point x="222" y="-22"/>
    </contour>
  </outline>
</glyph>
<glyph name="V.sc" format="2">
  <advance width="1046"/>
  <outline>
    <contour>
      <point x="304" y="0" type="line"/>
      <point x="522" y="0" type="line"/>
      <point x="1110" y="1120" type="line"/>
      <point x="916" y="1120" type="line"/>
      <point x="454" y="236" type="line"/>
      <point x="298" y="1120" type="line"/>
      <point x="104" y="1120" type="line"/>
    </contour>
  </outline>
</glyph>
<glyph name="W.sc" format="2">
  <advance width="1544"/>
  <outline>
    <contour>
      <point x="246" y="0" type="line"/>
      <point x="426" y="0" type="line"/>
      <point x="816" y="808" type="line"/>
      <point x="916" y="0" type="line"/>
      <point x="1088" y="0" type="line"/>
      <point x="1604" y="1120" type="line"/>
      <point x="1410" y="1120" type="line"/>
      <point x="1048" y="284" type="line"/>
      <point x="936" y="1112" type="line"/>
      <point x="800" y="1112" type="line"/>
      <point x="404" y="270" type="line"/>
      <point x="332" y="1120" type="line"/>
      <point x="138" y="1120" type="line"/>
    </contour>
  </outline>
</glyph>
<glyph name="X.sc" format="2">
  <advance width="1022"/>
  <outline>
    <contour>
      <point x="-70" y="0" type="line"/>
      <point x="140" y="0" type="line"/>
      <point x="478" y="428" type="line"/>
      <point x="676" y="0" type="line"/>
      <point x="888" y="0" type="line"/>
      <point x="610" y="580" type="line"/>
      <point x="1068" y="1120" type="line"/>
      <point x="860" y="1120" type="line"/>
      <point x="540" y="710" type="line"/>
      <point x="354" y="1120" type="line"/>
      <point x="140" y="1120" type="line"/>
      <point x="406" y="558" type="line"/>
    </contour>
  </outline>
</glyph>
<glyph name="Y.sc" format="2">
  <advance width="968"/>
  <outline>
    <contour>
      <point x="280" y="0" type="line"/>
      <point x="468" y="0" type="line"/>
      <point x="556" y="504" type="line"/>
      <point x="1038" y="1120" type="line"/>
      <point x="842" y="1120" type="line"/>
      <point x="492" y="670" type="line"/>
      <point x="302" y="1120" type="line"/>
      <point x="106" y="1120" type="line"/>
      <point x="370" y="504" type="line"/>
    </contour>
  </outline>
</glyph>
<glyph name="acutecomb.case" format="2">
  <anchor x="-42" y="980" name="_top"/>
  <anchor x="28" y="1344" name="top"/>
  <outline>
    <contour>
      <point x="-172" y="1108" type="line"/>
      <point x="158" y="1224" type="line"/>
      <point x="186" y="1426" type="line"/>
      <point x="-156" y="1236" type="line"/>
    </contour>
  </outline>
</glyph>
<glyph name="at.ss01" format="2">
  <advance width="1958"/>
  <outline>
    <contour>
      <point x="844" y="-438" type="curve" smooth="yes"/>
      <point x="978" y="-438"/>
      <point x="1098" y="-422"/>
      <point x="1208" y="-390" type="curve"/>
      <point x="1240" y="-232" type="line"/>
      <point x="1120" y="-270"/>
      <point x="998" y="-286"/>
      <point x="874" y="-286" type="curve" smooth="yes"/>
      <point x="502" y="-286"/>
      <point x="262" y="-44"/>
      <point x="262" y="306" type="curve" smooth="yes"/>
      <point x="262" y="812"/>
      <point x="666" y="1250"/>
      <point x="1164" y="1250" type="curve" smooth="yes"/>
      <point x="1498" y="1250"/>
      <point x="1678" y="1070"/>
      <point x="1678" y="782" type="curve" smooth="yes"/>
      <point x="1678" y="512"/>
      <point x="1524" y="124"/>
      <point x="1320" y="124" type="curve" smooth="yes"/>
      <point x="1264" y="124"/>
      <point x="1242" y="152"/>
      <point x="1252" y="208" type="curve" smooth="yes"/>
      <point x="1256" y="226"/>
      <point x="1262" y="254"/>
      <point x="1274" y="286" type="curve" smooth="yes"/>
      <point x="1514" y="980" type="line"/>
      <point x="1354" y="980" type="line"/>
      <point x="1296" y="866" type="line"/>
      <point x="1272" y="942"/>
      <point x="1202" y="1000"/>
      <point x="1090" y="1000" type="curve" smooth="yes"/>
      <point x="770" y="1000"/>
      <point x="500" y="636"/>
      <point x="500" y="290" type="curve" smooth="yes"/>
      <point x="500" y="108"/>
      <point x="588" y="-20"/>
      <point x="742" y="-20" type="curve" smooth="yes"/>
      <point x="850" y="-20"/>
      <point x="962" y="30"/>
      <point x="1054" y="124" type="curve"/>
      <point x="1078" y="26"/>
      <point x="1126" y="-36"/>
      <point x="1274" y="-36" type="curve" smooth="yes"/>
      <point x="1608" y="-36"/>
      <point x="1858" y="408"/>
      <point x="1858" y="796" type="curve" smooth="yes"/>
      <point x="1860" y="1140"/>
      <point x="1632" y="1400"/>
      <point x="1206" y="1400" type="curve" smooth="yes"/>
      <point x="604" y="1400"/>
      <point x="80" y="890"/>
      <point x="80" y="280" type="curve" smooth="yes"/>
      <point x="80" y="-136"/>
      <point x="398" y="-438"/>
    </contour>
    <contour>
      <point x="830" y="140" type="curve" smooth="yes"/>
      <point x="732" y="140"/>
      <point x="692" y="218"/>
      <point x="692" y="326" type="curve" smooth="yes"/>
      <point x="692" y="556"/>
      <point x="854" y="840"/>
      <point x="1044" y="840" type="curve" smooth="yes"/>
      <point x="1140" y="840"/>
      <point x="1206" y="780"/>
      <point x="1206" y="646" type="curve" smooth="yes"/>
      <point x="1206" y="410"/>
      <point x="1044" y="140"/>
    </contour>
  </outline>
</glyph>
<glyph name="brevecomb_gravecomb" format="2">
  <anchor x="-56" y="982" name="_top"/>
  <anchor x="56" y="1616" name="top"/>
  <outline>
    <contour>
      <point x="-22" y="1108" type="curve" smooth="yes"/>
      <point x="176" y="1108"/>
      <point x="286" y="1208"/>
      <point x="310" y="1348" type="curve"/>
      <point x="150" y="1348" type="line"/>
      <point x="136" y="1270"/>
      <point x="68" y="1232"/>
      <point x="-4" y="1232" type="curve" smooth="yes"/>
      <point x="-68" y="1232"/>
      <point x="-116" y="1262"/>
      <point x="-116" y="1324" type="curve" smooth="yes"/>
      <point x="-116" y="1332"/>
      <point x="-116" y="1340"/>
      <point x="-114" y="1348" type="curve"/>
      <point x="-274" y="1348" type="line"/>
      <point x="-276" y="1334"/>
      <point x="-278" y="1318"/>
      <point x="-278" y="1304" type="curve" smooth="yes"/>
      <point x="-278" y="1198"/>
      <point x="-202" y="1108"/>
    </contour>
    <contour>
      <point x="226" y="1436" type="line"/>
      <point x="248" y="1552" type="line"/>
      <point x="-72" y="1742" type="line"/>
      <point x="-106" y="1552" type="line"/>
    </contour>
  </outline>
</glyph>
<glyph name="brevecomb_hookabovecomb" format="2">
  <anchor x="-58" y="980" name="_top"/>
  <anchor x="60" y="1644" name="top"/>
  <outline>
    <contour>
      <point x="-4" y="1108" type="curve" smooth="yes"/>
      <point x="194" y="1108"/>
      <point x="304" y="1208"/>
      <point x="328" y="1348" type="curve"/>
      <point x="168" y="1348" type="line"/>
      <point x="154" y="1270"/>
      <point x="86" y="1232"/>
      <point x="14" y="1232" type="curve" smooth="yes"/>
      <point x="-50" y="1232"/>
      <point x="-98" y="1262"/>
      <point x="-98" y="1324" type="curve" smooth="yes"/>
      <point x="-98" y="1332"/>
      <point x="-98" y="1340"/>
      <point x="-96" y="1348" type="curve"/>
      <point x="-256" y="1348" type="line"/>
      <point x="-258" y="1334"/>
      <point x="-260" y="1318"/>
      <point x="-260" y="1304" type="curve" smooth="yes"/>
      <point x="-260" y="1198"/>
      <point x="-184" y="1108"/>
    </contour>
    <contour>
      <point x="48" y="1380" type="line"/>
      <point x="162" y="1404"/>
      <point x="244" y="1466"/>
      <point x="244" y="1570" type="curve" smooth="yes"/>
      <point x="244" y="1656"/>
      <point x="174" y="1704"/>
      <point x="78" y="1704" type="curve" smooth="yes"/>
      <point x="18" y="1704"/>
      <point x="-38" y="1690"/>
      <point x="-84" y="1668" type="curve"/>
      <point x="-68" y="1566" type="line"/>
      <point x="-26" y="1586"/>
      <point x="16" y="1602"/>
      <point x="54" y="1602" type="curve" smooth="yes"/>
      <point x="98" y="1602"/>
      <point x="126" y="1582"/>
      <point x="126" y="1546" type="curve" smooth="yes"/>
      <point x="126" y="1508"/>
      <point x="96" y="1478"/>
      <point x="44" y="1460" type="curve"/>
    </contour>
  </outline>
</glyph>
<glyph name="brevecomb_tildecomb" format="2">
  <anchor x="-66" y="980" name="_top"/>
  <anchor x="64" y="1720" name="top"/>
  <outline>
    <contour>
      <point x="-18" y="1108" type="curve" smooth="yes"/>
      <point x="180" y="1108"/>
      <point x="290" y="1208"/>
      <point x="314" y="1348" type="curve"/>
      <point x="154" y="1348" type="line"/>
      <point x="140" y="1270"/>
      <point x="72" y="1232"/>
      <point x="0" y="1232" type="curve" smooth="yes"/>
      <point x="-64" y="1232"/>
      <point x="-112" y="1262"/>
      <point x="-112" y="1324" type="curve" smooth="yes"/>
      <point x="-112" y="1332"/>
      <point x="-112" y="1340"/>
      <point x="-110" y="1348" type="curve"/>
      <point x="-270" y="1348" type="line"/>
      <point x="-272" y="1334"/>
      <point x="-274" y="1318"/>
      <point x="-274" y="1304" type="curve" smooth="yes"/>
      <point x="-274" y="1198"/>
      <point x="-198" y="1108"/>
    </contour>
    <contour>
      <point x="210" y="1442" type="curve" smooth="yes"/>
      <point x="306" y="1442"/>
      <point x="378" y="1510"/>
      <point x="398" y="1642" type="curve"/>
      <point x="268" y="1642" type="line"/>
      <point x="262" y="1600"/>
      <point x="236" y="1574"/>
      <point x="200" y="1574" type="curve" smooth="yes"/>
      <point x="124" y="1574"/>
      <point x="24" y="1652"/>
      <point x="-66" y="1652" type="curve" smooth="yes"/>
      <point x="-160" y="1652"/>
      <point x="-228" y="1582"/>
      <point x="-250" y="1452" type="curve"/>
      <point x="-120" y="1452" type="line"/>
      <point x="-116" y="1498"/>
      <point x="-86" y="1520"/>
      <point x="-52" y="1520" type="curve" smooth="yes"/>
      <point x="14" y="1520"/>
      <point x="124" y="1442"/>
    </contour>
  </outline>
</glyph>
<glyph name="breveinvertedcomb.case" format="2">
  <anchor x="-32" y="980" name="_top"/>
  <anchor x="32" y="1338" name="top"/>
  <outline>
    <contour>
      <point x="-292" y="1138" type="curve"/>
      <point x="-132" y="1138" type="line"/>
      <point x="-118" y="1216"/>
      <point x="-52" y="1254"/>
      <point x="18" y="1254" type="curve" smooth="yes"/>
      <point x="80" y="1254"/>
      <point x="126" y="1224"/>
      <point x="126" y="1162" type="curve" smooth="yes"/>
      <point x="126" y="1154"/>
      <point x="126" y="1148"/>
      <point x="124" y="1138" type="curve"/>
      <point x="284" y="1138" type="line"/>
      <point x="286" y="1152"/>
      <point x="288" y="1166"/>
      <point x="288" y="1180" type="curve" smooth="yes"/>
      <point x="288" y="1288"/>
      <point x="214" y="1378"/>
      <point x="40" y="1378" type="curve" smooth="yes"/>
      <point x="-158" y="1378"/>
      <point x="-270" y="1262"/>
    </contour>
  </outline>
</glyph>
<glyph name="caroncomb.alt" format="2">
  <anchor x="0" y="1390" name="_topright"/>
  <outline>
    <contour>
      <point x="-60" y="1056" type="line"/>
      <point x="70" y="1056" type="line"/>
      <point x="186" y="1390" type="line"/>
      <point x="0" y="1390" type="line"/>
    </contour>
  </outline>
</glyph>
<glyph name="circumflexcomb.case" format="2">
  <anchor x="-28" y="980" name="_top"/>
  <anchor x="28" y="1294" name="top"/>
  <outline>
    <contour>
      <point x="246" y="1086" type="line"/>
      <point x="266" y="1208" type="line"/>
      <point x="44" y="1388" type="line"/>
      <point x="-196" y="1232" type="line"/>
      <point x="-216" y="1110" type="line"/>
      <point x="14" y="1218" type="line"/>
    </contour>
  </outline>
</glyph>
<glyph name="circumflexcomb_acutecomb" format="2">
  <anchor x="-28" y="980" name="_top"/>
  <anchor x="62" y="1490" name="top"/>
  <outline>
    <contour>
      <point x="246" y="1086" type="line"/>
      <point x="266" y="1208" type="line"/>
      <point x="44" y="1388" type="line"/>
      <point x="-196" y="1232" type="line"/>
      <point x="-216" y="1110" type="line"/>
      <point x="14" y="1218" type="line"/>
    </contour>
    <contour>
      <point x="170" y="1378" type="line"/>
      <point x="298" y="1378" type="line"/>
      <point x="526" y="1602" type="line"/>
      <point x="334" y="1602" type="line"/>
    </contour>
  </outline>
</glyph>
<glyph name="circumflexcomb_gravecomb" format="2">
  <guideline x="7" y="609" angle="80"/>
  <anchor x="-28" y="980" name="_top"/>
  <anchor x="94" y="1664" name="top"/>
  <outline>
    <contour>
      <point x="246" y="1086" type="line"/>
      <point x="266" y="1208" type="line"/>
      <point x="44" y="1388" type="line"/>
      <point x="-196" y="1232" type="line"/>
      <point x="-216" y="1110" type="line"/>
      <point x="14" y="1218" type="line"/>
    </contour>
    <contour>
      <point x="158" y="1378" type="line"/>
      <point x="286" y="1378" type="line"/>
      <point x="214" y="1612" type="line"/>
      <point x="24" y="1612" type="line"/>
    </contour>
  </outline>
</glyph>
<glyph name="circumflexcomb_hookabovecomb" format="2">
  <guideline x="7" y="609" angle="80"/>
  <anchor x="-28" y="980" name="_top"/>
  <anchor x="74" y="1560" name="top"/>
  <outline>
    <contour>
      <point x="246" y="1086" type="line"/>
      <point x="266" y="1208" type="line"/>
      <point x="44" y="1388" type="line"/>
      <point x="-196" y="1232" type="line"/>
      <point x="-216" y="1110" type="line"/>
      <point x="14" y="1218" type="line"/>
    </contour>
    <contour>
      <point x="206" y="1324" type="line"/>
      <point x="320" y="1348"/>
      <point x="402" y="1410"/>
      <point x="402" y="1514" type="curve" smooth="yes"/>
      <point x="402" y="1600"/>
      <point x="332" y="1648"/>
      <point x="236" y="1648" type="curve" smooth="yes"/>
      <point x="176" y="1648"/>
      <point x="120" y="1634"/>
      <point x="74" y="1612" type="curve"/>
      <point x="90" y="1510" type="line"/>
      <point x="132" y="1530"/>
      <point x="174" y="1546"/>
      <point x="212" y="1546" type="curve" smooth="yes"/>
      <point x="256" y="1546"/>
      <point x="284" y="1526"/>
      <point x="284" y="1490" type="curve" smooth="yes"/>
      <point x="284" y="1452"/>
      <point x="254" y="1422"/>
      <point x="202" y="1404" type="curve"/>
    </contour>
  </outline>
</glyph>
<glyph name="circumflexcomb_tildecomb" format="2">
  <guideline x="7" y="609" angle="80"/>
  <anchor x="-28" y="980" name="_top"/>
  <anchor x="86" y="1626" name="top"/>
  <outline>
    <contour>
      <point x="246" y="1086" type="line"/>
      <point x="266" y="1208" type="line"/>
      <point x="44" y="1388" type="line"/>
      <point x="-196" y="1232" type="line"/>
      <point x="-216" y="1110" type="line"/>
      <point x="14" y="1218" type="line"/>
    </contour>
    <contour>
      <point x="214" y="1450" type="curve" smooth="yes"/>
      <point x="310" y="1450"/>
      <point x="382" y="1518"/>
      <point x="402" y="1650" type="curve"/>
      <point x="272" y="1650" type="line"/>
      <point x="266" y="1608"/>
      <point x="240" y="1582"/>
      <point x="204" y="1582" type="curve" smooth="yes"/>
      <point x="128" y="1582"/>
      <point x="28" y="1660"/>
      <point x="-62" y="1660" type="curve" smooth="yes"/>
      <point x="-156" y="1660"/>
      <point x="-224" y="1590"/>
      <point x="-246" y="1460" type="curve"/>
      <point x="-116" y="1460" type="line"/>
      <point x="-112" y="1506"/>
      <point x="-82" y="1528"/>
      <point x="-48" y="1528" type="curve" smooth="yes"/>
      <point x="18" y="1528"/>
      <point x="128" y="1450"/>
    </contour>
  </outline>
</glyph>
<glyph name="dblgravecomb.case" format="2">
  <anchor x="-46" y="980" name="_top"/>
  <anchor x="46" y="1510" name="top"/>
  <outline>
    <contour>
      <point x="-216" y="1156" type="line"/>
      <point x="-88" y="1156" type="line"/>
      <point x="-162" y="1450" type="line"/>
      <point x="-354" y="1450" type="line"/>
    </contour>
    <contour>
      <point x="60" y="1156" type="line"/>
      <point x="188" y="1156" type="line"/>
      <point x="124" y="1450" type="line"/>
      <point x="-68" y="1450" type="line"/>
    </contour>
  </outline>
</glyph>
<glyph name="dieresiscomb.case" format="2">
  <anchor x="-28" y="980" name="_top"/>
  <anchor x="28" y="1300" name="top"/>
  <outline>
    <contour>
      <point x="104" y="1168" type="line"/>
      <point x="272" y="1168" type="line"/>
      <point x="300" y="1318" type="line"/>
      <point x="132" y="1318" type="line"/>
    </contour>
    <contour>
      <point x="-264" y="1168" type="line"/>
      <point x="-96" y="1168" type="line"/>
      <point x="-68" y="1318" type="line"/>
      <point x="-236" y="1318" type="line"/>
    </contour>
  </outline>
</glyph>
<glyph name="dotaccentcomb.case" format="2">
  <anchor x="-30" y="980" name="_top"/>
  <anchor x="28" y="1312" name="top"/>
  <outline>
    <contour>
      <point x="-92" y="1162" type="line"/>
      <point x="96" y="1162" type="line"/>
      <point x="128" y="1342" type="line"/>
      <point x="-60" y="1342" type="line"/>
    </contour>
  </outline>
</glyph>
<glyph name="eight.dnom" format="2">
  <advance width="600"/>
  <outline>
    <contour>
      <point x="28" y="666"/>
      <point x="28" y="528" type="curve" smooth="yes"/>
      <point x="28" y="430"/>
      <point x="102" y="364"/>
      <point x="226" y="364" type="curve" smooth="yes"/>
      <point x="378" y="364"/>
      <point x="496" y="466"/>
      <point x="496" y="604" type="curve" smooth="yes"/>
      <point x="496" y="694"/>
      <point x="438" y="772"/>
      <point x="302" y="772" type="curve" smooth="yes"/>
      <point x="148" y="772"/>
    </contour>
    <contour>
      <point x="180" y="98" type="curve" smooth="yes"/>
      <point x="112" y="98"/>
      <point x="76" y="136"/>
      <point x="76" y="196" type="curve" smooth="yes"/>
      <point x="76" y="282"/>
      <point x="134" y="340"/>
      <point x="222" y="340" type="curve" smooth="yes"/>
      <point x="290" y="340"/>
      <point x="328" y="302"/>
      <point x="328" y="242" type="curve" smooth="yes"/>
      <point x="328" y="166"/>
      <point x="270" y="98"/>
    </contour>
    <contour>
      <point x="246" y="470" type="curve" smooth="yes"/>
      <point x="196" y="470"/>
      <point x="168" y="500"/>
      <point x="168" y="540" type="curve" smooth="yes"/>
      <point x="168" y="592"/>
      <point x="208" y="646"/>
      <point x="276" y="646" type="curve" smooth="yes"/>
      <point x="326" y="646"/>
      <point x="352" y="618"/>
      <point x="352" y="578" type="curve" smooth="yes"/>
      <point x="352" y="516"/>
      <point x="306" y="470"/>
    </contour>
    <contour>
      <point x="476" y="84"/>
      <point x="476" y="246" type="curve" smooth="yes"/>
      <point x="476" y="368"/>
      <point x="386" y="444"/>
      <point x="240" y="444" type="curve" smooth="yes"/>
      <point x="64" y="444"/>
      <point x="-80" y="328"/>
      <point x="-80" y="170" type="curve" smooth="yes"/>
      <point x="-80" y="52"/>
      <point x="14" y="-28"/>
      <point x="158" y="-28" type="curve" smooth="yes"/>
      <point x="336" y="-28"/>
    </contour>
  </outline>
</glyph>
<glyph name="five.dnom" format="2">
  <advance width="612"/>
  <outline>
    <contour>
      <point x="150" y="-28" type="curve" smooth="yes"/>
      <point x="328" y="-28"/>
      <point x="462" y="92"/>
      <point x="462" y="260" type="curve" smooth="yes"/>
      <point x="460" y="392"/>
      <point x="382" y="474"/>
      <point x="226" y="474" type="curve" smooth="yes"/>
      <point x="190" y="474"/>
      <point x="154" y="468"/>
      <point x="122" y="460" type="curve"/>
      <point x="166" y="418" type="line"/>
      <point x="250" y="698" type="line"/>
      <point x="180" y="614" type="line"/>
      <point x="490" y="614" type="line"/>
      <point x="520" y="744" type="line"/>
      <point x="134" y="744" type="line"/>
      <point x="14" y="326" type="line"/>
      <point x="58" y="336"/>
      <point x="108" y="344"/>
      <point x="160" y="344" type="curve" smooth="yes"/>
      <point x="256" y="344"/>
      <point x="302" y="300"/>
      <point x="302" y="234" type="curve" smooth="yes"/>
      <point x="302" y="150"/>
      <point x="242" y="102"/>
      <point x="156" y="102" type="curve" smooth="yes"/>
      <point x="88" y="102"/>
      <point x="36" y="124"/>
      <point x="-14" y="162" type="curve"/>
      <point x="-76" y="26" type="line"/>
      <point x="-10" y="-10"/>
      <point x="62" y="-28"/>
    </contour>
  </outline>
</glyph>
